<?xml version="1.0" encoding="UTF-8"?>
<svg id="Layer_2" data-name="Layer 2" xmlns="http://www.w3.org/2000/svg" xmlns:xlink="http://www.w3.org/1999/xlink" viewBox="0 0 24.59 18.69">
  <defs>
    <style>
      .cls-1 {
        fill: none;
      }

      .cls-2 {
        fill: #23261b;
      }

      .cls-3 {
        fill: #ff5a3a;
      }

      .cls-4 {
        clip-path: url(#clippath);
      }

      .cls-5 {
        fill: #ff744d;
      }
    </style>
    <clipPath id="clippath">
      <rect class="cls-1" width="24.59" height="18.69"/>
    </clipPath>
  </defs>
  <g id="Layer_1-2" data-name="Layer 1">
    <g class="cls-4">
      <g>
        <path class="cls-2" d="M61.72,17.9c-1.86,0-3.62-.71-4.96-1.99l-7.39-7.07-7.51,7.11c-1.34,1.26-3.09,1.96-4.93,1.96s-3.62-.71-4.97-1.99l-7.38-7.07-7.51,7.11c-1.34,1.26-3.09,1.96-4.93,1.96s-3.62-.71-4.97-1.99L-.22,8.83l-7.51,7.11c-1.34,1.26-3.09,1.96-4.93,1.96s-3.62-.71-4.97-1.99l-6.58-6.3c-2.86-2.74-4.5-6.59-4.5-10.55v-49.38c0-2.03,1.65-3.68,3.68-3.68h99.26c2.03,0,3.68,1.65,3.68,3.68V-.99c0,4-1.67,7.87-4.57,10.62l-6.67,6.31c-1.34,1.26-3.09,1.96-4.93,1.96h0Z"/>
        <path class="cls-5" d="M-25.04-50.33V-.95c0,2.98,1.22,5.84,3.37,7.9l6.58,6.3c1.35,1.29,3.47,1.3,4.83.02L-2.74,6.16c1.42-1.34,3.65-1.34,5.06.02l7.38,7.07c1.35,1.29,3.47,1.3,4.83.02l7.52-7.11c1.42-1.34,3.65-1.34,5.06.02l7.38,7.07c1.35,1.29,3.47,1.3,4.83.02l7.52-7.11c1.42-1.34,3.65-1.34,5.06.02l7.38,7.07c1.35,1.29,3.47,1.3,4.83.02l6.67-6.31c2.19-2.07,3.42-4.94,3.42-7.95v-49.34H-25.04Z"/>
        <path class="cls-3" d="M61.72,12.26c-.4,0-.78-.15-1.07-.43l-7.38-7.07c-1.05-1.01-2.44-1.57-3.9-1.57s-2.82.55-3.87,1.54l-7.52,7.11c-.29.27-.66.42-1.06.42s-.78-.15-1.07-.43l-7.38-7.07c-1.05-1.01-2.44-1.57-3.9-1.57s-2.82.55-3.87,1.54l-7.52,7.1c-.29.27-.66.42-1.06.42s-.78-.15-1.07-.43L3.68,4.76C2.62,3.75,1.24,3.19-.22,3.19s-2.82.55-3.87,1.54l-7.52,7.1c-.29.27-.66.42-1.06.42s-.78-.15-1.07-.43l-6.58-6.3c-1.76-1.68-2.77-4.05-2.77-6.48v-47.42h95.33V-.99c0,2.46-1.02,4.83-2.81,6.52l-6.67,6.31c-.29.27-.66.42-1.06.42h0Z"/>
      </g>
    </g>
  </g>
</svg>