<svg width="78" height="20" viewBox="0 0 78 20" fill="none" xmlns="http://www.w3.org/2000/svg">
<path d="M72.455 1.71997H62.875C60.71 1.71997 58.955 3.475 58.955 5.63995V15.22C58.955 17.3849 60.71 19.14 62.875 19.14H72.455C74.62 19.14 76.375 17.3849 76.375 15.22V5.63995C76.375 3.475 74.62 1.71997 72.455 1.71997Z" fill="#FD9E4E"/>
<path d="M72.465 2.54999C74.165 2.54999 75.545 3.93 75.545 5.63V15.22C75.545 16.92 74.165 18.3 72.465 18.3H62.875C61.175 18.3 59.795 16.92 59.795 15.22V5.63C59.795 3.93 61.175 2.54999 62.875 2.54999H72.465ZM72.465 0.880005H62.875C60.255 0.880005 58.125 3.01 58.125 5.63V15.22C58.125 17.84 60.255 19.97 62.875 19.97H72.465C75.085 19.97 77.215 17.84 77.215 15.22V5.63C77.215 3.01 75.085 0.880005 72.465 0.880005Z" fill="#23261B"/>
<path d="M43.585 1.71997H34.005C31.84 1.71997 30.085 3.475 30.085 5.63995V15.22C30.085 17.3849 31.84 19.14 34.005 19.14H43.585C45.7499 19.14 47.505 17.3849 47.505 15.22V5.63995C47.505 3.475 45.7499 1.71997 43.585 1.71997Z" fill="#F2FC8C"/>
<path d="M43.585 2.54999C45.285 2.54999 46.665 3.93 46.665 5.63V15.22C46.665 16.92 45.285 18.3 43.585 18.3H33.995C32.295 18.3 30.915 16.92 30.915 15.22V5.63C30.915 3.93 32.295 2.54999 33.995 2.54999H43.585ZM43.585 0.880005H33.995C31.375 0.880005 29.245 3.01 29.245 5.63V15.22C29.245 17.84 31.375 19.97 33.995 19.97H43.585C46.205 19.97 48.335 17.84 48.335 15.22V5.63C48.335 3.01 46.205 0.880005 43.585 0.880005Z" fill="#23261B"/>
<path d="M14.705 1.71997H5.125C2.96004 1.71997 1.20502 3.475 1.20502 5.63995V15.22C1.20502 17.3849 2.96004 19.14 5.125 19.14H14.705C16.87 19.14 18.625 17.3849 18.625 15.22V5.63995C18.625 3.475 16.87 1.71997 14.705 1.71997Z" fill="#61C5CB"/>
<path d="M14.705 2.54999C16.405 2.54999 17.785 3.93 17.785 5.63V15.22C17.785 16.92 16.405 18.3 14.705 18.3H5.11499C3.41499 18.3 2.03497 16.92 2.03497 15.22V5.63C2.03497 3.93 3.41499 2.54999 5.11499 2.54999H14.705ZM14.705 0.880005H5.11499C2.49499 0.880005 0.36499 3.01 0.36499 5.63V15.22C0.36499 17.84 2.49499 19.97 5.11499 19.97H14.705C17.325 19.97 19.455 17.84 19.455 15.22V5.63C19.455 3.01 17.325 0.880005 14.705 0.880005Z" fill="#23261B"/>
</svg>
