<svg width="23" height="27" viewBox="0 0 23 27" fill="none" xmlns="http://www.w3.org/2000/svg">
<path d="M11.2526 1.70001C12.0526 4.20001 13.2726 6.52 14.7926 8.44C16.5326 10.63 18.6626 12.32 20.9826 13.35C18.6626 14.37 16.5326 16.06 14.7926 18.26C13.2726 20.18 12.0526 22.5 11.2526 25C10.4526 22.5 9.23259 20.18 7.71259 18.26C5.97259 16.07 3.84258 14.38 1.52258 13.35C3.84258 12.32 5.98259 10.64 7.71259 8.44C9.23259 6.52 10.4526 4.20001 11.2526 1.70001Z" fill="#61C5CB"/>
<path d="M11.2526 21.8099C10.5226 20.2599 9.64262 18.8099 8.62262 17.5299C7.28262 15.8299 5.71261 14.4199 3.99261 13.3499C5.70261 12.2799 7.27262 10.8599 8.62262 9.16992C9.63262 7.88992 10.5226 6.43995 11.2526 4.88995C11.9826 6.43995 12.8626 7.88992 13.8826 9.16992C15.2226 10.8699 16.7926 12.2799 18.5126 13.3499C16.8026 14.4199 15.2326 15.8399 13.8826 17.5299C12.8726 18.8099 11.9826 20.2599 11.2526 21.8099ZM11.2526 26.71C11.6426 26.71 12.0226 26.4799 12.1526 26.0299C12.9226 23.3599 14.1426 20.9599 15.7026 18.9799C17.4126 16.8199 19.5226 15.1799 21.8826 14.2399C22.7126 13.9099 22.7126 12.7999 21.8826 12.4699C19.5226 11.5299 17.4126 9.87992 15.7026 7.72992C14.1426 5.75992 12.9126 3.35993 12.1526 0.679932C12.0226 0.219932 11.6326 -6.10352e-05 11.2526 -6.10352e-05C10.8726 -6.10352e-05 10.4826 0.229932 10.3526 0.679932C9.5826 3.34993 8.36261 5.74992 6.80261 7.72992C5.09261 9.88992 2.98262 11.5299 0.622618 12.4699C-0.207382 12.7999 -0.207382 13.9099 0.622618 14.2399C2.98262 15.1799 5.09261 16.8299 6.80261 18.9799C8.36261 20.9499 9.5926 23.3499 10.3526 26.0299C10.4826 26.4899 10.8726 26.71 11.2526 26.71Z" fill="#23261B"/>
</svg>
