<svg width="133" height="106" viewBox="0 0 133 106" fill="none" xmlns="http://www.w3.org/2000/svg">
<path d="M20.97 103.65C20.27 103.65 19.67 103.14 19.56 102.45L18.15 93.48C18.09 93.07 18.2 92.65 18.47 92.33C18.74 92.01 19.14 91.83 19.55 91.83H112.69C113.11 91.83 113.5 92.01 113.77 92.33C114.04 92.65 114.16 93.06 114.09 93.47L112.69 102.44C112.58 103.13 111.99 103.64 111.28 103.64H20.95L20.97 103.65Z" fill="#FF5A3A"/>
<path d="M112.7 93.26L111.3 102.23H20.9699L19.56 93.26H112.7ZM112.7 90.41H19.56C18.73 90.41 17.94 90.77 17.4 91.41C16.86 92.04 16.62 92.88 16.75 93.7L18.1599 102.67C18.3799 104.05 19.5699 105.07 20.9699 105.07H111.3C112.7 105.07 113.89 104.05 114.11 102.66L115.51 93.6899C115.64 92.8699 115.4 92.03 114.86 91.4C114.32 90.77 113.53 90.41 112.7 90.41Z" fill="#23261B"/>
<g style="mix-blend-mode:overlay" opacity="0.52">
<path d="M34.05 93.26C34.69 96.05 35.78 99.22 37.62 102.23H20.97L19.56 93.26H34.05Z" fill="black"/>
</g>
<g style="mix-blend-mode:overlay" opacity="0.52">
<path d="M112.7 93.26L111.3 102.23H86.58C87.79 99.68 88.65 96.71 89.08 93.26H112.7Z" fill="black"/>
</g>
<path d="M111.82 94.01L110.65 101.48H21.6L20.43 94.01H111.82ZM112.7 93.26H19.56L20.97 102.23H111.3L112.7 93.26Z" fill="#FF5A3A"/>
<path d="M18.63 85.14C17.93 85.14 17.33 84.6299 17.22 83.9399L8.75001 29.89C8.69001 29.48 8.80001 29.06 9.07001 28.74C9.34001 28.42 9.74003 28.24 10.15 28.24H19.28C20.03 28.24 20.64 28.8201 20.7 29.5601C21.49 40.2401 30.49 48.6 41.19 48.6C51.89 48.6 60.89 40.2401 61.68 29.5601C61.73 28.8201 62.35 28.24 63.1 28.24H69.15C69.9 28.24 70.51 28.8201 70.57 29.5601C71.35 40.2401 80.34 48.6 91.05 48.6C101.76 48.6 110.76 40.2401 111.54 29.5601C111.59 28.8201 112.21 28.24 112.96 28.24H122.1C122.52 28.24 122.91 28.42 123.18 28.74C123.45 29.06 123.57 29.47 123.5 29.89L115.03 83.9399C114.92 84.6299 114.32 85.14 113.62 85.14H18.61H18.63Z" fill="white"/>
<path d="M122.11 29.67L117.03 62.08L113.64 83.72H18.63L14.76 59.02L10.1599 29.67H19.29C20.13 41.05 29.6 50.03 41.2 50.03C52.8 50.03 62.27 41.05 63.11 29.67H69.16C69.99 41.05 79.47 50.03 91.06 50.03C102.65 50.03 112.14 41.05 112.97 29.67H122.11ZM122.11 26.8199H112.97C111.48 26.8199 110.24 27.97 110.13 29.46C109.41 39.4 101.03 47.1801 91.06 47.1801C81.09 47.1801 72.72 39.4 72 29.46C71.89 27.97 70.65 26.8199 69.16 26.8199H63.11C61.62 26.8199 60.38 27.97 60.27 29.46C59.54 39.4 51.16 47.1801 41.2 47.1801C31.24 47.1801 22.86 39.39 22.13 29.46C22.02 27.97 20.78 26.8199 19.29 26.8199H10.1599C9.32995 26.8199 8.53998 27.1799 7.99998 27.8199C7.45998 28.4499 7.21995 29.29 7.34995 30.11L11.95 59.46L15.82 84.16C16.04 85.54 17.23 86.5601 18.63 86.5601H113.64C115.04 86.5601 116.23 85.54 116.45 84.16L119.84 62.52L124.92 30.11C125.05 29.29 124.81 28.4499 124.27 27.8199C123.73 27.1899 122.94 26.8199 122.11 26.8199Z" fill="#23261B"/>
<g style="mix-blend-mode:multiply">
<path d="M117.03 62.08L113.64 83.72H18.63L14.76 59.02C24.49 66.38 41.97 74.6201 70.81 73.3101C88.44 72.5101 104.1 67.84 117.03 62.08Z" fill="#D4D4D4"/>
</g>
<path d="M29.94 73C26.31 73 23.36 70.05 23.36 66.42C23.36 62.79 26.31 59.84 29.94 59.84C33.57 59.84 36.53 62.79 36.53 66.42C36.53 70.05 33.58 73 29.94 73Z" fill="#FF5A3A"/>
<path d="M29.94 60.33C33.3 60.33 36.03 63.05 36.03 66.42C36.03 69.79 33.31 72.51 29.94 72.51C26.57 72.51 23.85 69.79 23.85 66.42C23.85 63.05 26.57 60.33 29.94 60.33ZM29.94 59.33C26.03 59.33 22.85 62.51 22.85 66.42C22.85 70.33 26.03 73.51 29.94 73.51C33.85 73.51 37.03 70.33 37.03 66.42C37.03 62.51 33.85 59.33 29.94 59.33Z" fill="#23261B"/>
<path d="M65.79 72.99C69.424 72.99 72.37 70.0441 72.37 66.41C72.37 62.776 69.424 59.83 65.79 59.83C62.1559 59.83 59.21 62.776 59.21 66.41C59.21 70.0441 62.1559 72.99 65.79 72.99Z" fill="#FF5A3A"/>
<path d="M65.79 60.33C69.15 60.33 71.88 63.05 71.88 66.42C71.88 69.79 69.16 72.51 65.79 72.51C62.42 72.51 59.7 69.79 59.7 66.42C59.7 63.05 62.42 60.33 65.79 60.33ZM65.79 59.33C61.88 59.33 58.7 62.51 58.7 66.42C58.7 70.33 61.88 73.51 65.79 73.51C69.7 73.51 72.88 70.33 72.88 66.42C72.88 62.51 69.7 59.33 65.79 59.33Z" fill="#23261B"/>
<path d="M101.94 72.99C105.574 72.99 108.52 70.0441 108.52 66.41C108.52 62.776 105.574 59.83 101.94 59.83C98.306 59.83 95.36 62.776 95.36 66.41C95.36 70.0441 98.306 72.99 101.94 72.99Z" fill="#FF5A3A"/>
<path d="M101.94 60.33C105.3 60.33 108.03 63.05 108.03 66.42C108.03 69.79 105.31 72.51 101.94 72.51C98.57 72.51 95.85 69.79 95.85 66.42C95.85 63.05 98.57 60.33 101.94 60.33ZM101.94 59.33C98.03 59.33 94.85 62.51 94.85 66.42C94.85 70.33 98.03 73.51 101.94 73.51C105.85 73.51 109.03 70.33 109.03 66.42C109.03 62.51 105.85 59.33 101.94 59.33Z" fill="#23261B"/>
<path d="M119.76 31.67L111.92 81.71H20.34L12.5 31.67H17.49C19.26 43.23 29.33 52.03 41.19 52.03C53.05 52.03 63.12 43.23 64.89 31.67H67.35C69.12 43.23 79.19 52.03 91.05 52.03C102.91 52.03 112.98 43.23 114.75 31.67H119.74M122.11 29.66H112.98C112.14 41.04 102.67 50.02 91.07 50.02C79.47 50.02 70 41.04 69.16 29.66H63.11C62.27 41.04 52.8 50.02 41.2 50.02C29.6 50.02 20.13 41.04 19.29 29.66H10.16L18.63 83.72H113.64L122.11 29.66Z" fill="white"/>
<path d="M13.63 37.1801C7.01 37.1801 1.62 31.8001 1.62 25.1801C1.62 22.6401 2.41001 20.21 3.89001 18.16C6.15001 15.04 9.79 13.1801 13.63 13.1801C14.98 13.1801 16.31 13.41 17.59 13.85C22.4 15.53 25.64 20.0801 25.64 25.1801C25.64 31.8001 20.26 37.1801 13.64 37.1801H13.63Z" fill="#FF5A3A"/>
<path d="M13.63 14.6C14.85 14.6 16.03 14.8099 17.12 15.1899C21.25 16.6299 24.21 20.5601 24.21 25.1801C24.21 31.0201 19.47 35.76 13.63 35.76C7.79 35.76 3.03998 31.0201 3.03998 25.1801C3.03998 22.8701 3.77998 20.73 5.03998 18.99C6.96998 16.33 10.1 14.6 13.63 14.6ZM13.63 11.75C9.34 11.75 5.26999 13.8301 2.73999 17.3101C1.07999 19.6101 0.200012 22.32 0.200012 25.17C0.200012 32.57 6.23 38.6 13.63 38.6C21.03 38.6 27.06 32.58 27.06 25.17C27.06 19.46 23.44 14.37 18.06 12.49C16.63 11.99 15.15 11.74 13.63 11.74V11.75Z" fill="#23261B"/>
<g style="mix-blend-mode:overlay">
<path d="M11.5857 20.0393C13.3564 19.2502 14.4454 17.8335 14.0183 16.875C13.5912 15.9166 11.8095 15.7792 10.0389 16.5683C8.26823 17.3574 7.1791 18.7741 7.60624 19.7326C8.03338 20.691 9.81506 20.8284 11.5857 20.0393Z" fill="white"/>
</g>
<g style="mix-blend-mode:overlay" opacity="0.52">
<path d="M24.21 25.1801C24.21 31.0201 19.47 35.76 13.63 35.76C7.79 35.76 3.03998 31.0201 3.03998 25.1801C3.03998 22.8701 3.77998 20.73 5.03998 18.99C1.62998 30.95 14.55 33.45 19.22 24.67C20.99 21.35 19.24 16.7299 17.12 15.1899C21.25 16.6299 24.21 20.5601 24.21 25.1801Z" fill="black"/>
</g>
<path d="M118.64 37.1801C112.02 37.1801 106.64 31.8001 106.64 25.1801C106.64 20.0801 109.87 15.52 114.68 13.85C115.95 13.41 117.29 13.1801 118.64 13.1801C122.48 13.1801 126.12 15.04 128.38 18.16C129.87 20.21 130.65 22.6399 130.65 25.1899C130.65 31.8099 125.26 37.1899 118.64 37.1899V37.1801Z" fill="#FF5A3A"/>
<path d="M118.64 14.6C122.17 14.6 125.3 16.33 127.23 18.99C128.49 20.73 129.23 22.8701 129.23 25.1801C129.23 31.0201 124.49 35.76 118.64 35.76C112.79 35.76 108.06 31.0201 108.06 25.1801C108.06 20.5601 111.02 16.6299 115.15 15.1899C116.24 14.8099 117.42 14.6 118.64 14.6ZM118.64 11.75C117.13 11.75 115.64 12 114.21 12.5C108.83 14.38 105.21 19.4701 105.21 25.1801C105.21 32.5801 111.23 38.61 118.63 38.61C126.03 38.61 132.06 32.5901 132.06 25.1801C132.06 22.3301 131.18 19.6199 129.52 17.3199C126.99 13.8299 122.92 11.75 118.63 11.75H118.64Z" fill="#23261B"/>
<g style="mix-blend-mode:overlay">
<path d="M124.615 19.6538C125.043 18.6954 123.953 17.2787 122.183 16.4896C120.412 15.7005 118.63 15.8378 118.203 16.7963C117.776 17.7548 118.865 19.1714 120.636 19.9605C122.407 20.7496 124.188 20.6123 124.615 19.6538Z" fill="white"/>
</g>
<g style="mix-blend-mode:overlay" opacity="0.52">
<path d="M108.06 25.1801C108.06 31.0201 112.8 35.76 118.64 35.76C124.49 35.76 129.23 31.0201 129.23 25.1801C129.23 22.8701 128.49 20.73 127.23 18.99C130.64 30.95 117.72 33.45 113.05 24.67C111.28 21.35 113.03 16.7299 115.15 15.1899C111.02 16.6299 108.06 20.5601 108.06 25.1801Z" fill="black"/>
</g>
<path d="M65.8 30.8199C59.38 30.8199 53.72 26.48 52.05 20.28C50.48 14.43 52.78 8.22006 57.77 4.81006C59.09 3.91006 60.55 3.23995 62.1 2.81995C63.31 2.48995 64.56 2.32996 65.81 2.32996C69.06 2.32996 72.25 3.46002 74.8 5.52002C77.13 7.41002 78.78 9.95 79.57 12.87C81.61 20.46 77.1 28.29 69.5 30.33C68.29 30.66 67.04 30.8199 65.79 30.8199H65.8Z" fill="#FF5A3A"/>
<path d="M65.81 3.75C68.79 3.75 71.64 4.8 73.9 6.63C75.92 8.27 77.46 10.54 78.19 13.24C80.03 20.07 75.98 27.11 69.13 28.96C68.02 29.26 66.9 29.4 65.79 29.4C60.13 29.4 54.95 25.63 53.41 19.91C51.95 14.5 54.18 8.96999 58.56 5.98999C59.72 5.19999 61.03 4.57995 62.46 4.19995C63.58 3.89995 64.7 3.76001 65.8 3.76001M65.81 0.900024C64.44 0.900024 63.06 1.07994 61.73 1.43994C60.03 1.89994 58.42 2.63 56.97 3.63C51.47 7.38 48.94 14.21 50.67 20.64C52.51 27.47 58.73 32.24 65.79 32.24C67.16 32.24 68.53 32.06 69.87 31.7C78.22 29.45 83.18 20.84 80.94 12.5C80.08 9.29 78.26 6.50004 75.69 4.42004C72.89 2.16004 69.38 0.910034 65.8 0.910034L65.81 0.900024Z" fill="#23261B"/>
<g style="mix-blend-mode:overlay">
<path d="M71.1036 8.31009C71.3014 7.05533 69.5823 5.74182 67.2637 5.37625C64.9451 5.01068 62.9052 5.7315 62.7073 6.98626C62.5095 8.24101 64.2287 9.55453 66.5473 9.92009C68.8658 10.2857 70.9058 9.56484 71.1036 8.31009Z" fill="white"/>
</g>
<g style="mix-blend-mode:overlay" opacity="0.52">
<path d="M53.42 19.9C55.26 26.73 62.3 30.79 69.13 28.95C75.98 27.11 80.03 20.07 78.19 13.23C77.46 10.53 75.92 8.25999 73.9 6.62C81.66 19.54 67.33 26.54 59.1 17.73C55.99 14.4 56.58 8.44998 58.57 5.97998C54.19 8.96998 51.96 14.5 53.42 19.9Z" fill="black"/>
</g>
</svg>
