<svg width="107" height="72" viewBox="0 0 107 72" fill="none" xmlns="http://www.w3.org/2000/svg">
<path d="M90.43 71.91C88.57 71.91 86.81 71.2 85.46 69.91L78.08 62.84L70.57 69.95C69.23 71.21 67.48 71.91 65.64 71.91C63.8 71.91 62.02 71.2 60.67 69.91L53.29 62.84L45.78 69.95C44.44 71.21 42.69 71.91 40.85 71.91C39.01 71.91 37.23 71.2 35.88 69.91L28.5 62.84L20.99 69.95C19.65 71.21 17.9 71.91 16.06 71.91C14.22 71.91 12.44 71.2 11.09 69.91L4.51001 63.61C1.65001 60.87 0 57.02 0 53.06V3.67999C0 1.64999 1.64999 0 3.67999 0H102.94C104.97 0 106.62 1.64999 106.62 3.67999V53.02C106.62 57.02 104.95 60.89 102.05 63.64L95.38 69.95C94.04 71.21 92.29 71.91 90.45 71.91H90.43Z" fill="#23261B"/>
<path d="M3.67999 3.67993V53.0599C3.67999 56.0399 4.89999 58.9 7.04999 60.96L13.63 67.2599C14.98 68.5499 17.1 68.56 18.46 67.28L25.98 60.1699C27.4 58.8299 29.63 58.8299 31.04 60.1899L38.42 67.2599C39.77 68.5499 41.89 68.56 43.25 67.28L50.77 60.1699C52.19 58.8299 54.42 58.8299 55.83 60.1899L63.21 67.2599C64.56 68.5499 66.68 68.56 68.04 67.28L75.56 60.1699C76.98 58.8299 79.21 58.8299 80.62 60.1899L88 67.2599C89.35 68.5499 91.47 68.56 92.83 67.28L99.5 60.9699C101.69 58.8999 102.92 56.03 102.92 53.02V3.67993H3.66H3.67999Z" fill="#FF744D"/>
<path d="M90.43 66.27C90.03 66.27 89.65 66.12 89.36 65.84L81.98 58.77C80.93 57.76 79.54 57.2 78.08 57.2C76.62 57.2 75.26 57.75 74.21 58.74L66.69 65.84C66.4 66.11 66.03 66.26 65.63 66.26C65.23 66.26 64.85 66.11 64.56 65.83L57.18 58.76C56.13 57.75 54.74 57.19 53.28 57.19C51.82 57.19 50.46 57.74 49.41 58.73L41.89 65.83C41.6 66.1 41.23 66.25 40.83 66.25C40.43 66.25 40.05 66.1 39.76 65.82L32.37 58.75C31.32 57.74 29.93 57.18 28.47 57.18C27.01 57.18 25.65 57.73 24.6 58.72L17.08 65.82C16.79 66.09 16.42 66.24 16.02 66.24C15.62 66.24 15.24 66.09 14.95 65.81L8.37 59.51C6.61 57.83 5.60001 55.46 5.60001 53.03V5.60999H100.93V52.99C100.93 55.45 99.91 57.82 98.12 59.51L91.45 65.82C91.16 66.09 90.79 66.24 90.39 66.24L90.43 66.27Z" fill="#FF5A3A"/>
</svg>
