<svg width="133" height="94" viewBox="0 0 133 94" fill="none" xmlns="http://www.w3.org/2000/svg">
<path d="M22.12 81.34C19.87 81.34 17.67 80.94 15.58 80.15C7.22999 77.02 1.62 68.32 1.62 58.49C1.62 57.22 1.70999 55.95 1.89999 54.74C3.38999 44.7 10.77 36.91 19.85 35.79C20.61 35.69 21.38 35.65 22.13 35.65C30.85 35.65 38.63 41.81 41.49 50.97C42.25 53.37 42.63 55.9 42.63 58.5C42.63 71.1 33.43 81.35 22.13 81.35L22.12 81.34Z" fill="white"/>
<path d="M22.12 37.07C30.44 37.07 37.52 43.06 40.12 51.39C40.82 53.61 41.2 56 41.2 58.49C41.2 70.32 32.66 79.92 22.12 79.92C20.01 79.92 17.98 79.54 16.08 78.82C8.49999 75.98 3.03999 67.95 3.03999 58.49C3.03999 57.28 3.13 56.1 3.3 54.95C4.69 45.56 11.52 38.25 20.02 37.2C20.71 37.11 21.41 37.07 22.12 37.07ZM22.12 34.22C21.31 34.22 20.48 34.27 19.66 34.38C9.96 35.57 2.07 43.86 0.479996 54.53C0.289996 55.81 0.190002 57.14 0.190002 58.49C0.190002 68.91 6.16999 78.15 15.08 81.48C17.32 82.33 19.69 82.76 22.12 82.76C34.21 82.76 44.05 71.87 44.05 58.49C44.05 55.75 43.64 53.07 42.84 50.53C39.79 40.78 31.47 34.22 22.12 34.22Z" fill="#23261B"/>
<g style="mix-blend-mode:multiply">
<path d="M40.12 51.39C36.54 53.66 32.4 55.53 27.63 56.8C16.15 59.85 9.07001 58.61 4.68001 55.91C4.51001 59.33 4.83002 64.51 7.41002 69.22C11.74 77.14 21.71 79.42 21.71 79.42L21.53 79.89C21.73 79.89 21.92 79.92 22.12 79.92C32.66 79.92 41.2 70.33 41.2 58.49C41.2 56 40.83 53.61 40.12 51.39Z" fill="#D4D4D4"/>
</g>
<path d="M41.2 58.49C41.2 70.32 32.66 79.92 22.12 79.92C20.01 79.92 17.98 79.54 16.08 78.82C13.57 73.88 12.69 66.69 13.4 58.5C13.43 58.1 13.47 57.7 13.51 57.29C14.52 47.5 17.41 41.12 20.02 37.2C20.71 37.11 21.41 37.07 22.12 37.07C30.44 37.07 37.52 43.06 40.12 51.39C40.21 51.66 40.29 51.95 40.37 52.23C40.48 52.65 40.59 53.07 40.67 53.5C40.72 53.69 40.76 53.89 40.79 54.09C40.81 54.16 40.82 54.24 40.83 54.32C40.89 54.61 40.94 54.91 40.98 55.21V55.25C41.03 55.6 41.07 55.95 41.1 56.3C41.13 56.61 41.15 56.93 41.17 57.25C41.19 57.66 41.2 58.07 41.2 58.49Z" fill="#FF5A3A"/>
<g style="mix-blend-mode:overlay" opacity="0.62">
<path d="M41.2 58.49C41.2 70.32 32.66 79.92 22.12 79.92C20.01 79.92 17.98 79.54 16.08 78.82C13.57 73.88 12.69 66.69 13.4 58.5C17.18 58.79 21.85 58.34 27.64 56.8C32.41 55.53 36.54 53.66 40.13 51.39C40.22 51.66 40.3 51.95 40.38 52.23C40.49 52.65 40.6 53.07 40.68 53.5C40.73 53.69 40.77 53.89 40.8 54.09C40.82 54.16 40.83 54.24 40.84 54.32C40.9 54.61 40.95 54.91 40.99 55.21V55.25C41.04 55.6 41.08 55.95 41.11 56.3C41.14 56.61 41.16 56.93 41.18 57.25C41.2 57.66 41.21 58.07 41.21 58.49H41.2Z" fill="black"/>
</g>
<path d="M22.18 31.84C18.28 31.84 14.51 25.04 12.65 18.72C11.13 13.55 10.74 8.61001 11.62 5.51001C12.26 3.21001 13.49 2.41001 14.4 2.14001C14.69 2.05001 15 2.01001 15.32 2.01001C16.57 2.01001 17.86 2.68998 19.16 4.03998C21.35 6.31998 23.48 10.47 24.85 15.13C26.65 21.24 26.83 27 25.3 29.8C24.62 31.04 23.73 31.52 23.1 31.71C22.81 31.8 22.5 31.84 22.19 31.84H22.18Z" fill="#FF5A3A"/>
<path d="M15.32 3.44C16.18 3.44 17.15 4.01003 18.13 5.03003C20.09 7.07003 22.12 10.91 23.48 15.54C25.66 22.95 25.31 29.59 22.69 30.35C22.52 30.4 22.35 30.42 22.17 30.42C19.58 30.42 16.05 25.26 14.01 18.32C12.53 13.29 12.22 8.62002 12.99 5.90002C13.35 4.61002 13.96 3.76001 14.8 3.51001C14.97 3.46001 15.14 3.44 15.31 3.44M15.32 0.590027C14.87 0.590027 14.43 0.650029 14 0.780029C12.74 1.15003 11.07 2.2 10.25 5.13C9.30001 8.47001 9.69001 13.7 11.28 19.12C13.19 25.64 17.2 33.26 22.17 33.26C22.62 33.26 23.06 33.2 23.49 33.07C24.37 32.81 25.62 32.15 26.54 30.48C28.61 26.7 27.72 19.86 26.21 14.72C24.76 9.77997 22.56 5.51999 20.18 3.04999C18.6 1.40999 16.97 0.580017 15.32 0.580017V0.590027Z" fill="#23261B"/>
<g style="mix-blend-mode:overlay">
<path d="M16.8106 10.0452C17.6359 9.81774 17.9539 8.36004 17.521 6.78937C17.0881 5.21871 16.0681 4.12982 15.2428 4.3573C14.4176 4.58477 14.0995 6.04245 14.5325 7.61312C14.9654 9.18379 15.9853 10.2727 16.8106 10.0452Z" fill="white"/>
</g>
<g style="mix-blend-mode:overlay" opacity="0.62">
<path d="M22.69 30.34C20.08 31.11 16.19 25.73 14.01 18.32C12.53 13.29 12.22 8.62002 12.99 5.90002C13.47 13.91 17.26 22.93 20.91 21.07C24.15 19.42 21.34 10.62 18.13 5.03003C20.09 7.07003 22.12 10.91 23.48 15.54C25.66 22.95 25.31 29.59 22.69 30.35V30.34Z" fill="black"/>
</g>
<path style="mix-blend-mode:overlay" d="M4.78998 56.17C4.78998 56.17 6.55999 39.7 20.97 38.05C35.39 36.4 41.26 55.2 39.66 61.87" fill="url(#paint0_linear_1_230)"/>
<path d="M110.61 81.34C99.3 81.34 90.11 71.09 90.11 58.49C90.11 55.89 90.49 53.36 91.25 50.96C94.11 41.8 101.89 35.64 110.61 35.64C111.36 35.64 112.13 35.69 112.89 35.79C121.97 36.91 129.35 44.7 130.84 54.74C131.02 55.95 131.12 57.21 131.12 58.49C131.12 68.32 125.51 77.02 117.15 80.15C115.07 80.94 112.86 81.34 110.61 81.34Z" fill="white"/>
<path d="M110.61 37.07C111.32 37.07 112.02 37.12 112.71 37.2C121.21 38.24 128.04 45.56 129.43 54.95C129.6 56.1 129.69 57.29 129.69 58.49C129.69 67.95 124.23 75.98 116.65 78.82C114.76 79.54 112.72 79.92 110.61 79.92C100.07 79.92 91.53 70.33 91.53 58.49C91.53 56 91.9 53.61 92.61 51.39C95.21 43.05 102.29 37.07 110.61 37.07ZM110.61 34.22C101.27 34.22 92.94 40.78 89.89 50.54C89.09 53.07 88.68 55.75 88.68 58.49C88.68 71.87 98.52 82.76 110.61 82.76C113.03 82.76 115.41 82.33 117.66 81.48C126.56 78.15 132.54 68.91 132.54 58.49C132.54 57.14 132.44 55.81 132.25 54.52C130.67 43.85 122.78 35.57 113.07 34.37C112.26 34.27 111.43 34.21 110.62 34.21L110.61 34.22Z" fill="#23261B"/>
<g style="mix-blend-mode:multiply">
<path d="M92.61 51.39C96.19 53.66 100.33 55.53 105.1 56.8C116.58 59.85 123.66 58.61 128.05 55.91C128.22 59.33 127.9 64.51 125.32 69.22C120.99 77.14 111.02 79.42 111.02 79.42L111.2 79.89C111 79.89 110.81 79.92 110.61 79.92C100.07 79.92 91.53 70.33 91.53 58.49C91.53 56 91.9 53.61 92.61 51.39Z" fill="#D4D4D4"/>
</g>
<path d="M91.53 58.49C91.53 70.32 100.07 79.92 110.61 79.92C112.72 79.92 114.75 79.54 116.65 78.82C119.16 73.88 120.04 66.69 119.33 58.5C119.3 58.1 119.26 57.7 119.22 57.29C118.21 47.5 115.32 41.12 112.71 37.2C112.02 37.11 111.32 37.07 110.61 37.07C102.29 37.07 95.21 43.06 92.61 51.39C92.52 51.66 92.44 51.95 92.36 52.23C92.25 52.65 92.14 53.07 92.06 53.5C92.01 53.69 91.97 53.89 91.94 54.09C91.92 54.16 91.91 54.24 91.9 54.32C91.84 54.61 91.79 54.91 91.75 55.21V55.25C91.7 55.6 91.66 55.95 91.63 56.3C91.6 56.61 91.58 56.93 91.56 57.25C91.54 57.66 91.53 58.07 91.53 58.49Z" fill="#FF5A3A"/>
<g style="mix-blend-mode:overlay" opacity="0.62">
<path d="M91.53 58.49C91.53 70.32 100.07 79.92 110.61 79.92C112.72 79.92 114.75 79.54 116.65 78.82C119.16 73.88 120.04 66.69 119.33 58.5C115.55 58.79 110.88 58.34 105.09 56.8C100.32 55.53 96.19 53.66 92.6 51.39C92.51 51.66 92.43 51.95 92.35 52.23C92.24 52.65 92.13 53.07 92.05 53.5C92 53.69 91.96 53.89 91.93 54.09C91.91 54.16 91.9 54.24 91.89 54.32C91.83 54.61 91.78 54.91 91.74 55.21V55.25C91.69 55.6 91.65 55.95 91.62 56.3C91.59 56.61 91.57 56.93 91.55 57.25C91.53 57.66 91.52 58.07 91.52 58.49H91.53Z" fill="black"/>
</g>
<path d="M110.55 31.84C110.24 31.84 109.93 31.8 109.63 31.71C109 31.53 108.11 31.05 107.43 29.81C105.9 27.01 106.08 21.25 107.88 15.14C109.25 10.48 111.38 6.32999 113.57 4.04999C114.87 2.69999 116.16 2.02002 117.41 2.02002C117.72 2.02002 118.03 2.06002 118.32 2.15002C119.23 2.42002 120.46 3.22002 121.1 5.52002C121.98 8.62002 121.59 13.55 120.07 18.73C118.22 25.05 114.44 31.85 110.54 31.85L110.55 31.84Z" fill="#FF5A3A"/>
<path d="M117.41 3.44C117.59 3.44 117.76 3.46001 117.92 3.51001C118.76 3.76001 119.37 4.61002 119.73 5.90002C120.5 8.62002 120.19 13.29 118.71 18.32C116.67 25.26 113.13 30.42 110.55 30.42C110.37 30.42 110.2 30.4 110.03 30.35C107.41 29.59 107.06 22.95 109.24 15.54C110.6 10.91 112.63 7.08003 114.59 5.03003C115.57 4.01003 116.54 3.44 117.4 3.44M117.41 0.590027C115.76 0.590027 114.12 1.42 112.55 3.06C110.17 5.54 107.97 9.78999 106.52 14.74C105.01 19.88 104.12 26.72 106.19 30.5C107.1 32.17 108.35 32.83 109.24 33.09C109.66 33.21 110.1 33.28 110.55 33.28C115.52 33.28 119.53 25.66 121.44 19.14C123.03 13.72 123.42 8.49001 122.47 5.14001C121.65 2.22001 119.98 1.16999 118.72 0.799988C118.3 0.679988 117.85 0.609985 117.4 0.609985L117.41 0.590027Z" fill="#23261B"/>
<g style="mix-blend-mode:overlay">
<path d="M118.269 7.72774C118.702 6.15707 118.384 4.69938 117.558 4.47191C116.733 4.24444 115.713 5.33333 115.28 6.904C114.847 8.47467 115.165 9.93232 115.991 10.1598C116.816 10.3873 117.836 9.2984 118.269 7.72774Z" fill="white"/>
</g>
<g style="mix-blend-mode:overlay" opacity="0.62">
<path d="M110.03 30.34C112.64 31.11 116.53 25.73 118.71 18.32C120.19 13.29 120.5 8.62002 119.73 5.90002C119.25 13.91 115.46 22.93 111.81 21.07C108.57 19.42 111.38 10.62 114.59 5.03003C112.63 7.07003 110.6 10.91 109.24 15.54C107.06 22.95 107.41 29.59 110.03 30.35V30.34Z" fill="black"/>
</g>
<path style="mix-blend-mode:overlay" d="M127.94 56.17C127.94 56.17 126.17 39.7 111.76 38.05C97.34 36.4 91.47 55.2 93.07 61.87" fill="url(#paint1_linear_1_230)"/>
<path d="M42.67 91.6C35.5 91.6 28.85 88.72 23.93 83.5C19.02 78.27 16.55 71.45 16.99 64.29L17.3 59.21C17.48 56.25 17.93 53.31 18.63 50.47C24.04 28.47 43.66 13.1 66.35 13.1C78.91 13.1 90.87 17.84 100.01 26.44C106.42 32.46 111.1 40.09 113.53 48.49C114.54 51.94 115.17 55.55 115.4 59.22L115.72 64.3C116.16 71.46 113.7 78.29 108.79 83.51C103.88 88.74 97.22 91.61 90.05 91.61H42.66L42.67 91.6Z" fill="white"/>
<path d="M66.36 14.52C78.97 14.52 90.49 19.42 99.05 27.47C105.16 33.21 109.77 40.56 112.18 48.88C113.16 52.21 113.77 55.7 113.99 59.3L114.31 64.38C115.17 78.37 104.07 90.18 90.05 90.18H42.66C28.65 90.18 17.55 78.36 18.41 64.38L18.72 59.3C18.9 56.39 19.34 53.56 20.01 50.82C25.16 29.87 44.05 14.53 66.35 14.53M66.36 11.68C43.01 11.68 22.82 27.49 17.26 50.14C16.54 53.05 16.08 56.08 15.89 59.13L15.58 64.21C15.11 71.77 17.71 78.97 22.9 84.48C28.08 89.99 35.11 93.03 42.67 93.03H90.06C97.63 93.03 104.65 89.99 109.84 84.48C115.03 78.96 117.62 71.76 117.16 64.21L116.84 59.12C116.61 55.36 115.96 51.64 114.92 48.08C112.42 39.45 107.61 31.6 101.01 25.4C91.6 16.55 79.3 11.68 66.37 11.68H66.36Z" fill="#23261B"/>
<path d="M90.06 90.18H42.67C28.66 90.18 17.56 78.36 18.42 64.38L18.73 59.3C18.91 56.39 19.35 53.56 20.02 50.82C38.3 54.44 71.31 57.92 112.18 48.89C113.16 52.22 113.77 55.71 113.99 59.31L114.31 64.39C115.17 78.38 104.07 90.19 90.05 90.19L90.06 90.18Z" fill="#D4D4D4"/>
<path d="M66.36 16.53C78.05 16.53 89.17 20.93 97.67 28.93C103.63 34.54 107.98 41.62 110.25 49.44C111.19 52.65 111.78 56.01 111.99 59.42L112.31 64.5C112.69 70.71 110.56 76.62 106.3 81.15C102.04 85.68 96.27 88.17 90.06 88.17H42.67C36.46 88.17 30.69 85.68 26.43 81.15C22.17 76.62 20.04 70.71 20.42 64.5L20.73 59.42C20.9 56.66 21.32 53.93 21.97 51.29C27 30.82 45.25 16.53 66.36 16.53ZM66.36 14.52C44.06 14.52 25.17 29.86 20.02 50.81C19.34 53.55 18.91 56.38 18.73 59.29L18.42 64.37C17.56 78.36 28.66 90.17 42.67 90.17H90.06C104.07 90.17 115.18 78.35 114.32 64.37L114 59.29C113.78 55.69 113.16 52.2 112.19 48.87C109.78 40.55 105.17 33.21 99.06 27.46C90.5 19.41 78.98 14.51 66.37 14.51L66.36 14.52Z" fill="white"/>
<path d="M74.32 27.12C74.62 27.32 74.92 27.53 75.2 27.75C75.63 28.08 76.24 28.04 76.63 27.66L76.65 27.64C77.12 27.18 77.08 26.4 76.55 26C73.6 23.73 70.24 22.58 66.7 22.53C65.48 22.53 64.58 22.6 63.69 22.75C61.66 23.08 59.75 23.76 57.97 24.79C57.34 25.15 56.74 25.56 56.17 26C55.65 26.4 55.61 27.17 56.08 27.63L56.1 27.65C56.48 28.03 57.09 28.08 57.52 27.75C57.59 27.7 57.66 27.65 57.73 27.6C60.96 25.25 64.56 24.36 68.51 24.91C70.61 25.2 72.55 25.96 74.33 27.13L74.32 27.12Z" fill="#FF5A3A"/>
<path d="M73.45 30.8L73.47 30.78C73.96 30.3 73.89 29.49 73.32 29.1C71.26 27.68 68.94 26.97 66.36 26.95C65.57 26.95 64.79 27.03 64.02 27.18C62.32 27.51 60.79 28.16 59.42 29.1C58.86 29.49 58.79 30.29 59.28 30.77L59.3 30.79C59.68 31.16 60.26 31.21 60.7 30.9C62.19 29.87 63.88 29.29 65.77 29.17C67.4 29.07 68.97 29.35 70.47 30.01C71.03 30.26 71.56 30.56 72.06 30.9C72.5 31.2 73.08 31.16 73.46 30.78L73.45 30.8Z" fill="#FF5A3A"/>
<path d="M70.2 34.01L70.22 33.99C70.74 33.47 70.62 32.59 69.97 32.25C68.66 31.56 67.21 31.28 65.62 31.42C64.59 31.51 63.65 31.79 62.78 32.23C62.12 32.57 61.98 33.46 62.51 33.98L62.53 34C62.86 34.33 63.38 34.42 63.79 34.2C65.05 33.54 66.43 33.41 67.93 33.81C68.28 33.9 68.62 34.04 68.94 34.2C69.36 34.42 69.87 34.33 70.2 34V34.01Z" fill="#FF5A3A"/>
<path d="M66.44 34.75C65.37 34.69 64.49 35.51 64.41 36.54C64.33 37.68 65.14 38.58 66.29 38.65C67.36 38.68 68.24 37.88 68.31 36.83C68.39 35.72 67.57 34.8 66.44 34.74V34.75Z" fill="#FF5A3A"/>
<path d="M47.4 42.64H85.33C96.11 42.64 104.87 51.39 104.87 62.18V69.37C104.87 77.16 98.54 83.49 90.75 83.49H41.99C34.2 83.49 27.87 77.16 27.87 69.37V62.18C27.87 51.4 36.62 42.64 47.41 42.64H47.4Z" fill="#23261B"/>
<path d="M48.04 68.17C50.5971 68.17 52.67 64.7853 52.67 60.61C52.67 56.4347 50.5971 53.05 48.04 53.05C45.4829 53.05 43.41 56.4347 43.41 60.61C43.41 64.7853 45.4829 68.17 48.04 68.17Z" fill="#FF5A3A"/>
<path d="M84.69 68.17C87.2471 68.17 89.32 64.7853 89.32 60.61C89.32 56.4347 87.2471 53.05 84.69 53.05C82.1329 53.05 80.06 56.4347 80.06 60.61C80.06 64.7853 82.1329 68.17 84.69 68.17Z" fill="#FF5A3A"/>
<path d="M73 68.62C72.08 71.88 69.46 74.23 66.36 74.23C63.26 74.23 60.65 71.89 59.72 68.64" stroke="#FF5A3A" stroke-width="1.91" stroke-linecap="round" stroke-linejoin="round"/>
<defs>
<linearGradient id="paint0_linear_1_230" x1="23.58" y1="37.21" x2="22.56" y2="54.54" gradientUnits="userSpaceOnUse">
<stop stop-color="white"/>
<stop offset="0.93" stop-color="white" stop-opacity="0"/>
</linearGradient>
<linearGradient id="paint1_linear_1_230" x1="109.14" y1="37.21" x2="110.17" y2="54.54" gradientUnits="userSpaceOnUse">
<stop stop-color="white"/>
<stop offset="0.93" stop-color="white" stop-opacity="0"/>
</linearGradient>
</defs>
</svg>
