<svg width="104" height="106" viewBox="0 0 104 106" fill="none" xmlns="http://www.w3.org/2000/svg">
<path d="M20.06 103.88C19.82 103.88 19.59 103.88 19.35 103.86C15.58 103.7 11.98 102.19 9.21996 99.6C3.85996 94.56 2.69 86.32 6.44 80.02C7.03 79.02 7.73001 78.09 8.52001 77.26C11.53 74.06 15.61 72.29 20.02 72.29C21.26 72.29 22.5 72.44 23.71 72.72L60.81 33.2C56.64 25.03 57.85 15.38 63.95 8.88C64.54 8.25 65.11 7.70997 65.7 7.21997C69.41 4.09997 74.2 2.38 79.18 2.38C81.16 2.38 83.14 2.65004 85.06 3.17004C85.52 3.29004 85.88 3.63997 86.03 4.08997C86.18 4.53997 86.1 5.03003 85.81 5.41003L73.23 21.9L82.72 30.8L98.38 17.21C98.64 16.98 98.97 16.86 99.31 16.86C99.43 16.86 99.56 16.88 99.68 16.91C100.14 17.03 100.5 17.3699 100.66 17.8199C102.72 23.8199 102.13 30.3 99.03 35.59C98.28 36.88 97.36 38.11 96.3 39.25C92.36 43.44 86.95 45.75 81.07 45.75C78.06 45.75 75.03 45.12 72.23 43.92L35.13 83.4301C36.81 88.8701 35.48 94.72 31.56 98.89C28.59 102.06 24.4 103.87 20.06 103.87V103.88ZM20.05 83.49C18.77 83.49 17.58 83.9999 16.71 84.9399C14.99 86.7799 15.08 89.68 16.92 91.41C17.77 92.21 18.88 92.65 20.04 92.65C21.32 92.65 22.51 92.14 23.39 91.2C24.23 90.31 24.67 89.15 24.63 87.92C24.59 86.7 24.08 85.57 23.19 84.73C22.34 83.93 21.23 83.49 20.06 83.49H20.05Z" fill="white"/>
<path d="M79.18 3.79004C81.02 3.79004 82.88 4.04003 84.69 4.53003L71.33 22.04L82.69 32.7L99.32 18.27C101.21 23.78 100.74 29.85 97.81 34.86C97.11 36.07 96.26 37.21 95.27 38.27C91.48 42.3 86.33 44.3199 81.08 44.3199C77.97 44.3199 74.82 43.6099 71.9 42.1899L40.94 75.17L37.95 78.35L33.52 83.0699C35.35 88.0199 34.39 93.8 30.53 97.91C27.71 100.92 23.89 102.44 20.06 102.44C19.85 102.44 19.63 102.44 19.42 102.43C16.1 102.29 12.81 101 10.2 98.55C5.19 93.84 4.29997 86.4 7.66997 80.73C8.18997 79.85 8.81999 79 9.55999 78.22C12.39 75.21 16.2 73.6899 20.03 73.6899C21.43 73.6899 22.82 73.89 24.17 74.3L27.92 70.3L35.42 62.3101L62.55 33.41C58.24 25.83 58.95 16.27 64.99 9.83997C65.51 9.28997 66.05 8.77004 66.62 8.29004C70.19 5.29004 74.65 3.78003 79.18 3.78003M20.04 94.0699C21.64 94.0699 23.24 93.4301 24.42 92.1801C26.69 89.7601 26.57 85.9699 24.15 83.7C22.99 82.61 21.52 82.0699 20.05 82.0699C18.45 82.0699 16.85 82.71 15.67 83.97C13.41 86.38 13.53 90.18 15.94 92.45C17.1 93.5399 18.57 94.0699 20.04 94.0699ZM79.18 0.949951C73.87 0.949951 68.75 2.79 64.79 6.12C64.16 6.64999 63.55 7.23001 62.92 7.89001C56.62 14.59 55.2 24.4201 59.1 32.9301L33.34 60.37L25.84 68.36L23.22 71.15C22.17 70.95 21.1 70.85 20.02 70.85C15.29 70.85 10.71 72.83 7.47997 76.27C6.62997 77.17 5.86001 78.19 5.21001 79.28C1.13001 86.15 2.39998 95.13 8.23998 100.62C11.25 103.45 15.17 105.1 19.29 105.27C19.54 105.28 19.8 105.29 20.05 105.29C24.79 105.29 29.36 103.31 32.59 99.86C36.67 95.52 38.18 89.5101 36.71 83.8101L40.01 80.3L43 77.12L72.59 45.59C75.3 46.62 78.19 47.16 81.06 47.16C87.34 47.16 93.12 44.69 97.33 40.21C98.47 38.99 99.45 37.67 100.26 36.28C103.56 30.64 104.19 23.74 102 17.34C101.69 16.45 100.96 15.76 100.05 15.52C99.81 15.45 99.56 15.42 99.31 15.42C98.63 15.42 97.97 15.66 97.45 16.12L82.76 28.87L75.15 21.72L86.95 6.25C87.52 5.5 87.69 4.50999 87.38 3.60999C87.08 2.70999 86.35 2.03003 85.44 1.78003C83.39 1.22003 81.29 0.930054 79.18 0.930054V0.949951ZM20.04 91.23C19.24 91.23 18.47 90.93 17.89 90.38C16.63 89.19 16.56 87.19 17.75 85.92C18.35 85.28 19.17 84.92 20.05 84.92C20.85 84.92 21.62 85.22 22.2 85.77C22.82 86.35 23.17 87.13 23.2 87.97C23.23 88.81 22.92 89.61 22.34 90.23C21.74 90.87 20.92 91.22 20.03 91.22L20.04 91.23Z" fill="#23261B"/>
<path d="M33.52 83.08C35.35 88.03 34.39 93.81 30.53 97.92C27.55 101.1 23.46 102.62 19.42 102.44C21.43 102.04 23.4 101.35 25.07 100.22C31.45 95.88 33.05 81.4599 19.71 77.8199C14.48 76.3899 10.53 78.12 7.66998 80.74C8.18998 79.86 8.82 79.01 9.56 78.23C13.42 74.12 19.12 72.8001 24.17 74.3101L27.92 70.3101C31.27 72.9501 34.68 75.68 37.95 78.36L33.52 83.08Z" fill="#D4D4D4"/>
<path d="M97.81 34.87C97.11 36.08 96.26 37.22 95.27 38.28C89.24 44.7 79.74 46.02 71.9 42.2L40.94 75.1801C38.98 71.4401 37.11 67.0399 35.42 62.3199L62.55 33.42C58.24 25.84 58.95 16.28 64.99 9.84998C65.51 9.29998 66.05 8.78005 66.62 8.30005C63.3 13.72 60.59 22.11 66.81 31.12C75.29 43.39 89.23 41.4 97.81 34.87Z" fill="#D4D4D4"/>
<path d="M79.18 5.80005C79.83 5.80005 80.47 5.83002 81.12 5.90002L69.73 20.83C69.11 21.65 69.2 22.81 69.95 23.51L81.31 34.17C81.7 34.53 82.19 34.71 82.68 34.71C83.15 34.71 83.62 34.55 84 34.22L98.18 21.92C98.88 26.07 98.16 30.29 96.07 33.86C95.45 34.93 94.69 35.96 93.8 36.9C90.52 40.39 86 42.3199 81.07 42.3199C78.23 42.3199 75.36 41.65 72.77 40.39C72.49 40.25 72.19 40.1899 71.89 40.1899C71.35 40.1899 70.81 40.4099 70.42 40.8199L39.46 73.8L36.47 76.98L32.04 81.7C31.52 82.2599 31.36 83.06 31.62 83.77C33.26 88.21 32.28 93.1 29.05 96.54C26.69 99.05 23.5 100.44 20.05 100.44C19.87 100.44 19.68 100.44 19.49 100.43C16.54 100.31 13.72 99.12 11.56 97.09C7.36001 93.14 6.45002 86.7 9.38002 81.76C9.84002 80.98 10.39 80.26 11 79.6C13.36 77.09 16.55 75.71 20 75.71C21.21 75.71 22.41 75.89 23.57 76.23C23.76 76.29 23.95 76.3101 24.15 76.3101C24.7 76.3101 25.23 76.0901 25.62 75.6801L29.37 71.6801L36.87 63.6899L64 34.79C64.6 34.15 64.72 33.19 64.28 32.42C60.27 25.38 61.14 16.86 66.43 11.22C66.93 10.69 67.41 10.23 67.89 9.82996C70.98 7.22996 74.99 5.80005 79.16 5.80005M20.04 96.08C22.24 96.08 24.37 95.16 25.89 93.55C27.35 91.9901 28.12 89.9499 28.06 87.8199C27.99 85.6799 27.09 83.7 25.54 82.24C24.05 80.84 22.11 80.0699 20.06 80.0699C17.85 80.0699 15.72 80.99 14.22 82.6C11.21 85.81 11.37 90.89 14.58 93.92C16.07 95.32 18.01 96.09 20.05 96.09M79.18 3.79004C74.65 3.79004 70.19 5.29005 66.62 8.30005C66.05 8.78005 65.51 9.29998 64.99 9.84998C58.95 16.28 58.24 25.84 62.55 33.42L35.42 62.3199L27.92 70.3101L24.17 74.3101C22.82 73.9101 21.42 73.71 20.03 73.7C16.21 73.7 12.39 75.21 9.56001 78.23C8.82001 79.01 8.19 79.86 7.67 80.74C4.3 86.41 5.19003 93.8501 10.2 98.5601C12.81 101.01 16.1 102.3 19.42 102.44C19.63 102.44 19.85 102.45 20.06 102.45C23.89 102.45 27.71 100.93 30.53 97.92C34.39 93.81 35.35 88.03 33.52 83.08L37.95 78.36L40.94 75.1801L71.9 42.2C74.82 43.6199 77.96 44.33 81.08 44.33C86.33 44.33 91.49 42.31 95.27 38.28C96.26 37.22 97.11 36.08 97.81 34.87C100.74 29.86 101.21 23.79 99.32 18.28L82.69 32.71L71.33 22.05L84.69 4.54004C82.88 4.04004 81.02 3.80005 79.18 3.80005V3.79004ZM20.04 94.0699C18.57 94.0699 17.1 93.53 15.94 92.45C13.53 90.18 13.41 86.38 15.67 83.97C16.85 82.71 18.45 82.0699 20.05 82.0699C21.52 82.0699 23 82.61 24.15 83.7C26.57 85.9699 26.69 89.7601 24.42 92.1801C23.24 93.4401 21.64 94.0699 20.04 94.0699Z" fill="white"/>
<path d="M71.9 42.2L33.52 83.08L24.17 74.3101L25.72 72.66L60.61 35.48L62.55 33.42L71.9 42.2Z" fill="#FF5A3A"/>
<g style="mix-blend-mode:overlay" opacity="0.52">
<path d="M71.9 42.2L33.52 83.08L24.17 74.3101L25.72 72.66C27.94 74.3 31.84 77.12 32.47 77.12C33.37 77.12 65.15 41.88 65.66 40.61C65.95 39.87 63.1 37.47 60.61 35.48L62.55 33.42L71.9 42.2Z" fill="black"/>
</g>
<path d="M85.68 100.23C82.52 100.23 79.53 99.01 77.28 96.8L66.15 85.84C64.92 84.61 64.9 82.6 66.11 81.37L66.82 80.65L28.78 42.54C28.78 42.54 18.41 42.64 18.4 42.64C17.9 42.64 17.44 42.38 17.18 41.96L2.53005 17.8199C2.19005 17.2599 2.28 16.55 2.73 16.08L12.19 6.45996C12.47 6.17996 12.83 6.03003 13.2 6.03003C13.45 6.03003 13.69 6.08997 13.92 6.21997L38.3 20.45C38.7 20.69 38.97 21.1099 39 21.5699L39.73 31.33L77.79 69.49L78.46 68.8C79.06 68.19 79.87 67.85 80.72 67.85C81.57 67.85 82.34 68.17 82.94 68.76L94.07 79.71C96.38 81.98 97.65 85.02 97.65 88.25C97.65 91.48 96.43 94.4 94.21 96.65C91.94 98.95 88.91 100.22 85.67 100.22L85.68 100.23Z" fill="white"/>
<path d="M13.21 7.43994L37.59 21.67L38.36 31.96L73.93 67.62L77.31 71.01L77.81 71.51L79.49 69.8C79.83 69.4501 80.28 69.28 80.74 69.28C81.18 69.28 81.62 69.45 81.96 69.78L93.09 80.73C95.19 82.8 96.24 85.53 96.24 88.26C96.24 90.99 95.23 93.61 93.21 95.66C91.14 97.76 88.42 98.8101 85.69 98.8101C82.96 98.8101 80.34 97.8 78.28 95.78L67.15 84.8199C66.47 84.1399 66.46 83.04 67.13 82.35L68.82 80.64L68.55 80.36L29.36 41.1L18.4 41.2L3.75 17.0601L6.90997 13.85L13.21 7.43994ZM13.21 4.58997C12.47 4.58997 11.73 4.87994 11.18 5.43994L4.88 11.85L1.71997 15.0601C0.809968 15.9901 0.640005 17.42 1.32 18.53L15.97 42.67C16.49 43.52 17.41 44.04 18.4 44.04C18.4 44.04 18.42 44.04 18.43 44.04L28.19 43.95L64.83 80.66C63.35 82.48 63.47 85.16 65.14 86.83L76.29 97.8101C78.82 100.29 82.16 101.65 85.69 101.65C89.22 101.65 92.7 100.23 95.24 97.66C97.72 95.14 99.09 91.8 99.09 88.26C99.09 84.72 97.67 81.25 95.09 78.7L83.96 67.75C83.1 66.9 81.95 66.4301 80.74 66.4301C79.66 66.4301 78.64 66.8 77.82 67.48L75.95 65.61L41.12 30.7L40.43 21.46C40.36 20.53 39.84 19.69 39.03 19.22L14.65 4.98999C14.2 4.72999 13.71 4.59998 13.22 4.59998L13.21 4.58997Z" fill="#23261B"/>
<path d="M96.24 88.26C96.24 90.93 95.23 93.61 93.21 95.66C89.12 99.81 82.44 99.86 78.28 95.78L67.15 84.8199C66.47 84.1399 66.46 83.04 67.13 82.35L68.82 80.64L68.55 80.36L29.36 41.1L18.4 41.2L3.75 17.0601L6.90997 13.85C10.45 19.72 20.1 35.66 20.52 35.8C21.03 35.97 30.73 35.8 30.73 35.8L67.58 72.39C67.58 72.39 70.77 70.96 73.93 67.62L77.31 71.01L77.81 71.51L79.49 69.8C80.17 69.1101 81.27 69.1 81.96 69.78L93.09 80.73C95.19 82.8 96.24 85.53 96.24 88.26Z" fill="#D4D4D4"/>
<path d="M13.54 9.95996L35.66 22.87L36.35 32.11C36.39 32.59 36.59 33.04 36.93 33.38L72.5 69.04L75.88 72.4301L76.38 72.9301C76.76 73.3101 77.27 73.52 77.8 73.52C78.34 73.52 78.85 73.3 79.22 72.92L80.72 71.4L91.66 82.16C93.31 83.78 94.21 85.95 94.21 88.26C94.21 90.57 93.34 92.65 91.76 94.25C90.14 95.89 87.98 96.8 85.67 96.8C83.36 96.8 81.28 95.93 79.67 94.35L68.73 83.5699L70.23 82.05C71 81.2701 71 80.03 70.25 79.24L69.96 78.9399L30.77 39.6801C30.39 39.3001 29.88 39.09 29.35 39.09C29.35 39.09 29.34 39.09 29.33 39.09L19.51 39.1801L6.26001 17.35L8.32001 15.25L13.52 9.94995M13.21 7.43994L6.90997 13.85L3.75 17.0601L18.4 41.2L29.36 41.1L68.55 80.36L68.82 80.64L67.13 82.35C66.46 83.04 66.47 84.1399 67.15 84.8199L78.28 95.78C80.34 97.8 83.01 98.8101 85.69 98.8101C88.37 98.8101 91.15 97.76 93.21 95.66C95.23 93.61 96.24 90.93 96.24 88.26C96.24 85.59 95.19 82.8 93.09 80.73L81.96 69.78C81.62 69.44 81.18 69.28 80.74 69.28C80.29 69.28 79.84 69.46 79.49 69.8L77.81 71.51L77.31 71.01L73.93 67.62L38.36 31.96L37.59 21.67L13.21 7.43994Z" fill="white"/>
<path d="M96.24 88.26C96.24 89.16 96.13 90.0601 95.89 90.9301C95.45 92.6601 94.55 94.3001 93.21 95.6601C89.12 99.8101 82.4401 99.86 78.2801 95.78L67.1501 84.82C66.4701 84.14 66.46 83.04 67.13 82.35L68.82 80.64L77.81 71.51L79.49 69.8001C80.17 69.1101 81.27 69.1 81.96 69.78L82.69 70.5L93.0901 80.73C95.1901 82.8 96.24 85.53 96.24 88.26Z" fill="#FF5A3A"/>
<g style="mix-blend-mode:overlay" opacity="0.52">
<path d="M95.89 90.9301C95.45 92.6601 94.55 94.3001 93.21 95.6601C89.12 99.8101 82.4401 99.86 78.2801 95.78L67.1501 84.82C66.4701 84.14 66.46 83.04 67.13 82.35L68.82 80.64L77.81 71.51L79.49 69.8001C80.17 69.1101 81.27 69.1 81.96 69.78L82.69 70.5L70.39 82.6701C70.39 82.6701 79.9 95.5601 88.52 95.0501C91.72 94.8601 94.13 93.0901 95.89 90.9301Z" fill="black"/>
</g>
</svg>
