<svg width="97" height="108" viewBox="0 0 97 108" fill="none" xmlns="http://www.w3.org/2000/svg">
<path d="M48.55 106.53C26.69 106.53 13.7 98.95 8.82001 91.86C-4.38999 72.63 5.38999 52.66 5.48999 52.46C5.72999 51.98 6.23001 51.68 6.76001 51.68C6.82001 51.68 6.89002 51.68 6.95002 51.69C7.55002 51.77 8.04003 52.23 8.15003 52.82C8.49003 54.5 9.90998 59.17 12.41 60.58C13.52 61.2 14.75 61.7 15.91 62.09C14.02 59.24 12.03 54.56 11.88 47.42C11.62 33.97 20.68 26.13 21.06 25.8C21.32 25.58 21.65 25.46 21.98 25.46C22.2 25.46 22.41 25.51 22.62 25.61C23.13 25.86 23.44 26.4 23.4 26.97C23.36 27.7 23.22 34.14 30.12 34.83C30.49 34.87 30.84 34.88 31.17 34.88C33.03 34.88 34.34 34.32 35.16 33.18C36.73 31 36.62 26.52 34.85 21.21C31.75 11.91 47.63 2.11002 47.79 2.02002C48.02 1.88002 48.28 1.81 48.53 1.81C48.87 1.81 49.2 1.92998 49.47 2.16998C49.94 2.57998 50.08 3.25001 49.83 3.82001C49.35 4.89001 45.38 14.13 51.64 17.77C52.68 18.38 53.66 18.67 54.64 18.67C56.66 18.67 58.33 17.35 59.67 16.29L60.14 15.92C60.39 15.72 60.7 15.62 61.01 15.62C61.17 15.62 61.34 15.65 61.49 15.7C61.95 15.87 62.29 16.25 62.4 16.73C62.79 18.44 63.12 20.39 62.62 21.87C60.81 27.31 60.6 31.39 62.02 33.36C62.76 34.39 64 34.89 65.82 34.89C66.18 34.89 66.55 34.87 66.95 34.83C73.86 34.14 73.71 27.7 73.67 26.97C73.64 26.4 73.95 25.87 74.46 25.62C74.66 25.52 74.88 25.47 75.09 25.47C75.42 25.47 75.75 25.58 76.01 25.81C76.4 26.14 85.46 33.98 85.2 47.43C85.06 54.57 83.07 59.25 81.17 62.1C82.33 61.71 83.56 61.21 84.67 60.59C87.17 59.19 88.59 54.51 88.93 52.83C89.05 52.24 89.53 51.78 90.13 51.7C90.19 51.7 90.26 51.69 90.32 51.69C90.85 51.69 91.35 51.99 91.59 52.47C91.69 52.67 101.48 72.64 88.25 91.87C83.38 98.96 70.39 106.54 48.53 106.54L48.55 106.53Z" fill="#FF5A3A"/>
<path d="M48.55 3.22998C48.37 3.62998 43.29 14.54 50.94 18.99C52.29 19.78 53.5301 20.09 54.6501 20.09C57.4401 20.09 59.54 18.19 61.02 17.04C61.3 18.28 61.6901 20.19 61.2801 21.41C58.7001 29.16 58.6 36.31 65.83 36.31C66.23 36.31 66.66 36.29 67.1 36.24C75.62 35.39 75.1 26.88 75.1 26.88C75.1 26.88 84.04 34.46 83.79 47.39C83.53 60.33 76.9601 64.63 76.9601 64.63C76.9601 64.63 81.74 63.86 85.38 61.82C89.02 59.78 90.3401 53.1 90.3401 53.1C90.3401 53.1 100 72.29 87.1 91.05C80.66 100.42 64.61 105.1 48.55 105.1C32.49 105.1 16.44 100.42 10 91.05C-2.88997 72.29 6.77005 53.1 6.77005 53.1C6.77005 53.1 8.09001 59.78 11.73 61.82C15.37 63.86 20.1501 64.63 20.1501 64.63C20.1501 64.63 13.58 60.33 13.32 47.39C13.07 34.46 22 26.88 22 26.88C22 26.88 21.49 35.39 30 36.24C30.42 36.28 30.81 36.3 31.19 36.3C38.55 36.3 38.81 28.53 36.22 20.76C33.51 12.62 48.42 3.30998 48.55 3.22998ZM48.55 0.380005C47.98 0.380005 47.45 0.550027 47 0.840027C46.49 1.16003 42.76 3.55 39.32 6.94C33.97 12.21 32.02 17.16 33.52 21.65C35.12 26.46 35.3101 30.55 34.0301 32.34C33.6901 32.82 33.02 33.45 31.19 33.45C30.91 33.45 30.6 33.43 30.29 33.4C25.01 32.87 24.8101 28.25 24.8401 27.1C24.8401 27.02 24.8401 26.94 24.8401 26.87C24.8401 25.3 23.57 24.03 22 24.03C21.29 24.03 20.64 24.29 20.14 24.72C19.5 25.27 10.21 33.51 10.48 47.44C10.58 52.35 11.53 56.17 12.75 59.08C11.08 57.75 9.90003 54.18 9.56003 52.54C9.32003 51.35 8.35005 50.44 7.15005 50.28C7.02005 50.26 6.89005 50.25 6.77005 50.25C5.71005 50.25 4.72001 50.84 4.23001 51.81C3.80001 52.65 -6.03 72.73 7.66 92.65C11.05 97.58 16.96 101.6 24.75 104.27C31.74 106.67 39.97 107.94 48.56 107.94C63.25 107.94 81.71 103.92 89.45 92.65C103.15 72.73 93.31 52.66 92.89 51.81C92.4 50.84 91.41 50.24 90.35 50.24C90.22 50.24 90.09 50.24 89.9601 50.27C88.7601 50.43 87.79 51.35 87.55 52.54C87.22 54.18 86.03 57.75 84.36 59.08C85.58 56.17 86.53 52.35 86.63 47.44C86.9 33.32 77.34 25.05 76.94 24.7C76.42 24.25 75.76 24.03 75.1 24.02C74.67 24.02 74.23 24.12 73.83 24.32C72.8101 24.83 72.19 25.9 72.26 27.04C72.3 27.99 72.25 32.85 66.82 33.4C66.47 33.44 66.14 33.45 65.83 33.45C63.86 33.45 63.36 32.74 63.19 32.51C62.77 31.93 61.6 29.48 63.99 22.29C64.59 20.5 64.26 18.4 63.81 16.4C63.6 15.45 62.91 14.68 62 14.35C61.69 14.24 61.36 14.18 61.04 14.18C60.42 14.18 59.81 14.38 59.3 14.77C59.14 14.89 58.98 15.02 58.81 15.15C57.58 16.12 56.19 17.22 54.67 17.22C53.96 17.22 53.21 16.99 52.39 16.51C51.6 16.05 49.2101 14.66 49.6501 9.96002C49.8901 7.40002 50.85 5.08998 51.12 4.47998C51.31 4.09998 51.42 3.66002 51.42 3.21002C51.42 1.64002 50.15 0.369995 48.58 0.369995L48.55 0.380005Z" fill="#23261B"/>
<path d="M11.72 75.33C11.72 75.33 17.15 101.45 48.68 100.76C80.21 100.07 85.82 81.07 85.82 72.77C85.82 72.77 77.28 76.85 72.98 74.38C68.68 71.91 68.77 73.69 73.38 63.19C77.99 52.69 73.78 45.25 73.78 45.25C73.78 45.25 71.07 51.88 62.71 50.38C54.35 48.88 54.46 41.67 55.9 37.17C55.9 37.17 50.02 38.96 47.6 36.77C45.18 34.58 44.02 28.41 44.02 28.41C44.02 28.41 39.33 33.08 42.74 40.35C46.15 47.62 38.91 52.67 32.78 50.75C25 48.32 25.05 42.48 24.87 42.48C24.69 42.48 21.06 51.1 23.14 58.02C25.22 64.94 27.87 64.96 26.14 70.15C24.41 75.34 16.1 80.34 11.71 75.32L11.72 75.33Z" fill="#FF7D2C"/>
<path d="M28.47 88.5C28.7 88.87 34.94 99.14 54.17 96.5C73.4 93.86 76.21 83.65 67.62 79.22C59.02 74.79 64.15 66.37 64.9 63.22C66.24 57.54 64.22 54.03 64.22 54.03C64.22 54.03 59.54 64.5 52.48 61.43C45.42 58.37 46.86 51.22 46.52 50.96C46.18 50.7 42.18 54.36 40.9 59.81C39.62 65.26 35.84 59.77 31.88 59.64C27.92 59.51 36.99 68.24 34.6 75.64C32.21 83.04 21.07 76.83 28.47 88.49V88.5Z" fill="#FFAE25"/>
<g style="mix-blend-mode:overlay" opacity="0.44">
<path d="M87.1 91.05C74.23 109.79 22.88 109.79 9.99999 91.05C-2.89001 72.29 6.77001 53.1 6.77001 53.1C6.77001 53.1 5.23997 85.77 50.17 84.41C95.11 83.04 90.34 53.1 90.34 53.1C90.34 53.1 100 72.29 87.1 91.05Z" fill="black"/>
</g>
<path d="M43.83 10.5C43.71 15.93 46.4 19.65 49.5 21.45C51.19 22.43 52.92 22.93 54.64 22.93C55.89 22.93 57.01 22.68 58.02 22.29C56.27 28.37 56.45 32.92 58.56 35.85C59.65 37.36 61.79 39.15 65.82 39.15C66.32 39.15 66.84 39.12 67.38 39.07C72.39 38.57 75.18 35.94 76.62 33.05C78.74 36.2 81.06 41.09 80.94 47.33C80.72 58.4 75.58 62.12 75.4 62.25C74.28 62.99 73.82 64.41 74.31 65.66C74.74 66.77 75.8 67.48 76.96 67.48C77.11 67.48 77.26 67.47 77.41 67.44C77.63 67.41 82.73 66.56 86.77 64.3C88.11 63.55 89.19 62.41 90.06 61.16C91.58 67.89 92.14 78.7 84.75 89.44C79.4 97.23 65.19 102.26 48.55 102.26C31.91 102.26 17.69 97.23 12.34 89.44C4.96002 78.69 5.51997 67.88 7.03997 61.16C7.90997 62.42 8.99001 63.55 10.33 64.31C14.36 66.57 19.47 67.41 19.69 67.45C19.84 67.47 20 67.49 20.15 67.49C21.31 67.49 22.38 66.79 22.81 65.68C23.3 64.43 22.86 63.02 21.73 62.28C21.51 62.13 16.37 58.41 16.15 47.34C16.03 41.09 18.35 36.2 20.47 33.06C21.91 35.95 24.7 38.58 29.7 39.08C30.21 39.13 30.7 39.16 31.18 39.16C35.27 39.16 37.49 37.27 38.63 35.69C41.93 31.12 40.22 23.82 38.91 19.88C38 17.15 40.64 13.54 43.83 10.52M48.55 3.22998C48.42 3.30998 33.51 12.62 36.22 20.76C38.81 28.53 38.55 36.3 31.19 36.3C30.81 36.3 30.42 36.28 30 36.24C21.49 35.39 22 26.88 22 26.88C22 26.88 13.07 34.46 13.32 47.39C13.58 60.33 20.15 64.63 20.15 64.63C20.15 64.63 15.37 63.86 11.73 61.82C8.08997 59.78 6.77001 53.1 6.77001 53.1C6.77001 53.1 -2.89001 72.29 9.99999 91.05C16.44 100.42 32.5 105.1 48.55 105.1C64.6 105.1 80.66 100.42 87.1 91.05C100 72.29 90.34 53.1 90.34 53.1C90.34 53.1 89.02 59.78 85.38 61.82C81.74 63.86 76.96 64.63 76.96 64.63C76.96 64.63 83.53 60.33 83.79 47.39C84.04 34.46 75.1 26.88 75.1 26.88C75.1 26.88 75.62 35.39 67.1 36.24C66.65 36.29 66.23 36.31 65.83 36.31C58.6 36.31 58.71 29.16 61.28 21.41C61.69 20.19 61.3 18.28 61.02 17.04C59.54 18.18 57.45 20.09 54.65 20.09C53.53 20.09 52.29 19.78 50.94 18.99C43.29 14.54 48.37 3.62998 48.55 3.22998Z" fill="#FF5A3A"/>
<path style="mix-blend-mode:overlay" d="M21.83 64.07C21.83 64.07 17.23 59.45 16.15 49.56C15.07 39.67 20.55 33.79 20.55 33.79C20.55 33.79 24.93 41.96 34.25 38.45C43.57 34.94 40.68 28.11 39.02 22.36C37.36 16.62 40.91 12.59 44.49 10.04C44.49 10.04 42.7 17.83 48.89 21.21C55.08 24.59 59.1 20.76 59.1 20.76C59.1 20.76 51.91 32.78 60.55 37.97C69.19 43.16 75.74 35.46 76.29 32.61C76.29 32.61 82.76 39.46 81.06 50.95C79.79 59.54 73.32 66.91 73.66 67.16" fill="url(#paint0_linear_1_320)"/>
<defs>
<linearGradient id="paint0_linear_1_320" x1="47.5" y1="8.84998" x2="49.03" y2="58.55" gradientUnits="userSpaceOnUse">
<stop offset="0.06" stop-color="#FFF196"/>
<stop offset="0.12" stop-color="#FFF196" stop-opacity="0.96"/>
<stop offset="0.23" stop-color="#FFF196" stop-opacity="0.86"/>
<stop offset="0.36" stop-color="#FFF196" stop-opacity="0.69"/>
<stop offset="0.51" stop-color="#FFF196" stop-opacity="0.45"/>
<stop offset="0.69" stop-color="#FFF196" stop-opacity="0.16"/>
<stop offset="0.78" stop-color="#FFF196" stop-opacity="0"/>
</linearGradient>
</defs>
</svg>
