<svg width="114" height="82" viewBox="0 0 114 82" fill="none" xmlns="http://www.w3.org/2000/svg">
<path d="M84.69 47.51C84.29 47.51 83.89 47.44 83.52 47.29L78.45 45.27C76.92 44.65 76.11 43 76.56 41.44L77.26 38.94C77.29 38.82 77.26 38.68 77.16 38.59C76.81 38.28 76.47 37.94 76.14 37.6C76.07 37.53 75.99 37.5 75.9 37.5C75.86 37.5 75.83 37.5 75.79 37.52L73.31 38.29C73 38.38 72.68 38.43 72.37 38.43C71.08 38.43 69.92 37.66 69.43 36.48L67.28 31.5C66.64 29.98 67.23 28.25 68.65 27.45L70.91 26.17C71.03 26.1 71.1 25.98 71.09 25.86C71.06 25.47 71.06 25 71.07 24.43C71.07 24.31 71 24.19 70.89 24.14L68.58 22.92C67.14 22.16 66.5 20.45 67.1 18.92L69.12 13.85C69.49 12.92 70.29 12.21 71.25 11.95C71.5 11.87 71.8 11.83 72.11 11.83C72.39 11.83 72.67 11.87 72.94 11.95L75.45 12.65H75.55C75.65 12.66 75.74 12.63 75.8 12.56C76.09 12.21 76.45 11.85 76.82 11.51C76.88 11.45 76.91 11.32 76.87 11.2L76.11 8.70001C75.62 7.15001 76.39 5.48002 77.9 4.83002L82.91 2.67999C83.31 2.50999 83.73 2.41998 84.17 2.41998C85.33 2.41998 86.39 3.05 86.95 4.06L88.23 6.32001C88.29 6.42001 88.39 6.48999 88.51 6.48999C88.84 6.47999 89.14 6.46997 89.43 6.46997C89.62 6.46997 89.81 6.46998 90 6.47998C90.08 6.47998 90.21 6.39998 90.27 6.28998L91.49 3.98999C92.05 2.93999 93.13 2.28998 94.31 2.28998C94.72 2.28998 95.12 2.37002 95.5 2.52002L100.55 4.53998C102.08 5.13998 102.89 6.79 102.44 8.37L101.75 10.86C101.71 10.99 101.75 11.12 101.83 11.2C102.19 11.53 102.53 11.86 102.86 12.2C102.93 12.27 103.01 12.31 103.1 12.31L103.21 12.29L105.71 11.53C106.01 11.44 106.33 11.39 106.65 11.39C107.93 11.39 109.08 12.15 109.58 13.33L111.74 18.33C112.38 19.83 111.79 21.57 110.38 22.37L108.11 23.65C108 23.71 107.93 23.83 107.93 23.96C107.93 24.04 107.94 24.17 107.94 24.3C107.96 24.61 107.96 25 107.94 25.4C107.94 25.51 108.01 25.62 108.12 25.68L110.43 26.91C111.86 27.66 112.5 29.38 111.9 30.91L109.88 35.98C109.41 37.18 108.22 37.99 106.91 37.99C106.62 37.99 106.34 37.95 106.06 37.87L103.55 37.17C103.55 37.17 103.51 37.17 103.49 37.17C103.34 37.17 103.26 37.21 103.2 37.27C102.91 37.61 102.57 37.95 102.22 38.29C102.11 38.39 102.09 38.51 102.12 38.62L102.88 41.12C103.36 42.67 102.59 44.34 101.1 44.99L96.09 47.14C95.69 47.31 95.27 47.4 94.83 47.4C93.68 47.4 92.61 46.78 92.05 45.78L90.77 43.51C90.71 43.4 90.6 43.33 90.48 43.33C90.12 43.35 89.77 43.36 89.42 43.36H89.03C88.9 43.36 88.79 43.43 88.73 43.54L87.51 45.84C86.96 46.89 85.88 47.54 84.68 47.54L84.69 47.51ZM89.52 17.25C86.61 17.25 83.92 18.94 82.65 21.54C82.56 21.72 82.49 21.87 82.43 22.04C81.66 23.96 81.69 26.03 82.5 27.9C83.31 29.78 84.79 31.22 86.69 31.98C87.6 32.34 88.55 32.53 89.52 32.53C92.66 32.53 95.45 30.64 96.62 27.71C96.95 26.87 97.13 26 97.15 25.14C97.25 21.93 95.33 18.98 92.35 17.79C91.45 17.43 90.5 17.25 89.53 17.25H89.52Z" fill="white"/>
<path d="M94.32 3.67999C94.54 3.67999 94.76 3.72 94.98 3.81L100.04 5.83002C100.88 6.16002 101.34 7.08001 101.09 7.95001L100.4 10.46C100.22 11.1 100.41 11.79 100.9 12.23C101.23 12.53 101.55 12.84 101.86 13.16C102.2 13.51 102.65 13.7 103.12 13.7C103.29 13.7 103.47 13.67 103.64 13.62L106.14 12.86C106.31 12.81 106.49 12.78 106.66 12.78C107.35 12.78 108 13.19 108.28 13.85L110.44 18.86C110.79 19.69 110.47 20.65 109.68 21.1L107.41 22.38C106.83 22.71 106.48 23.33 106.51 23.99C106.52 24.09 106.52 24.18 106.52 24.27C106.54 24.62 106.54 24.97 106.53 25.33C106.51 25.99 106.88 26.6 107.47 26.91L109.77 28.14C110.57 28.56 110.92 29.52 110.59 30.36L108.57 35.42C108.3 36.11 107.63 36.53 106.92 36.53C106.76 36.53 106.6 36.51 106.45 36.47L103.94 35.77C103.78 35.73 103.62 35.7 103.47 35.7C102.98 35.7 102.5 35.9 102.16 36.28C101.87 36.61 101.56 36.93 101.24 37.24C100.75 37.69 100.58 38.39 100.78 39.02L101.54 41.51C101.81 42.38 101.38 43.3 100.55 43.66L95.54 45.81C95.31 45.91 95.07 45.96 94.84 45.96C94.22 45.96 93.62 45.63 93.3 45.06L92.02 42.79C91.7 42.23 91.12 41.89 90.49 41.89C90.46 41.89 90.44 41.89 90.41 41.89C90.08 41.9 89.76 41.91 89.43 41.91C89.31 41.91 89.19 41.91 89.07 41.91C89.05 41.91 89.04 41.91 89.02 41.91C88.38 41.91 87.78 42.28 87.48 42.85L86.26 45.15C85.95 45.75 85.33 46.09 84.69 46.09C84.47 46.09 84.25 46.05 84.04 45.97L78.98 43.95C78.14 43.61 77.68 42.7 77.93 41.83L78.63 39.32C78.8 38.68 78.61 37.99 78.12 37.54C77.79 37.24 77.47 36.93 77.16 36.61C76.83 36.26 76.37 36.07 75.9 36.07C75.73 36.07 75.55 36.1 75.38 36.15L72.89 36.92C72.72 36.97 72.54 37 72.37 37C71.67 37 71.02 36.6 70.74 35.92L68.58 30.92C68.23 30.09 68.55 29.12 69.34 28.68L71.61 27.39C72.19 27.07 72.54 26.44 72.51 25.78C72.48 25.34 72.48 24.89 72.49 24.45C72.51 23.78 72.14 23.17 71.55 22.86L69.25 21.64C68.45 21.22 68.1 20.26 68.43 19.42L70.45 14.36C70.66 13.83 71.11 13.45 71.63 13.31C71.79 13.26 71.95 13.24 72.12 13.24C72.27 13.24 72.42 13.26 72.57 13.3L75.08 14C75.24 14.04 75.4 14.07 75.56 14.07C76.05 14.07 76.52 13.87 76.86 13.5C77.15 13.16 77.46 12.84 77.79 12.54C78.27 12.08 78.44 11.39 78.24 10.75L77.48 8.26001C77.21 7.40001 77.64 6.46999 78.47 6.10999L83.48 3.96002C83.71 3.86002 83.94 3.81 84.18 3.81C84.8 3.81 85.4 4.13997 85.72 4.71997L87 6.98999C87.31 7.53999 87.89 7.88 88.52 7.88C88.55 7.88 88.59 7.88 88.62 7.88C88.89 7.87 89.16 7.85999 89.44 7.85999C89.61 7.85999 89.78 7.85999 89.95 7.87C89.95 7.87 89.97 7.87 89.98 7.87C90.63 7.87 91.24 7.49999 91.54 6.92999L92.76 4.62C93.07 4.03 93.68 3.67999 94.32 3.67999ZM89.51 33.95C93.1 33.95 96.51 31.79 97.93 28.24C98.33 27.23 98.54 26.2 98.56 25.17C98.68 21.47 96.5 17.93 92.87 16.47C91.77 16.03 90.63 15.82 89.52 15.82C86.13 15.82 82.91 17.73 81.37 20.92C81.27 21.12 81.18 21.32 81.1 21.53C79.24 26.18 81.51 31.45 86.16 33.3C87.26 33.74 88.4 33.95 89.51 33.95ZM94.32 0.840027C92.61 0.840027 91.05 1.77998 90.24 3.28998L89.33 5.02002C89.27 5.02002 89.21 5.02002 89.15 5.02002L88.19 3.33002C87.38 1.88002 85.84 0.97998 84.17 0.97998C83.54 0.97998 82.92 1.10999 82.34 1.35999L77.34 3.51001C75.16 4.46001 74.05 6.87 74.76 9.13L75.32 10.98C75.32 10.98 75.24 11.06 75.2 11.1L73.32 10.58C72.93 10.47 72.52 10.41 72.1 10.41C71.68 10.41 71.25 10.47 70.83 10.59C69.45 10.98 68.31 12 67.78 13.33L65.76 18.38C64.89 20.59 65.81 23.08 67.9 24.17L69.61 25.08C69.61 25.14 69.61 25.19 69.61 25.25L67.9 26.22C65.86 27.35 65.01 29.86 65.92 32.04L68.09 37.06C68.79 38.74 70.46 39.85 72.33 39.85C72.78 39.85 73.23 39.78 73.67 39.65L75.55 39.07C75.55 39.07 75.63 39.15 75.68 39.19L75.16 41.07C74.51 43.32 75.68 45.7 77.88 46.59L82.95 48.62C83.51 48.84 84.08 48.95 84.66 48.95C86.38 48.95 87.95 48 88.75 46.48L89.66 44.76C89.72 44.76 89.78 44.76 89.83 44.76L90.79 46.46C91.61 47.91 93.15 48.8 94.81 48.8C95.44 48.8 96.06 48.67 96.64 48.42L101.64 46.27C103.82 45.33 104.92 42.92 104.23 40.66L103.66 38.81C103.66 38.81 103.74 38.73 103.78 38.69L105.65 39.21C106.06 39.32 106.47 39.38 106.89 39.38C108.8 39.38 110.49 38.23 111.18 36.46L113.19 31.41C114.06 29.2 113.14 26.71 111.05 25.62L109.34 24.7C109.34 24.64 109.34 24.59 109.34 24.53L111.04 23.57C113.09 22.4 113.93 19.9 113.02 17.75L110.85 12.72C110.14 11.03 108.48 9.92999 106.62 9.92999C106.15 9.92999 105.69 10 105.24 10.14L103.39 10.7C103.39 10.7 103.31 10.62 103.27 10.58L103.79 8.69C104.44 6.43 103.26 4.03998 101.04 3.16998L95.99 1.15997C95.45 0.939973 94.87 0.830017 94.28 0.830017L94.32 0.840027ZM89.51 31.1C88.73 31.1 87.95 30.95 87.22 30.65C85.67 30.03 84.46 28.85 83.8 27.33C83.15 25.81 83.12 24.12 83.74 22.58C83.8 22.41 83.86 22.3 83.91 22.18C84.95 20.03 87.15 18.66 89.51 18.66C90.3 18.66 91.07 18.81 91.81 19.1C94.22 20.07 95.79 22.47 95.71 25.07C95.7 25.8 95.55 26.5 95.28 27.18C94.33 29.55 92.06 31.09 89.51 31.09V31.1Z" fill="#23261B"/>
<path d="M110.59 30.36L108.57 35.42C108.24 36.26 107.32 36.71 106.45 36.47L103.94 35.77C103.3 35.59 102.61 35.79 102.16 36.28C101.87 36.61 101.56 36.93 101.24 37.24C100.75 37.69 100.58 38.39 100.78 39.02L101.54 41.51C101.81 42.38 101.38 43.3 100.55 43.66L95.54 45.81C94.71 46.17 93.74 45.84 93.3 45.06L92.02 42.79C91.69 42.21 91.07 41.86 90.41 41.89C89.96 41.91 89.52 41.92 89.07 41.91C88.41 41.89 87.79 42.26 87.48 42.85L86.26 45.15C85.84 45.95 84.88 46.3 84.04 45.97L78.98 43.95C78.14 43.61 77.68 42.7 77.93 41.83L78.63 39.32C78.8 38.68 78.61 37.99 78.12 37.54C77.79 37.24 77.47 36.93 77.16 36.61C76.71 36.13 76.01 35.96 75.38 36.15L72.89 36.92C72.02 37.18 71.09 36.76 70.74 35.92L68.58 30.92C68.23 30.09 68.55 29.12 69.34 28.68L71.61 27.39C72.19 27.07 72.54 26.44 72.51 25.78C72.48 25.34 72.48 24.89 72.49 24.45C72.51 23.78 72.14 23.17 71.55 22.86L69.25 21.64C68.45 21.22 68.1 20.26 68.43 19.42L70.45 14.36C70.66 13.83 71.11 13.45 71.63 13.31C74.41 16.24 77.64 18.89 81.37 20.92C81.27 21.12 81.18 21.32 81.1 21.53C79.24 26.18 81.51 31.45 86.16 33.3C90.8 35.16 96.07 32.89 97.93 28.24C98.33 27.23 98.54 26.2 98.56 25.17C101.36 25.15 104.02 24.81 106.52 24.27C106.54 24.62 106.54 24.97 106.53 25.33C106.51 25.99 106.88 26.6 107.47 26.91L109.77 28.14C110.57 28.56 110.92 29.52 110.59 30.36Z" fill="#D4D4D4"/>
<path d="M94.32 4.67999C94.42 4.67999 94.51 4.69999 94.61 4.73999L99.68 6.76001C100.04 6.90001 100.24 7.29999 100.13 7.67999L99.44 10.18C99.16 11.18 99.47 12.28 100.23 12.96C100.54 13.24 100.85 13.54 101.14 13.84C101.66 14.38 102.38 14.69 103.12 14.69C103.4 14.69 103.68 14.65 103.93 14.57L106.44 13.81C106.51 13.79 106.59 13.78 106.66 13.78C106.96 13.78 107.24 13.96 107.36 14.25L109.52 19.25C109.67 19.61 109.53 20.04 109.19 20.23L106.92 21.51C106.01 22.03 105.47 23 105.52 24.03C105.52 24.05 105.52 24.07 105.52 24.08C105.52 24.14 105.52 24.2 105.52 24.26C105.52 24.28 105.52 24.3 105.52 24.32C105.54 24.61 105.54 24.92 105.52 25.29C105.49 26.32 106.07 27.3 106.99 27.78L109.3 29.01C109.65 29.19 109.8 29.61 109.66 29.97L107.64 35.04C107.53 35.33 107.24 35.52 106.92 35.52C106.85 35.52 106.78 35.52 106.71 35.49L104.2 34.79C103.96 34.72 103.71 34.69 103.46 34.69C102.69 34.69 101.94 35.02 101.4 35.61C101.14 35.9 100.86 36.2 100.55 36.49C99.78 37.19 99.49 38.3 99.81 39.3L100.57 41.79C100.69 42.17 100.5 42.57 100.14 42.72L95.13 44.87C95.03 44.91 94.93 44.93 94.83 44.93C94.55 44.93 94.3 44.78 94.16 44.54L92.88 42.27C92.39 41.4 91.47 40.86 90.48 40.86C90.44 40.86 90.4 40.86 90.36 40.86C90.05 40.87 89.74 40.88 89.42 40.88C89.31 40.88 89.2 40.88 89.09 40.88H89.01C87.99 40.88 87.06 41.44 86.59 42.35L85.37 44.65C85.24 44.9 84.98 45.06 84.69 45.06C84.59 45.06 84.5 45.04 84.41 45.01L79.35 42.99C78.98 42.84 78.78 42.45 78.89 42.07L79.59 39.55C79.86 38.54 79.55 37.48 78.79 36.77C78.48 36.49 78.17 36.19 77.89 35.9C77.38 35.36 76.66 35.05 75.9 35.05C75.63 35.05 75.36 35.09 75.09 35.17L72.61 35.94C72.53 35.96 72.45 35.97 72.38 35.97C72.07 35.97 71.79 35.79 71.67 35.5L69.51 30.51C69.35 30.14 69.49 29.72 69.84 29.53L72.1 28.25C73.01 27.75 73.56 26.76 73.51 25.7C73.49 25.35 73.48 24.96 73.49 24.47C73.52 23.42 72.96 22.46 72.02 21.97L69.72 20.75C69.37 20.57 69.22 20.15 69.36 19.79L71.38 14.73C71.47 14.51 71.66 14.34 71.92 14.27C71.99 14.25 72.06 14.24 72.12 14.24C72.18 14.24 72.24 14.24 72.3 14.27L74.81 14.97C75.06 15.04 75.31 15.07 75.56 15.07C76.33 15.07 77.07 14.75 77.62 14.15C77.88 13.84 78.16 13.55 78.48 13.26C79.24 12.54 79.51 11.46 79.19 10.46L78.43 7.96002C78.31 7.59002 78.51 7.18003 78.86 7.03003L83.87 4.88C83.97 4.84 84.07 4.82001 84.17 4.82001C84.45 4.82001 84.7 4.96997 84.84 5.21997L86.12 7.48999C86.61 8.34999 87.52 8.89001 88.51 8.89001C88.56 8.89001 88.62 8.89001 88.66 8.89001C88.92 8.88001 89.17 8.87 89.43 8.87C89.58 8.87 89.74 8.87 89.9 8.87C89.91 8.87 89.96 8.87 89.97 8.87C90.99 8.87 91.93 8.31002 92.42 7.40002L93.64 5.09003C93.77 4.84003 94.04 4.67999 94.32 4.67999ZM89.51 34.95C93.65 34.95 97.32 32.46 98.86 28.61C99.3 27.49 99.54 26.34 99.56 25.2C99.7 21 97.16 17.11 93.24 15.54C92.05 15.06 90.79 14.82 89.52 14.82C85.69 14.82 82.14 17.04 80.48 20.47C80.36 20.71 80.26 20.94 80.18 21.16C79.18 23.66 79.22 26.39 80.28 28.86C81.34 31.33 83.3 33.24 85.8 34.23C86.99 34.71 88.25 34.95 89.52 34.95M94.32 3.67999C93.68 3.67999 93.07 4.03 92.76 4.62L91.54 6.92999C91.23 7.49999 90.63 7.87 89.98 7.87C89.98 7.87 89.96 7.87 89.95 7.87C89.78 7.87 89.61 7.85999 89.44 7.85999C89.17 7.85999 88.89 7.86 88.62 7.88C88.59 7.88 88.55 7.88 88.52 7.88C87.89 7.88 87.32 7.53999 87 6.98999L85.72 4.71997C85.4 4.14997 84.8 3.81 84.18 3.81C83.95 3.81 83.71 3.86002 83.48 3.96002L78.47 6.10999C77.64 6.46999 77.21 7.40001 77.48 8.26001L78.24 10.75C78.44 11.39 78.27 12.08 77.79 12.54C77.46 12.84 77.15 13.16 76.86 13.5C76.52 13.87 76.05 14.07 75.56 14.07C75.4 14.07 75.24 14.05 75.08 14L72.57 13.3C72.42 13.26 72.27 13.24 72.12 13.24C71.95 13.24 71.79 13.27 71.63 13.31C71.11 13.45 70.66 13.83 70.45 14.36L68.43 19.42C68.1 20.26 68.45 21.22 69.25 21.64L71.55 22.86C72.14 23.17 72.51 23.78 72.49 24.45C72.48 24.89 72.48 25.34 72.51 25.78C72.54 26.44 72.19 27.07 71.61 27.39L69.34 28.68C68.55 29.12 68.23 30.09 68.58 30.92L70.74 35.92C71.02 36.59 71.67 37 72.37 37C72.54 37 72.72 36.98 72.89 36.92L75.38 36.15C75.55 36.1 75.72 36.07 75.9 36.07C76.37 36.07 76.83 36.26 77.16 36.61C77.47 36.93 77.79 37.24 78.12 37.54C78.61 37.99 78.8 38.68 78.63 39.32L77.93 41.83C77.68 42.7 78.14 43.61 78.98 43.95L84.04 45.97C84.25 46.05 84.47 46.09 84.69 46.09C85.33 46.09 85.95 45.74 86.26 45.15L87.48 42.85C87.78 42.28 88.38 41.91 89.02 41.91C89.04 41.91 89.05 41.91 89.07 41.91C89.19 41.91 89.31 41.91 89.43 41.91C89.76 41.91 90.08 41.91 90.41 41.89C90.44 41.89 90.46 41.89 90.49 41.89C91.12 41.89 91.7 42.23 92.02 42.79L93.3 45.06C93.62 45.63 94.22 45.96 94.84 45.96C95.07 45.96 95.31 45.91 95.54 45.81L100.55 43.66C101.38 43.3 101.81 42.38 101.54 41.51L100.78 39.02C100.58 38.39 100.75 37.69 101.24 37.24C101.56 36.93 101.87 36.61 102.16 36.28C102.5 35.91 102.98 35.7 103.47 35.7C103.63 35.7 103.79 35.72 103.94 35.77L106.45 36.47C106.61 36.51 106.77 36.53 106.92 36.53C107.63 36.53 108.3 36.1 108.57 35.42L110.59 30.36C110.92 29.52 110.57 28.56 109.77 28.14L107.47 26.91C106.88 26.6 106.51 25.99 106.53 25.33C106.54 24.97 106.54 24.62 106.52 24.27C106.52 24.18 106.52 24.09 106.51 23.99C106.48 23.33 106.83 22.71 107.41 22.38L109.68 21.1C110.47 20.65 110.79 19.69 110.44 18.86L108.28 13.85C108 13.19 107.35 12.78 106.66 12.78C106.49 12.78 106.31 12.81 106.14 12.86L103.64 13.62C103.47 13.67 103.29 13.7 103.12 13.7C102.65 13.7 102.19 13.51 101.86 13.16C101.55 12.84 101.23 12.53 100.9 12.23C100.41 11.79 100.22 11.1 100.4 10.46L101.09 7.95001C101.34 7.08001 100.88 6.16002 100.04 5.83002L94.98 3.81C94.77 3.72 94.54 3.67999 94.32 3.67999ZM89.51 33.95C88.39 33.95 87.26 33.74 86.16 33.3C81.51 31.45 79.24 26.18 81.1 21.53C81.18 21.32 81.27 21.12 81.37 20.92C82.91 17.74 86.13 15.82 89.52 15.82C90.64 15.82 91.77 16.03 92.87 16.47C96.5 17.93 98.68 21.47 98.56 25.17C98.54 26.2 98.33 27.23 97.93 28.24C96.51 31.79 93.11 33.95 89.51 33.95Z" fill="white"/>
<path d="M40.56 80.46C40.43 80.46 40.31 80.46 40.18 80.44L31.27 79.67C29.06 79.49 27.35 77.68 27.31 75.45L27.21 71.18C27.19 70.62 26.88 70.12 26.39 69.9C25.7 69.58 25.01 69.22 24.34 68.83C24.13 68.71 23.89 68.65 23.65 68.65C23.35 68.65 23.06 68.74 22.81 68.91L19.26 71.3C18.54 71.78 17.71 72.03 16.85 72.03C15.57 72.03 14.35 71.47 13.53 70.49L7.77 63.65C6.34 61.95 6.43 59.46 7.96 57.87L10.91 54.78C11.3 54.37 11.43 53.8 11.24 53.28C10.99 52.59 10.76 51.85 10.55 51.1C10.41 50.57 9.96996 50.17 9.41996 50.06L5.22996 49.24C3.04996 48.81 1.54998 46.82 1.74998 44.62L2.50999 35.71C2.69999 33.5 4.51996 31.79 6.72996 31.75L7.4 31.73L11.01 31.65C11.43 31.64 11.83 31.46 12.1 31.15C12.18 31.06 12.25 30.96 12.3 30.84C12.66 30.08 13 29.41 13.36 28.79C13.62 28.33 13.6 27.72 13.29 27.26L10.9 23.71C9.66 21.88 10.01 19.41 11.71 17.99L18.55 12.23C19.33 11.57 20.32 11.21 21.34 11.21C22.46 11.21 23.52 11.64 24.33 12.41L27.42 15.36C27.71 15.63 28.07 15.78 28.44 15.78C28.6 15.78 28.76 15.75 28.91 15.7C29.6 15.45 30.34 15.21 31.1 15.01C31.61 14.87 32.02 14.42 32.13 13.88L32.96 9.67999C33.35 7.65999 35.13 6.17999 37.2 6.17999C37.33 6.17999 37.45 6.18001 37.58 6.20001L46.49 6.96002C48.71 7.15002 50.41 8.97 50.45 11.19L50.55 15.45C50.56 16.01 50.88 16.52 51.36 16.74C52.03 17.05 52.7299 17.41 53.41 17.8C53.61 17.91 53.86 17.98 54.11 17.98C54.4 17.98 54.69 17.89 54.93 17.73L58.48 15.34C59.2 14.86 60.04 14.6 60.9 14.6C62.18 14.6 63.39 15.16 64.21 16.14L69.9699 22.98C71.3899 24.67 71.32 27.15 69.8 28.76L66.83 31.86C66.44 32.27 66.32 32.84 66.5 33.36C66.75 34.04 66.99 34.78 67.19 35.55C67.23 35.69 67.3 35.84 67.38 35.95C67.51 36.15 67.65 36.28 67.82 36.38C67.97 36.47 68.14 36.54 68.32 36.58L72.52 37.41C74.68 37.83 76.18 39.81 76 42.02L75.23 50.94C75.05 53.15 73.24 54.86 71.01 54.9L66.73 55C66.17 55 65.67 55.33 65.45 55.82C65.14 56.49 64.78 57.18 64.39 57.86C64.12 58.33 64.15 58.91 64.46 59.38L66.84 62.94C68.08 64.79 67.73 67.26 66.03 68.68L59.2 74.43C58.43 75.09 57.43 75.45 56.41 75.45C55.29 75.45 54.22 75.02 53.42 74.24L50.33 71.28C50.06 71.02 49.68 70.87 49.31 70.87C49.15 70.87 48.99 70.9 48.84 70.95C48.08 71.23 47.35 71.45 46.63 71.65C46.12 71.79 45.72 72.24 45.61 72.78L44.79 76.98C44.39 79.01 42.6 80.48 40.55 80.48L40.56 80.46ZM38.87 26.29C32.36 26.29 26.35 30.08 23.54 35.96C22.92 37.22 22.47 38.56 22.2 39.95C22.07 40.58 21.98 41.22 21.92 41.86C21.53 46.39 22.93 50.8 25.86 54.28C28.79 57.76 32.9 59.89 37.43 60.27C37.92 60.31 38.4199 60.33 38.91 60.33C47.66 60.33 55.1 53.49 55.85 44.76C55.96 43.52 55.93 42.27 55.76 41.03C55.65 40.22 55.48 39.42 55.26 38.66C53.35 31.89 47.36 26.94 40.35 26.34C39.86 26.3 39.37 26.28 38.88 26.28L38.87 26.29Z" fill="#FF5A3A"/>
<path d="M37.2 7.59003C37.28 7.59003 37.37 7.58998 37.46 7.59998L46.37 8.35999C47.85 8.48999 49 9.71001 49.03 11.2L49.13 15.47C49.15 16.56 49.78 17.56 50.76 18.02C51.43 18.33 52.08 18.67 52.71 19.03C53.15 19.27 53.63 19.4 54.11 19.4C54.68 19.4 55.24 19.23 55.73 18.9L59.28 16.51C59.78 16.18 60.34 16.02 60.9 16.02C61.73 16.02 62.56 16.38 63.13 17.05L68.89 23.89C69.85 25.03 69.79 26.7 68.77 27.78L65.81 30.87C65.06 31.66 64.8 32.8 65.17 33.83C65.42 34.51 65.64 35.21 65.83 35.91C65.92 36.22 66.06 36.52 66.24 36.77C66.46 37.1 66.75 37.37 67.09 37.58C67.38 37.76 67.71 37.89 68.06 37.96L72.26 38.79C73.72 39.07 74.72 40.41 74.6 41.89L73.83 50.8C73.71 52.28 72.49 53.43 71 53.46L66.7199 53.56C65.63 53.58 64.64 54.21 64.18 55.2C63.87 55.86 63.53 56.51 63.17 57.14C62.63 58.09 62.69 59.26 63.3 60.16L65.68 63.71C66.51 64.95 66.28 66.61 65.14 67.56L58.3 73.32C57.76 73.78 57.09 74.01 56.43 74.01C55.7 74.01 54.98 73.74 54.42 73.2L51.33 70.24C50.78 69.72 50.06 69.43 49.32 69.43C49 69.43 48.68 69.48 48.37 69.6C47.68 69.85 46.99 70.07 46.28 70.26C45.23 70.55 44.44 71.42 44.23 72.49L43.4099 76.69C43.1399 78.07 41.94 79.04 40.57 79.04C40.49 79.04 40.4 79.04 40.31 79.03L31.4 78.26C29.92 78.14 28.77 76.92 28.74 75.43L28.64 71.15C28.61 70.06 27.99 69.07 27 68.61C26.34 68.3 25.69 67.96 25.06 67.6C24.62 67.35 24.1399 67.23 23.6599 67.23C23.0899 67.23 22.52 67.4 22.03 67.73L18.48 70.12C17.99 70.45 17.42 70.61 16.86 70.61C16.03 70.61 15.2 70.25 14.63 69.57L8.86997 62.73C7.91997 61.6 7.96997 59.92 8.99997 58.85L11.95 55.76C12.71 54.97 12.96 53.83 12.59 52.8C12.35 52.12 12.13 51.42 11.93 50.71C11.65 49.66 10.77 48.87 9.69999 48.66L5.50998 47.84C4.04998 47.55 3.03996 46.22 3.16996 44.74L3.92997 35.83C4.05997 34.35 5.27998 33.2 6.75998 33.17L7.43998 33.15L11.04 33.07C11.87 33.05 12.64 32.69 13.17 32.08C13.34 31.89 13.48 31.67 13.59 31.43C13.9 30.77 14.23 30.12 14.59 29.49C15.13 28.54 15.0699 27.37 14.4699 26.47L12.08 22.91C11.25 21.68 11.49 20.02 12.62 19.07L19.46 13.31C20.01 12.85 20.67 12.62 21.34 12.62C22.06 12.62 22.7899 12.89 23.3499 13.43L26.44 16.38C26.99 16.91 27.71 17.2 28.45 17.2C28.77 17.2 29.09 17.15 29.4 17.03C30.08 16.78 30.78 16.56 31.48 16.37C32.53 16.08 33.32 15.21 33.53 14.14L34.36 9.94C34.62 8.56 35.83 7.59003 37.2 7.59003ZM38.9 61.76C48.37 61.76 56.43 54.51 57.25 44.89C57.37 43.52 57.33 42.16 57.15 40.85C57.03 39.97 56.85 39.11 56.61 38.28C54.59 31.12 48.3 25.61 40.45 24.94C39.92 24.89 39.39 24.87 38.86 24.87C31.64 24.87 25.24 29.08 22.25 35.35C21.59 36.7 21.1 38.15 20.8 39.68C20.66 40.35 20.56 41.04 20.5 41.74C19.63 51.89 27.15 60.82 37.3 61.69C37.84 61.74 38.37 61.76 38.9 61.76ZM37.2 4.73999C34.45 4.73999 32.08 6.70002 31.56 9.40002L30.73 13.58C29.92 13.83 29.1399 14.08 28.4099 14.35L25.31 11.36C24.23 10.33 22.82 9.77002 21.33 9.77002C19.98 9.77002 18.66 10.25 17.62 11.13L10.78 16.89C8.53 18.78 8.07 22.06 9.71 24.5L12.0999 28.05C11.7399 28.72 11.38 29.42 11.01 30.21C11 30.22 10.98 30.22 10.96 30.22L7.36997 30.3L6.66996 30.32C3.75996 30.38 1.35 32.64 1.09 35.57L0.329991 44.49C0.0699907 47.41 2.05999 50.05 4.94999 50.62L9.15 51.44C9.41 52.25 9.65 53.01 9.9 53.73L9.88999 53.78L6.93998 56.87C4.89998 58.99 4.78998 62.29 6.68998 64.55L12.45 71.39C13.55 72.69 15.16 73.44 16.86 73.44C18 73.44 19.1 73.11 20.05 72.47L23.61 70.07C24.35 70.46 25.07 70.83 25.78 71.16C25.78 71.16 25.78 71.18 25.78 71.2L25.88 75.47C25.94 78.42 28.21 80.83 31.15 81.07L40.04 81.84C40.2099 81.85 40.37 81.86 40.54 81.86C43.27 81.86 45.64 79.91 46.17 77.22L46.99 73.01C47.75 72.78 48.51 72.54 49.31 72.25C49.31 72.25 49.32 72.25 49.34 72.28L52.42 75.23C53.49 76.26 54.9 76.83 56.39 76.83C57.75 76.83 59.07 76.35 60.11 75.47L66.94 69.72C69.19 67.84 69.66 64.57 68.01 62.11L65.63 58.56C66.01 57.83 66.3899 57.11 66.7199 56.39L71.03 56.28C73.98 56.22 76.39 53.95 76.63 51.01L77.4 42.12C77.64 39.17 75.64 36.53 72.76 35.98L68.58 35.15H68.56V35.13L68.54 35.11C68.32 34.32 68.08 33.55 67.81 32.83C67.81 32.83 67.82 32.82 67.84 32.8L70.79 29.72C72.82 27.57 72.92 24.27 71.03 22.03L65.27 15.19C64.16 13.89 62.56 13.14 60.86 13.14C59.72 13.14 58.6099 13.48 57.6599 14.11L54.0999 16.5C53.3499 16.1 52.6199 15.73 51.9099 15.4L51.83 11.1C51.77 8.16998 49.51 5.74999 46.57 5.48999L37.65 4.72998C37.49 4.71998 37.32 4.71002 37.15 4.71002L37.2 4.73999ZM38.9 58.91C38.45 58.91 38 58.89 37.55 58.85C33.4 58.49 29.63 56.54 26.95 53.36C24.27 50.17 22.99 46.13 23.34 41.98C23.39 41.39 23.47 40.81 23.59 40.26C23.85 38.96 24.25 37.74 24.81 36.6C27.39 31.2 32.9 27.72 38.87 27.72C39.32 27.72 39.7699 27.74 40.2199 27.78C46.6399 28.33 52.14 32.86 53.88 39.06C54.08 39.77 54.24 40.5 54.34 41.24C54.5 42.37 54.52 43.52 54.42 44.65C53.73 52.66 46.92 58.92 38.9 58.92V58.91Z" fill="#23261B"/>
<path d="M38.89 55.18C38.55 55.18 38.21 55.17 37.87 55.14C31.36 54.57 26.51 48.81 27.06 42.3C27.07 42.11 27.1 41.88 27.14 41.67C27.9 35.88 32.94 31.45 38.86 31.45C39.2 31.45 39.54 31.46 39.89 31.49C45.74 31.99 50.2999 36.59 50.7199 42.45C50.7699 43.08 50.76 43.72 50.71 44.34C50.18 50.42 44.99 55.18 38.89 55.18Z" fill="#FF5A3A"/>
<path d="M38.86 32.87C39.16 32.87 39.46 32.88 39.7701 32.91C44.9601 33.35 48.94 37.52 49.3 42.55C49.34 43.09 49.34 43.65 49.3 44.21C48.83 49.65 44.2701 53.76 38.9001 53.76C38.6001 53.76 38.3 53.75 38 53.72C32.25 53.22 28 48.17 28.49 42.42C28.5 42.26 28.52 42.09 28.55 41.93C29.23 36.74 33.68 32.87 38.87 32.87M38.86 30.03C32.25 30.03 26.62 34.95 25.72 41.49C25.68 41.72 25.65 41.96 25.63 42.21C25.03 49.49 30.45 55.92 37.73 56.56C38.11 56.59 38.5 56.61 38.88 56.61C45.71 56.61 51.52 51.27 52.11 44.46C52.17 43.77 52.18 43.06 52.12 42.34C51.65 35.79 46.55 30.63 39.99 30.08C39.61 30.05 39.23 30.03 38.85 30.03H38.86Z" fill="#23261B"/>
<g style="mix-blend-mode:overlay" opacity="0.44">
<path d="M28.48 42.42C28.49 42.26 28.51 42.09 28.54 41.93C34.93 43.34 41.9 43.76 49.3 42.55C49.34 43.09 49.34 43.65 49.3 44.21C48.8 49.95 43.75 54.21 38 53.72C32.25 53.22 28 48.17 28.49 42.42H28.48Z" fill="black"/>
<path d="M65.81 30.87C65.06 31.66 64.8 32.8 65.17 33.83C65.42 34.51 65.64 35.21 65.83 35.91C65.92 36.22 66.06 36.52 66.24 36.77C63.2 37.4 59.99 37.92 56.62 38.28C54.6 31.12 48.31 25.61 40.46 24.94C32.6 24.27 25.47 28.63 22.26 35.35C19.07 34.4 16.03 33.29 13.17 32.08C13.34 31.89 13.48 31.67 13.59 31.43C13.9 30.77 14.23 30.12 14.59 29.49C15.13 28.54 15.0699 27.37 14.4699 26.47L12.08 22.91C11.25 21.68 11.49 20.02 12.62 19.07L19.46 13.31C20.6 12.35 22.27 12.4 23.35 13.43L26.44 16.38C27.23 17.14 28.37 17.4 29.4 17.03C30.08 16.78 30.78 16.56 31.48 16.37C32.53 16.08 33.32 15.21 33.53 14.14L34.36 9.94002C34.64 8.48002 35.98 7.46999 37.46 7.59999L46.37 8.36C47.85 8.49 49 9.71003 49.03 11.2L49.13 15.47C49.15 16.56 49.78 17.56 50.76 18.02C51.43 18.33 52.08 18.67 52.71 19.03C53.66 19.56 54.83 19.51 55.73 18.9L59.28 16.51C60.52 15.68 62.17 15.92 63.13 17.05L68.89 23.89C69.85 25.03 69.79 26.7 68.77 27.78L65.81 30.87Z" fill="url(#paint0_linear_1_329)"/>
<path d="M74.6 41.89L73.83 50.8C73.71 52.28 72.49 53.43 71 53.46L66.72 53.56C65.63 53.58 64.64 54.21 64.18 55.2C63.87 55.86 63.53 56.51 63.17 57.14C62.63 58.09 62.69 59.26 63.3 60.16L65.68 63.71C66.51 64.95 66.28 66.61 65.14 67.56L58.3 73.32C57.17 74.28 55.49 74.23 54.42 73.2L51.33 70.24C50.54 69.49 49.39 69.23 48.37 69.6C47.68 69.85 46.99 70.07 46.28 70.26C45.23 70.55 44.44 71.42 44.23 72.49L43.41 76.69C43.12 78.15 41.79 79.16 40.31 79.03L31.4 78.26C29.92 78.14 28.77 76.92 28.74 75.43L28.64 71.15C28.61 70.06 27.99 69.07 27 68.61C26.34 68.3 25.69 67.96 25.06 67.6C24.11 67.06 22.94 67.12 22.03 67.73L18.48 70.12C17.25 70.94 15.59 70.71 14.63 69.57L8.87001 62.73C7.92001 61.6 7.97002 59.92 9.00002 58.85L11.95 55.76C12.71 54.97 12.96 53.83 12.59 52.8C12.35 52.12 12.13 51.42 11.93 50.71C11.65 49.66 10.77 48.87 9.70003 48.66L5.51003 47.84C4.05003 47.55 3.04 46.22 3.17 44.74L3.93001 35.83C4.06001 34.35 5.28003 33.2 6.76003 33.17L7.44002 33.15C11.37 35.58 15.86 37.88 20.81 39.68C20.67 40.35 20.57 41.04 20.51 41.74C19.64 51.89 27.16 60.82 37.31 61.69C47.45 62.56 56.39 55.04 57.26 44.89C57.38 43.52 57.34 42.16 57.16 40.85C60.62 39.93 63.94 38.82 67.09 37.58C67.38 37.76 67.71 37.89 68.06 37.96L72.26 38.79C73.72 39.07 74.72 40.41 74.6 41.89Z" fill="black"/>
</g>
<path d="M37.2 8.59003C37.26 8.59003 37.31 8.59003 37.37 8.59003L46.28 9.34998C47.26 9.43998 48.01 10.24 48.03 11.22L48.13 15.48C48.16 16.95 49.02 18.3 50.34 18.92C50.95 19.2 51.58 19.53 52.22 19.9C52.8 20.22 53.45 20.39 54.11 20.39C54.89 20.39 55.64 20.16 56.28 19.72L59.83 17.33C60.15 17.12 60.52 17 60.89 17C61.45 17 61.99 17.25 62.35 17.68L68.11 24.52C68.74 25.26 68.7 26.37 68.03 27.07L65.07 30.16C64.05 31.24 63.72 32.77 64.22 34.15C64.45 34.78 64.67 35.45 64.86 36.16C65.13 37.11 65.73 37.91 66.56 38.41C66.96 38.66 67.39 38.83 67.86 38.92L72.07 39.75C73.02 39.93 73.68 40.81 73.6 41.78L72.83 50.7C72.75 51.67 71.95 52.42 70.97 52.44L66.7 52.54C65.23 52.57 63.89 53.44 63.27 54.75C62.98 55.37 62.65 56 62.3 56.62C61.57 57.9 61.64 59.46 62.47 60.69L64.85 64.24C65.4 65.06 65.25 66.14 64.5 66.77L57.66 72.53C57.32 72.82 56.88 72.98 56.43 72.98C55.94 72.98 55.47 72.79 55.12 72.45L52.03 69.49C51.3 68.79 50.34 68.41 49.33 68.41C48.89 68.41 48.45 68.49 48.04 68.64C47.35 68.89 46.69 69.1 46.02 69.28C44.6 69.67 43.54 70.82 43.25 72.28L42.43 76.48C42.25 77.38 41.47 78.03 40.57 78.03C40.51 78.03 40.46 78.03 40.4 78.03L31.48 77.26C30.51 77.18 29.76 76.38 29.74 75.4L29.64 71.12C29.6 69.63 28.75 68.32 27.43 67.7C26.81 67.41 26.18 67.08 25.56 66.73C24.98 66.4 24.33 66.23 23.67 66.23C22.89 66.23 22.14 66.46 21.48 66.9L17.93 69.29C17.61 69.5 17.25 69.61 16.87 69.61C16.3 69.61 15.77 69.36 15.4 68.93L9.64003 62.09C9.01003 61.34 9.05 60.25 9.73 59.54L12.68 56.45C13.71 55.38 14.04 53.85 13.54 52.46C13.31 51.82 13.1 51.13 12.9 50.45C12.53 49.05 11.35 47.96 9.90004 47.68L5.71004 46.86C4.75004 46.67 4.09 45.8 4.17 44.83L4.93001 35.92C5.02001 34.94 5.81 34.19 6.79 34.17L7.46004 34.15L11.06 34.07C12.54 34.04 13.88 33.17 14.5 31.86C14.83 31.17 15.14 30.55 15.46 29.99C16.19 28.71 16.13 27.15 15.3 25.92L12.91 22.36C12.37 21.55 12.52 20.47 13.27 19.84L20.11 14.08C20.46 13.79 20.89 13.63 21.34 13.63C21.83 13.63 22.3 13.82 22.66 14.16L25.75 17.11C26.48 17.82 27.44 18.21 28.45 18.21C28.89 18.21 29.33 18.13 29.75 17.98C30.38 17.75 31.05 17.54 31.75 17.35C33.17 16.96 34.23 15.81 34.51 14.35L35.34 10.14C35.51 9.25001 36.29 8.59998 37.2 8.59998M38.9 62.76C48.9 62.76 57.4 54.95 58.25 44.98C58.37 43.56 58.34 42.13 58.15 40.72C56.96 31.77 49.56 24.72 40.54 23.94C39.98 23.89 39.42 23.87 38.86 23.87C29.63 23.87 21.63 30.44 19.83 39.47C19.68 40.17 19.58 40.91 19.51 41.65C19.07 46.83 20.66 51.86 24.01 55.83C27.35 59.8 32.05 62.23 37.22 62.68C37.78 62.73 38.34 62.75 38.9 62.75M37.2 7.59003C35.82 7.59003 34.62 8.57 34.36 9.94L33.53 14.14C33.32 15.21 32.53 16.08 31.48 16.37C30.78 16.56 30.08 16.78 29.4 17.03C29.09 17.14 28.77 17.2 28.45 17.2C27.72 17.2 26.99 16.91 26.44 16.38L23.35 13.43C22.79 12.89 22.06 12.62 21.34 12.62C20.67 12.62 20.01 12.85 19.46 13.31L12.62 19.07C11.49 20.02 11.25 21.68 12.08 22.91L14.47 26.47C15.07 27.37 15.13 28.54 14.59 29.49C14.23 30.12 13.9 30.77 13.59 31.43C13.13 32.42 12.13 33.05 11.04 33.07L7.44002 33.15L6.76003 33.17C5.28003 33.2 4.06001 34.35 3.93001 35.83L3.17 44.74C3.04 46.22 4.05003 47.55 5.51003 47.84L9.70003 48.66C10.77 48.87 11.65 49.66 11.93 50.71C12.13 51.42 12.35 52.12 12.59 52.8C12.96 53.83 12.71 54.97 11.95 55.76L9.00002 58.85C7.97002 59.92 7.92001 61.6 8.87001 62.73L14.63 69.57C15.2 70.25 16.03 70.61 16.86 70.61C17.42 70.61 17.98 70.45 18.48 70.12L22.03 67.73C22.52 67.4 23.09 67.23 23.66 67.23C24.14 67.23 24.62 67.35 25.06 67.6C25.69 67.96 26.34 68.3 27 68.61C27.99 69.07 28.61 70.06 28.64 71.15L28.74 75.43C28.77 76.92 29.92 78.14 31.4 78.26L40.31 79.03C40.4 79.03 40.48 79.04 40.57 79.04C41.95 79.04 43.14 78.06 43.41 76.69L44.23 72.49C44.44 71.42 45.23 70.55 46.28 70.26C46.99 70.07 47.68 69.85 48.37 69.6C48.68 69.49 49 69.43 49.32 69.43C50.05 69.43 50.78 69.71 51.33 70.24L54.42 73.2C54.98 73.74 55.7 74.01 56.43 74.01C57.1 74.01 57.76 73.78 58.3 73.32L65.14 67.56C66.28 66.61 66.51 64.95 65.68 63.71L63.3 60.16C62.69 59.26 62.63 58.09 63.17 57.14C63.53 56.51 63.87 55.86 64.18 55.2C64.64 54.21 65.63 53.58 66.72 53.56L71 53.46C72.49 53.43 73.71 52.28 73.83 50.8L74.6 41.89C74.72 40.41 73.72 39.07 72.26 38.79L68.06 37.96C67.71 37.89 67.38 37.76 67.09 37.58C66.48 37.21 66.03 36.62 65.83 35.91C65.64 35.21 65.42 34.51 65.17 33.83C64.8 32.8 65.06 31.66 65.81 30.87L68.77 27.78C69.79 26.7 69.85 25.03 68.89 23.89L63.13 17.05C62.56 16.37 61.73 16.02 60.9 16.02C60.34 16.02 59.78 16.18 59.28 16.51L55.73 18.9C55.24 19.23 54.68 19.4 54.11 19.4C53.63 19.4 53.14 19.28 52.71 19.03C52.08 18.67 51.43 18.33 50.76 18.02C49.78 17.56 49.15 16.56 49.13 15.47L49.03 11.2C49 9.71001 47.85 8.48999 46.37 8.35999L37.46 7.59998C37.37 7.59998 37.29 7.59003 37.2 7.59003ZM38.9 61.76C38.37 61.76 37.84 61.74 37.3 61.69C27.15 60.82 19.63 51.89 20.5 41.74C20.56 41.04 20.66 40.35 20.8 39.68C22.51 31.11 30.07 24.87 38.85 24.87C39.38 24.87 39.91 24.89 40.45 24.94C49.22 25.69 56.04 32.47 57.15 40.85C57.33 42.16 57.37 43.52 57.25 44.89C56.43 54.5 48.36 61.76 38.9 61.76Z" fill="#FF5A3A"/>
<path d="M38.86 34.87C39.1 34.87 39.35 34.88 39.6 34.9C43.7 35.25 47.01 38.6 47.3 42.7C47.33 43.15 47.33 43.6 47.3 44.04C46.92 48.37 43.23 51.76 38.89 51.76C38.65 51.76 38.4 51.75 38.16 51.73C33.52 51.33 30.07 47.23 30.47 42.55C30.47 42.47 30.48 42.38 30.5 42.3C30.5 42.26 30.51 42.23 30.52 42.19C31.07 38.02 34.65 34.87 38.86 34.87ZM38.86 32.87C33.66 32.87 29.22 36.74 28.54 41.93C28.51 42.09 28.49 42.26 28.48 42.42C27.99 48.17 32.24 53.22 37.99 53.72C38.29 53.75 38.59 53.76 38.89 53.76C44.26 53.76 48.82 49.65 49.29 44.21C49.34 43.65 49.34 43.09 49.29 42.55C48.93 37.52 44.95 33.35 39.76 32.91C39.46 32.88 39.15 32.87 38.85 32.87H38.86Z" fill="#FF5A3A"/>
<defs>
<linearGradient id="paint0_linear_1_329" x1="43.01" y1="6.16999" x2="37.52" y2="45.3601" gradientUnits="userSpaceOnUse">
<stop offset="0.06" stop-color="#FFF196"/>
<stop offset="0.12" stop-color="#FFF196" stop-opacity="0.96"/>
<stop offset="0.23" stop-color="#FFF196" stop-opacity="0.86"/>
<stop offset="0.36" stop-color="#FFF196" stop-opacity="0.69"/>
<stop offset="0.51" stop-color="#FFF196" stop-opacity="0.45"/>
<stop offset="0.69" stop-color="#FFF196" stop-opacity="0.16"/>
<stop offset="0.78" stop-color="#FFF196" stop-opacity="0"/>
</linearGradient>
</defs>
</svg>
