<svg width="105" height="105" viewBox="0 0 105 105" fill="none" xmlns="http://www.w3.org/2000/svg">
<path d="M13.52 103.35C12.97 103.35 12.47 103.03 12.23 102.53C12.02 102.09 12.06 101.58 12.31 101.18C11.31 101.44 10.28 101.56 9.20002 101.56C5.60002 101.56 2.86 100.09 2.74 100.03C2.37 99.83 2.09999 99.47 2.01999 99.05C1.93999 98.6301 2.05001 98.2 2.32001 97.87C2.41001 97.76 4.54002 95.08 4.23002 90.72C3.95002 86.79 4.69002 83.1801 6.48002 79.6801C6.68002 79.2601 6.92 78.82 7.18 78.38C8.35 76.39 9.87002 74.45 11.7 72.62C18.94 65.38 27.6 63.66 27.96 63.59C28.05 63.57 28.14 63.5601 28.23 63.5601C28.61 63.5601 28.98 63.71 29.25 63.99L41.36 76.48C41.62 76.75 41.77 77.12 41.76 77.49C41.76 77.78 41.54 84.57 33.08 92.76C30.59 95.17 27.98 97.23 25.31 98.87C18.87 102.85 14.12 103.31 13.6 103.35C13.56 103.35 13.53 103.35 13.49 103.35H13.52Z" fill="white"/>
<path d="M28.25 64.98L40.36 77.47C40.36 77.47 40.25 83.87 32.12 91.74C29.48 94.3 26.92 96.23 24.6 97.66C18.58 101.38 14.08 101.89 13.53 101.93C13.55 101.91 13.61 101.88 13.7 101.83C15.07 100.94 15.16 98.38 15.16 98.38C13.13 99.71 11.05 100.14 9.22 100.14C5.94 100.14 3.45001 98.78 3.45001 98.78C3.45001 98.78 6.03999 95.66 5.67999 90.62C5.50999 88.29 5.58999 84.6 7.76999 80.33C7.96999 79.92 8.18999 79.51 8.42999 79.11C9.45999 77.35 10.85 75.51 12.73 73.63C19.74 66.62 28.26 64.99 28.26 64.99M28.25 62.14C28.07 62.14 27.89 62.1599 27.71 62.1899C27.33 62.2599 18.25 64.07 10.71 71.61C8.78999 73.53 7.18999 75.56 5.95999 77.66C5.66999 78.16 5.42001 78.6201 5.20001 79.0601C3.30001 82.7901 2.52 86.6301 2.82 90.8101C3.08 94.5601 1.28999 96.88 1.20999 96.98C0.669988 97.63 0.459992 98.4799 0.619992 99.3199C0.779992 100.16 1.31999 100.86 2.05999 101.27C2.37999 101.44 5.30001 102.98 9.20001 102.98C9.75001 102.98 10.3 102.95 10.84 102.89C10.87 102.97 10.9 103.04 10.93 103.12C11.4 104.14 12.41 104.78 13.51 104.78C13.58 104.78 13.65 104.78 13.72 104.78C14.28 104.74 19.34 104.26 26.08 100.09C28.83 98.4 31.52 96.28 34.09 93.8C42.82 85.3601 43.19 78.31 43.2 77.54C43.21 76.78 42.92 76.05 42.4 75.51L30.29 63.02C29.75 62.46 29.01 62.16 28.25 62.16V62.14Z" fill="#23261B"/>
<path d="M32.11 91.74C29.47 94.3 26.91 96.23 24.59 97.66C18.57 101.38 14.07 101.89 13.52 101.93C13.54 101.91 13.6 101.88 13.69 101.83C16.02 100.55 39.05 87.35 29.17 77.27C22.07 70.04 12.9 75.88 7.76999 80.33C7.96999 79.92 8.18999 79.51 8.42999 79.11C9.45999 77.35 10.85 75.51 12.73 73.63C19.74 66.62 28.26 64.99 28.26 64.99L40.37 77.48C40.37 77.48 40.26 83.88 32.13 91.75L32.11 91.74Z" fill="#D4D4D4"/>
<path d="M27.87 66.27L39.14 77.9C38.94 79.42 37.78 84.62 31.3 90.9C28.94 93.18 26.48 95.12 23.98 96.66C20.69 98.69 17.9 99.72 16.02 100.24C16.28 99.35 16.32 98.57 16.32 98.41C16.34 97.97 16.11 97.56 15.72 97.35C15.54 97.25 15.34 97.2 15.15 97.2C14.93 97.2 14.7 97.26 14.51 97.39C12.93 98.43 11.15 98.96 9.20999 98.96C7.55999 98.96 6.11999 98.58 5.17999 98.24C5.99999 96.76 7.09 94.08 6.84 90.53C6.6 87.09 7.24001 83.92 8.82001 80.83C8.99001 80.48 9.19 80.1099 9.44 79.6899C10.5 77.8899 11.88 76.12 13.56 74.45C19.17 68.84 25.87 66.79 27.88 66.27M28.25 64.98C28.25 64.98 19.73 66.61 12.72 73.62C10.84 75.5 9.45001 77.34 8.42001 79.1C8.18001 79.51 7.96001 79.9099 7.76001 80.3199C5.58001 84.5899 5.50001 88.27 5.67001 90.61C6.03001 95.65 3.44 98.77 3.44 98.77C3.44 98.77 5.93999 100.13 9.20999 100.13C11.05 100.13 13.13 99.7 15.15 98.37C15.15 98.37 15.06 100.93 13.69 101.82C13.61 101.87 13.55 101.89 13.52 101.92C14.07 101.88 18.58 101.37 24.59 97.65C26.92 96.22 29.47 94.29 32.11 91.73C40.25 83.86 40.35 77.46 40.35 77.46L28.24 64.97L28.25 64.98Z" fill="white"/>
<path d="M13.49 101.94C15.05 101.18 15.15 98.38 15.15 98.38C9.50999 102.09 3.42999 98.78 3.42999 98.78C3.42999 98.78 6.02 95.66 5.66 90.62C5.48 88.07 5.59001 83.9 8.42001 79.11C8.16001 81.57 8.05999 84.9499 8.85999 87.8199C8.85999 87.8199 10.97 84.93 13.22 85.49C15.47 86.05 13.61 88.84 14.38 90.74C15.16 92.64 16.56 92.64 19.67 91.03C22.77 89.41 25.09 89.9 25.58 91.16C26.08 92.43 19.84 95.77 20.47 97.33C20.8 98.14 22.78 97.98 24.59 97.66C18.43 101.47 13.86 101.91 13.49 101.94Z" fill="#34362E"/>
<path d="M42.25 77.9301C41.88 77.9301 41.52 77.79 41.24 77.51L27.99 64.26C27.5 63.77 27.43 62.99 27.84 62.42C27.88 62.36 28.88 60.98 31.15 58.3C32.54 56.68 34.12 54.9201 35.84 53.0601C45.23 42.9501 62.71 26.16 92.62 3.57996C92.8 3.43996 93.01 3.30004 93.22 3.17004C94.26 2.55004 95.43 2.22998 96.63 2.22998C98.41 2.22998 100.07 2.92004 101.32 4.17004C102.46 5.31004 103.14 6.81004 103.25 8.42004C103.36 10.01 102.89 11.59 101.93 12.88C74.57 49.15 55.89 66.96 47.2 74.35C44.52 76.63 43.14 77.63 43.08 77.67C42.83 77.85 42.54 77.9399 42.25 77.9399V77.9301Z" fill="#FF5A3A"/>
<path d="M96.64 3.65002C97.98 3.65002 99.32 4.16004 100.33 5.17004C101.26 6.10004 101.76 7.28001 101.84 8.51001C101.92 9.73001 101.58 10.98 100.8 12.02C73.03 48.83 54.11 66.61 46.29 73.25C43.63 75.52 42.26 76.5 42.26 76.5L29.01 63.25C29.01 63.25 29.99 61.88 32.25 59.21C33.43 57.83 34.96 56.1 36.89 54.02C45.82 44.41 63.22 27.56 93.48 4.70996C93.64 4.58996 93.79 4.48 93.96 4.38C94.79 3.89 95.72 3.65002 96.64 3.65002ZM96.64 0.810059C95.19 0.810059 93.76 1.19994 92.51 1.93994C92.23 2.10994 91.99 2.27996 91.75 2.45996C61.77 25.09 44.24 41.94 34.81 52.09C33.08 53.96 31.49 55.73 30.09 57.37C27.77 60.11 26.74 61.54 26.7 61.59C25.88 62.72 26.01 64.28 27 65.27L40.25 78.52C40.8 79.07 41.53 79.35 42.26 79.35C42.84 79.35 43.42 79.1701 43.92 78.8101C43.98 78.7701 45.41 77.73 48.13 75.42C68.49 58.12 91.29 29.34 103.07 13.73C104.24 12.16 104.81 10.2399 104.68 8.31995C104.55 6.36995 103.72 4.54003 102.34 3.16003C100.82 1.64003 98.8 0.810059 96.64 0.810059Z" fill="#23261B"/>
<g style="mix-blend-mode:overlay" opacity="0.52">
<path d="M46.28 73.25C43.62 75.52 42.25 76.5 42.25 76.5L29 63.25C29 63.25 29.98 61.88 32.24 59.21C33.42 57.83 34.95 56.1001 36.88 54.0201C38.99 56.0301 41.9 57.5201 45.71 56.9201C55.23 55.4501 98.05 13.5301 99.18 6.77007C99.38 5.55007 95.15 4.82004 93.96 4.37004C96 3.16004 98.63 3.46008 100.32 5.16008C101.25 6.09008 101.75 7.27005 101.83 8.50005C101.91 9.72005 101.57 10.9701 100.79 12.0101C73.02 48.8201 54.1 66.6 46.28 73.24V73.25Z" fill="black"/>
</g>
<path d="M96.64 5.98999C97.41 5.98999 98.13 6.28995 98.67 6.81995C99.17 7.31995 99.46 7.95003 99.5 8.66003C99.55 9.36003 99.35 10.04 98.92 10.6C70.77 47.92 51.66 65.59 44.76 71.46C43.82 72.26 43.05 72.9 42.44 73.38L32.11 63.05C32.59 62.4501 33.23 61.67 34.02 60.73C35.37 59.15 36.91 57.43 38.6 55.61C47.89 45.61 65.2 28.99 94.89 6.57996C94.9 6.56996 94.92 6.56005 94.93 6.55005C95 6.49005 95.08 6.44002 95.15 6.40002C95.6 6.13002 96.11 5.98999 96.63 5.98999M96.64 3.65002C95.72 3.65002 94.79 3.89 93.96 4.38C93.79 4.48 93.64 4.58996 93.48 4.70996C63.21 27.56 45.82 44.41 36.89 54.02C34.96 56.1 33.43 57.83 32.25 59.21C29.99 61.88 29.01 63.25 29.01 63.25L42.26 76.5C42.26 76.5 43.63 75.52 46.29 73.25C54.11 66.6 73.03 48.83 100.8 12.02C101.58 10.98 101.93 9.74001 101.84 8.51001C101.76 7.29001 101.25 6.10004 100.33 5.17004C99.32 4.16004 97.99 3.65002 96.64 3.65002Z" fill="#FF5A3A"/>
<g style="mix-blend-mode:overlay">
<path d="M95.0817 11.1618C96.7649 9.47861 97.5152 7.50001 96.7576 6.7424C96 5.98478 94.0213 6.73503 92.3382 8.41819C90.655 10.1014 89.9047 12.08 90.6624 12.8377C91.42 13.5953 93.3986 12.8449 95.0817 11.1618Z" fill="white"/>
</g>
<path d="M42.26 77C42.13 77 42 76.95 41.91 76.85L28.66 63.6C28.49 63.43 28.46 63.15 28.61 62.96C28.65 62.9 29.63 61.54 31.88 58.89C31.97 58.78 32.1 58.72 32.24 58.71H32.26C32.39 58.71 32.52 58.76 32.61 58.86L46.65 72.9C46.75 73 46.8 73.13 46.8 73.27C46.8 73.41 46.73 73.54 46.63 73.63C43.98 75.89 42.62 76.87 42.57 76.91C42.48 76.97 42.38 77 42.28 77H42.26Z" fill="white"/>
<path d="M32.25 59.21L46.29 73.25C43.63 75.52 42.26 76.5 42.26 76.5L29.01 63.25C29.01 63.25 29.99 61.88 32.25 59.21ZM32.25 58.21C32.25 58.21 32.22 58.21 32.21 58.21C31.93 58.22 31.67 58.3501 31.49 58.5601C29.23 61.2301 28.24 62.61 28.2 62.66C27.92 63.06 27.96 63.6 28.31 63.95L41.56 77.2C41.75 77.39 42.01 77.49 42.27 77.49C42.47 77.49 42.68 77.43 42.85 77.3C42.91 77.26 44.29 76.27 46.95 74C47.16 73.82 47.29 73.56 47.3 73.28C47.31 73 47.21 72.73 47.01 72.53L32.97 58.49C32.78 58.3 32.53 58.2 32.26 58.2L32.25 58.21Z" fill="#23261B"/>
<path d="M46.29 73.25C43.63 75.52 42.26 76.5 42.26 76.5L35.43 69.67C36.66 68.36 37.65 66.88 38.44 65.4L46.29 73.25Z" fill="#D4D4D4"/>
</svg>
