<svg width="114" height="102" viewBox="0 0 114 102" fill="none" xmlns="http://www.w3.org/2000/svg">
<path d="M22.11 94.86C21.73 94.86 21.37 94.69 21.13 94.38C20.85 94.02 20.7899 93.54 20.9699 93.12C21.4299 92.07 21.84 90.93 22.07 90.1C21.04 90.52 19.56 91.21 18.37 91.77C14.34 93.64 11.79 94.78 10.44 94.78C9.68998 94.78 9.27997 94.45 9.05997 94.17C8.03997 92.86 9.30997 91.03 12.25 87.02C12.39 86.83 12.54 86.62 12.7 86.41C12.24 86.69 11.7999 86.98 11.4099 87.23C7.91995 89.44 6.39999 90.34 5.38999 90.34C5.08999 90.34 4.81999 90.27 4.57999 90.12C4.01999 89.78 3.66999 89.13 3.51999 88.2C3.10999 85.64 4.21995 81.28 7.59995 77.33C8.79995 75.93 9.83994 74.9 10.7199 74.15C8.95994 74.45 6.56996 75.2 3.85996 77C3.64996 77.14 3.40996 77.21 3.16996 77.21C2.99996 77.21 2.82996 77.17 2.66996 77.1C2.27996 76.93 2.00999 76.57 1.94999 76.15C1.91999 75.95 1.25995 71.09 6.84995 66.85C11.87 63.05 18.33 62.25 22.87 62.25C27.16 62.25 30.31 62.94 30.44 62.96C30.66 63.01 30.86 63.11 31.02 63.27L37.43 69.28C37.76 69.59 37.8899 70.04 37.79 70.48C37.56 71.4 32.14 93.17 22.3 94.85C22.23 94.86 22.16 94.87 22.09 94.87L22.11 94.86Z" fill="#FF5A3A"/>
<path d="M22.89 63.49C27.09 63.49 30.19 64.18 30.19 64.18L36.6 70.19C36.6 70.19 31.26 92.07 22.11 93.63C22.11 93.63 24.07 89.17 23.37 88.52C23.34 88.49 23.28 88.48 23.2 88.48C21.74 88.48 12.58 93.55 10.44 93.55C10.25 93.55 10.11 93.51 10.04 93.42C9.16996 92.29 16.08 84.73 15.83 83.61C15.81 83.53 15.75 83.49 15.64 83.49C14.33 83.49 6.83999 89.11 5.37999 89.11C5.30999 89.11 5.25996 89.1 5.21996 89.07C4.22996 88.46 4.20001 83.21 8.53001 78.14C12.87 73.07 14.84 73.27 14.87 73.06C14.88 72.98 14.09 72.73 12.72 72.73C10.62 72.73 7.15997 73.31 3.16997 75.96C3.16997 75.96 2.51996 71.67 7.59996 67.83C12.24 64.31 18.23 63.48 22.87 63.48M22.89 61.01C18.17 61.01 11.42 61.85 6.11998 65.86C-0.0500202 70.54 0.709975 76.1 0.739975 76.33C0.869975 77.17 1.40999 77.88 2.18999 78.22C2.50999 78.36 2.84999 78.43 3.18999 78.43C3.66999 78.43 4.14998 78.29 4.55998 78.02C5.14998 77.63 5.72 77.29 6.27 77C2.94 81.13 1.86998 85.65 2.30998 88.39C2.56998 90.02 3.35 90.8 3.95 91.17C4.38 91.43 4.88001 91.57 5.40001 91.57C6.19001 91.57 7.01996 91.28 8.34996 90.54C7.36996 92.29 7.12996 93.66 8.09996 94.91C8.41996 95.32 9.14 96 10.45 96C12 96 14.32 95 18.9 92.88C19.23 92.73 19.58 92.56 19.94 92.4C19.91 92.47 19.88 92.54 19.85 92.62C19.48 93.45 19.61 94.42 20.17 95.14C20.64 95.75 21.37 96.09 22.12 96.09C22.26 96.09 22.4 96.08 22.54 96.05C27.21 95.26 31.43 90.63 35.07 82.3C37.61 76.5 38.96 70.99 39.02 70.76C39.23 69.89 38.96 68.98 38.31 68.37L31.9 62.36C31.58 62.06 31.18 61.84 30.74 61.75C30.6 61.72 27.33 61.01 22.9 61.01H22.89Z" fill="#23261B"/>
<path d="M26.6 66.44C26.6 66.44 19.15 64.87 14.6 66.95C10.05 69.03 13.92 69.46 16.51 69.55C19.1 69.64 20.21 69.17 13.49 75.64C6.76998 82.11 9.06 83.1301 14.13 80.2801C19.2 77.4301 19.66 80.83 16.85 85.43C14.04 90.03 18.3 89 21.79 85.22C25.28 81.43 25.49 84.24 24.98 86.54C24.47 88.84 29.28 86.45 30.98 81.01C32.68 75.56 28.68 68.3301 26.6 66.4601V66.44Z" fill="#FFAE25"/>
<path d="M63.89 99.72C63.76 99.72 63.62 99.7 63.49 99.66C63 99.51 62.64 99.11 62.53 98.61L58.18 77.19C58.08 76.65 58.31 76.09 58.77 75.78L73.22 66.03C73.45 65.87 73.72 65.79 74 65.79C74.23 65.79 74.4601 65.85 74.6701 65.96C75.1301 66.21 75.4 66.69 75.39 67.21C75.37 67.81 75.0201 82.02 74.5401 85.5C74.0401 89.01 67.08 96.9 64.96 99.23C64.94 99.25 64.9 99.29 64.88 99.31C64.62 99.57 64.26 99.71 63.9 99.71L63.89 99.72Z" fill="white"/>
<path d="M73.99 67.19C73.99 67.19 73.63 81.88 73.15 85.32C72.68 88.65 64.43 97.75 63.92 98.31C63.9 98.33 63.89 98.34 63.89 98.34L59.58 77.15L59.54 76.94L73.99 67.19ZM73.99 64.41C73.45 64.41 72.8999 64.57 72.4399 64.88L57.99 74.63C57.07 75.25 56.61 76.36 56.82 77.45L56.86 77.66L61.18 98.88C61.38 99.88 62.12 100.69 63.1 100.98C63.36 101.06 63.63 101.1 63.9 101.1C64.63 101.1 65.33 100.82 65.86 100.29C65.89 100.26 65.95 100.2 65.98 100.17C69.46 96.34 75.39 89.38 75.91 85.7C76.41 82.14 76.76 67.86 76.78 67.25C76.81 66.21 76.2499 65.25 75.3399 64.75C74.9199 64.52 74.46 64.41 74.01 64.41H73.99Z" fill="#23261B"/>
<path d="M70.9399 70.22C70.9399 70.22 70.86 83.59 70.47 86.65C70.1 89.6 64.32 97.74 63.92 98.31C63.9 98.33 63.89 98.34 63.89 98.34L59.58 77.15L70.9399 70.22Z" fill="#D4D4D4"/>
<path d="M30.66 43.15C30.48 43.15 30.3 43.11 30.12 43.04L9.99 34.6C9.51 34.4 9.18002 33.94 9.14002 33.42C9.10002 32.9 9.36 32.4 9.8 32.13C10.94 31.44 21.03 25.38 24.93 25.38C25.01 25.38 25.09 25.38 25.17 25.38C28.68 25.57 42.68 28 43.28 28.11C43.79 28.2 44.21 28.57 44.37 29.06C44.53 29.56 44.39 30.1 44.02 30.46L31.63 42.73C31.37 42.99 31.01 43.13 30.65 43.13L30.66 43.15Z" fill="white"/>
<path d="M24.94 26.77C24.99 26.77 25.05 26.77 25.1 26.77C28.57 26.96 43.05 29.48 43.05 29.48L41.28 31.23L30.66 41.75L10.53 33.31C10.53 33.31 21.32 26.77 24.94 26.77ZM24.94 24C20.85 24 11.77 29.32 9.09004 30.95C8.20004 31.49 7.68002 32.49 7.76002 33.53C7.84002 34.57 8.49002 35.48 9.45002 35.88L29.58 44.32C29.93 44.47 30.29 44.54 30.65 44.54C31.37 44.54 32.07 44.26 32.6 43.74L43.22 33.22L44.99 31.47C45.73 30.74 46 29.66 45.69 28.67C45.38 27.68 44.54 26.94 43.52 26.77C42.92 26.67 28.84 24.22 25.25 24.02C25.16 24.02 25.05 24.02 24.94 24.02V24Z" fill="#23261B"/>
<path d="M41.28 31.24L30.66 41.76L10.53 33.32C10.53 33.32 21.45 28.14 25.88 28.65C28.48 28.95 35.75 30.24 41.28 31.24Z" fill="#D4D4D4"/>
<path d="M40.04 83.18C37.5 83.18 35.12 82.06 33.51 80.09L29.04 74.64L21.73 65.74C21.42 65.36 21.14 64.95 20.88 64.52C18.89 60.93 19.74 56.45 22.9 53.85L26.19 51.16C26.87 50.6 27.74 50.28 28.64 50.28C29.8 50.28 30.89 50.79 31.62 51.69L41.71 63.99L49.21 73.12C50.56 74.77 50.33 77.21 48.68 78.56L45.39 81.25C43.89 82.49 41.99 83.17 40.04 83.17V83.18Z" fill="white"/>
<path d="M28.64 51.67C29.35 51.67 30.06 51.98 30.55 52.58L31.74 54.03L40.64 64.88L48.14 74.01C49.01 75.07 48.86 76.63 47.8 77.5L44.51 80.19C43.2 81.27 41.61 81.8 40.03 81.8C37.99 81.8 35.97 80.92 34.58 79.22L30.11 73.77L22.8 64.87C22.53 64.54 22.29 64.19 22.08 63.83C20.46 60.91 21.1 57.14 23.78 54.93L27.07 52.24C27.53 51.86 28.08 51.67 28.64 51.67ZM28.64 48.9C27.42 48.9 26.24 49.33 25.3 50.1L22.02 52.78C18.34 55.81 17.35 61.02 19.65 65.17V65.2L19.68 65.23C19.97 65.73 20.3 66.2 20.65 66.63L27.96 75.53L32.43 80.98C34.3 83.26 37.07 84.57 40.03 84.57C42.3 84.57 44.52 83.77 46.27 82.33L49.55 79.65C51.79 77.81 52.12 74.49 50.28 72.25L42.78 63.12L33.88 52.27L32.69 50.82C31.69 49.6 30.21 48.9 28.63 48.9H28.64Z" fill="#23261B"/>
<path d="M31.75 54.03C27.03 57.09 23.87 60.58 22.09 63.83C20.47 60.91 21.11 57.14 23.79 54.93L27.08 52.24C28.13 51.37 29.69 51.52 30.56 52.58L31.75 54.03Z" fill="#D4D4D4"/>
<path d="M47.81 77.5L44.52 80.19C41.51 82.67 37.06 82.23 34.59 79.22L30.12 73.77C33.65 71.84 37.46 68.3 40.65 64.88L48.15 74.01C49.02 75.07 48.87 76.63 47.81 77.5Z" fill="#D4D4D4"/>
<path d="M28.64 52.67C29.08 52.67 29.5 52.87 29.78 53.21L30.97 54.66L39.87 65.51L47.37 74.64C47.89 75.27 47.8 76.21 47.17 76.72L43.88 79.41C42.8 80.3 41.44 80.79 40.04 80.79C38.22 80.79 36.51 79.98 35.36 78.58L30.89 73.13L23.58 64.23C23.35 63.95 23.14 63.64 22.96 63.34C21.54 60.78 22.15 57.57 24.42 55.7L27.71 53.01C27.97 52.79 28.3 52.67 28.64 52.67ZM28.64 51.67C28.09 51.67 27.53 51.86 27.07 52.24L23.78 54.93C21.1 57.14 20.46 60.91 22.08 63.83C22.29 64.19 22.53 64.54 22.8 64.87L30.11 73.77L34.58 79.22C35.97 80.92 38 81.8 40.03 81.8C41.61 81.8 43.19 81.27 44.51 80.19L47.8 77.5C48.86 76.63 49.01 75.07 48.14 74.01L40.64 64.88L31.74 54.03L30.55 52.58C30.06 51.98 29.35 51.67 28.64 51.67Z" fill="white"/>
<path d="M55.39 85.33C52.69 85.33 50.17 84.14 48.46 82.05L23.48 51.63C20.53 48.02 20.85 42.69 24.2 39.48C29.82 34.08 40.92 23.8 52.03 15.71C59.36 10.37 65.6 6.77002 70.6 5.02002C73.58 3.97002 76.79 3.16 80.15 2.62C83.65 2.06 87.35 1.77002 91.15 1.77002C95.38 1.77002 99.71 2.11999 104.02 2.79999C108.79 3.52999 112.26 7.74002 112.07 12.58C111.84 18.53 110.83 27.51 107.39 36.5C106.24 39.51 104.89 42.34 103.36 44.91C101.29 48.41 98.01 52.42 93.63 56.83C83.1 67.44 68.38 78.22 60.53 83.7C59.01 84.76 57.24 85.32 55.39 85.32V85.33Z" fill="#FF5A3A"/>
<path d="M91.1601 3.15997C96.0701 3.15997 100.45 3.63998 103.81 4.16998C107.9 4.79998 110.85 8.39003 110.69 12.53C110.46 18.38 109.48 27.19 106.1 36.01C105.05 38.77 103.76 41.54 102.17 44.21C100.01 47.86 96.64 51.85 92.65 55.86C82.26 66.33 67.71 77 59.74 82.57C58.42 83.49 56.9001 83.94 55.4001 83.94C53.2001 83.94 51.03 82.99 49.54 81.17L24.56 50.75C22.06 47.69 22.32 43.21 25.17 40.48C31.26 34.63 42.08 24.68 52.86 16.83C59.28 12.15 65.68 8.22002 71.07 6.33002C74.17 5.24002 77.3 4.48999 80.38 3.98999C84.11 3.38999 87.7601 3.15997 91.1601 3.15997ZM91.1601 0.380005C87.2801 0.380005 83.51 0.67 79.94 1.25C76.5 1.81 73.2101 2.64002 70.1501 3.71002C65.0301 5.51002 58.66 9.16003 51.23 14.59C40.06 22.73 28.91 33.05 23.25 38.48C19.38 42.18 19.01 48.35 22.41 52.51L47.39 82.94C49.36 85.34 52.28 86.72 55.39 86.72C57.52 86.72 59.57 86.07 61.32 84.85C69.2 79.34 84.01 68.51 94.61 57.82C99.07 53.34 102.41 49.24 104.55 45.63C106.12 43 107.51 40.09 108.69 37C112.2 27.84 113.22 18.7 113.46 12.64C113.67 7.09001 109.71 2.26999 104.23 1.42999C99.86 0.739993 95.4601 0.390015 91.1601 0.390015V0.380005Z" fill="#23261B"/>
<g style="mix-blend-mode:overlay" opacity="0.44">
<path d="M92.65 55.86C82.26 66.33 67.71 77 59.74 82.57C56.49 84.84 52.0499 84.23 49.5399 81.17L24.56 50.75C22.06 47.69 22.32 43.21 25.17 40.48C31.26 34.63 42.08 24.68 52.86 16.83C47.35 28.01 44.3299 43.15 59.5399 53.54C69.8199 60.57 81.79 59.66 92.65 55.86Z" fill="black"/>
</g>
<path d="M91.16 3.15997V5.15997C95.21 5.15997 99.36 5.49002 103.51 6.15002C106.59 6.62002 108.82 9.33001 108.7 12.45C108.48 18.15 107.52 26.73 104.24 35.3C103.16 38.13 101.89 40.79 100.46 43.19C98.5299 46.46 95.43 50.24 91.24 54.45C80.9 64.87 66.3499 75.51 58.5999 80.93C57.6499 81.59 56.55 81.94 55.4 81.94C53.72 81.94 52.15 81.2 51.09 79.9L26.11 49.48C24.28 47.24 24.47 43.91 26.56 41.92C32.13 36.57 43.0999 26.41 54.0399 18.44C61.0999 13.29 67.05 9.85002 71.74 8.21002C74.53 7.23002 77.5499 6.47002 80.6999 5.96002C84.0199 5.43002 87.54 5.15002 91.16 5.15002V3.15002M91.16 3.15997C87.76 3.15997 84.11 3.38999 80.38 3.98999C77.3 4.48999 74.1699 5.24002 71.0699 6.33002C65.6799 8.22002 59.28 12.15 52.86 16.83C42.08 24.68 31.26 34.63 25.17 40.48C22.32 43.21 22.06 47.69 24.56 50.75L49.5399 81.17C51.0299 82.99 53.2 83.94 55.4 83.94C56.9 83.94 58.42 83.49 59.74 82.57C67.71 77 82.26 66.33 92.65 55.86C96.64 51.85 100.01 47.86 102.17 44.21C103.76 41.54 105.05 38.77 106.1 36.01C109.48 27.19 110.46 18.38 110.69 12.53C110.85 8.39003 107.9 4.79998 103.81 4.16998C100.45 3.63998 96.07 3.15997 91.16 3.15997Z" fill="#FF5A3A"/>
<path d="M61.24 65.56C60.28 65.56 59.31 65.49 58.36 65.35C53.23 64.59 48.71 61.87 45.62 57.71C42.53 53.54 41.25 48.43 42.02 43.3C43.42 33.86 51.67 26.75 61.19 26.75C62.15 26.75 63.12 26.82 64.07 26.96C69.2 27.72 73.7201 30.44 76.8101 34.6C79.9001 38.76 81.1801 43.88 80.4101 49.01C79.0101 58.45 70.76 65.56 61.24 65.56Z" fill="white"/>
<path d="M61.2 27.71C62.1 27.71 63.02 27.78 63.94 27.91C74.01 29.41 80.9599 38.78 79.4599 48.85C78.0999 58 70.23 64.57 61.25 64.57C60.35 64.57 59.43 64.5 58.51 64.37C48.44 62.87 41.49 53.5 42.99 43.43C44.35 34.28 52.22 27.71 61.2 27.71ZM61.2 25.76C51.19 25.76 42.54 33.23 41.06 43.15C39.41 54.27 47.0999 64.66 58.2199 66.31C59.2199 66.46 60.24 66.53 61.24 66.53C71.25 66.53 79.9 59.06 81.38 49.14C83.03 38.02 75.3399 27.63 64.2199 25.98C63.2199 25.83 62.2 25.76 61.2 25.76Z" fill="#23261B"/>
<path d="M61.24 60.7C60.52 60.7 59.8 60.65 59.08 60.54C51.14 59.36 45.64 51.94 46.83 44C47.88 36.92 54.07 31.58 61.21 31.58C61.93 31.58 62.65 31.63 63.37 31.74C71.31 32.92 76.81 40.34 75.62 48.28C74.57 55.36 68.38 60.7 61.24 60.7Z" fill="#23261B"/>
<path d="M61.2 32.32C61.88 32.32 62.56 32.37 63.25 32.47C70.8 33.59 76.01 40.63 74.89 48.18C73.87 55.04 67.97 59.97 61.23 59.97C60.55 59.97 59.87 59.92 59.18 59.82C51.63 58.7 46.42 51.66 47.54 44.11C48.56 37.25 54.46 32.32 61.2 32.32ZM61.2 30.86C53.7 30.86 47.2 36.47 46.1 43.9C44.86 52.24 50.63 60.03 58.97 61.27C59.72 61.38 60.48 61.44 61.24 61.44C68.74 61.44 75.24 55.83 76.34 48.4C77.58 40.06 71.81 32.27 63.47 31.03C62.72 30.92 61.96 30.86 61.2 30.86Z" fill="white"/>
<path d="M105.88 37.38C97.32 36.03 89.9 31.64 85 25.01C80.54 18.99 78.46 11.69 78.99 3.89001L79.07 2.78998L80.1601 2.62C80.5501 2.56 80.94 2.50001 81.32 2.45001C83.64 2.11001 86.0701 1.90002 88.5301 1.83002C89.4201 1.80002 90.3101 1.78003 91.1701 1.78003C95.3901 1.78003 99.71 2.11999 104.01 2.79999C108.79 3.53999 112.25 7.74003 112.06 12.59C112.04 13.25 112 13.98 111.95 14.73C111.66 19.14 111.04 23.45 110.11 27.52C109.38 30.67 108.46 33.7 107.38 36.52L106.98 37.57L105.87 37.4L105.88 37.38Z" fill="white"/>
<path d="M91.18 3.15997C96.08 3.15997 100.46 3.63998 103.81 4.16998C107.9 4.79998 110.85 8.39003 110.69 12.53C110.67 13.19 110.63 13.9 110.58 14.63C110.35 18.19 109.84 22.55 108.77 27.2C108.11 30.06 107.24 33.04 106.1 36.01C98.18 34.76 90.99 30.77 86.12 24.19C81.72 18.26 79.89 11.15 80.38 3.98999C80.76 3.92999 81.14 3.87001 81.51 3.82001C83.93 3.47001 86.2999 3.28002 88.5799 3.21002C89.4599 3.18002 90.33 3.15997 91.18 3.15997ZM91.18 0.390015C90.28 0.390015 89.37 0.410002 88.48 0.440002C85.99 0.520002 83.5 0.730017 81.11 1.08002C80.75 1.13002 80.3499 1.19001 79.9399 1.26001L77.76 1.59998L77.61 3.81C77.05 11.94 79.22 19.57 83.89 25.85C89.01 32.76 96.74 37.35 105.67 38.76L107.89 39.11L108.69 37.01C109.8 34.13 110.73 31.04 111.47 27.83C112.42 23.68 113.06 19.3 113.35 14.81C113.41 13.97 113.45 13.25 113.46 12.62C113.67 7.1 109.71 2.27999 104.23 1.42999C99.87 0.739993 95.47 0.390015 91.18 0.390015Z" fill="#23261B"/>
<path d="M108.77 27.2C108.11 30.06 107.24 33.04 106.1 36.01C98.18 34.76 90.9901 30.77 86.1201 24.19C81.7201 18.26 79.8901 11.15 80.3801 3.98999C80.7601 3.92999 81.1401 3.87001 81.5101 3.82001C83.9301 3.47001 86.3 3.28002 88.58 3.21002C87.51 7.16002 87.1001 13.31 91.6401 19.46C96.0901 25.47 103.44 26.98 108.77 27.2Z" fill="#D4D4D4"/>
<path d="M91.1501 3.15997V4.15997C95.2501 4.15997 99.4601 4.49997 103.65 5.15997C107.23 5.70997 109.82 8.86 109.68 12.5C109.66 13.08 109.63 13.76 109.57 14.57C109.24 19.65 108.26 27.23 105.44 34.89C97.84 33.5 91.2801 29.51 86.9101 23.6C82.9401 18.25 81.01 11.78 81.32 4.85999C81.43 4.83999 81.5301 4.83001 81.6401 4.82001C84.6701 4.39001 87.8701 4.16998 91.1401 4.16998V3.16998M91.1501 3.15997C88.1001 3.15997 84.8401 3.35001 81.5101 3.82001C81.1401 3.87001 80.7601 3.92999 80.3801 3.98999C79.8901 11.15 81.7201 18.26 86.1201 24.19C90.9901 30.77 98.18 34.76 106.1 36.01C109.1 28.19 110.21 20.38 110.58 14.63C110.63 13.9 110.67 13.19 110.69 12.53C110.85 8.39003 107.9 4.79998 103.81 4.16998C100.46 3.63998 96.0701 3.15997 91.1501 3.15997Z" fill="white"/>
</svg>
