<svg width="77" height="20" viewBox="0 0 77 20" fill="none" xmlns="http://www.w3.org/2000/svg">
<path d="M72.09 0.839966H62.51C60.3451 0.839966 58.59 2.59499 58.59 4.75995V14.34C58.59 16.5049 60.3451 18.2599 62.51 18.2599H72.09C74.255 18.2599 76.01 16.5049 76.01 14.34V4.75995C76.01 2.59499 74.255 0.839966 72.09 0.839966Z" fill="#FD9E4E"/>
<path d="M72.1 1.66998C73.8 1.66998 75.18 3.05 75.18 4.75V14.34C75.18 16.04 73.8 17.42 72.1 17.42H62.51C60.81 17.42 59.43 16.04 59.43 14.34V4.75C59.43 3.05 60.81 1.66998 62.51 1.66998H72.1ZM72.1 0H62.51C59.89 0 57.76 2.13 57.76 4.75V14.34C57.76 16.96 59.89 19.09 62.51 19.09H72.1C74.72 19.09 76.85 16.96 76.85 14.34V4.75C76.85 2.13 74.72 0 72.1 0Z" fill="#23261B"/>
<path d="M43.22 0.839966H33.64C31.4751 0.839966 29.72 2.59499 29.72 4.75995V14.34C29.72 16.5049 31.4751 18.2599 33.64 18.2599H43.22C45.3849 18.2599 47.14 16.5049 47.14 14.34V4.75995C47.14 2.59499 45.3849 0.839966 43.22 0.839966Z" fill="#F2FC8C"/>
<path d="M43.22 1.66998C44.92 1.66998 46.3 3.05 46.3 4.75V14.34C46.3 16.04 44.92 17.42 43.22 17.42H33.63C31.93 17.42 30.55 16.04 30.55 14.34V4.75C30.55 3.05 31.93 1.66998 33.63 1.66998H43.22ZM43.22 0H33.63C31.01 0 28.88 2.13 28.88 4.75V14.34C28.88 16.96 31.01 19.09 33.63 19.09H43.22C45.84 19.09 47.97 16.96 47.97 14.34V4.75C47.97 2.13 45.84 0 43.22 0Z" fill="#23261B"/>
<path d="M14.34 0.839966H4.76001C2.59505 0.839966 0.840027 2.59499 0.840027 4.75995V14.34C0.840027 16.5049 2.59505 18.2599 4.76001 18.2599H14.34C16.505 18.2599 18.26 16.5049 18.26 14.34V4.75995C18.26 2.59499 16.505 0.839966 14.34 0.839966Z" fill="#61C5CB"/>
<path d="M14.34 1.66998C16.04 1.66998 17.42 3.05 17.42 4.75V14.34C17.42 16.04 16.04 17.42 14.34 17.42H4.75C3.05 17.42 1.66998 16.04 1.66998 14.34V4.75C1.66998 3.05 3.05 1.66998 4.75 1.66998H14.34ZM14.34 0H4.75C2.13 0 0 2.13 0 4.75V14.34C0 16.96 2.13 19.09 4.75 19.09H14.34C16.96 19.09 19.09 16.96 19.09 14.34V4.75C19.09 2.13 16.96 0 14.34 0Z" fill="#23261B"/>
</svg>
