<svg width="79" height="116" viewBox="0 0 79 116" fill="none" xmlns="http://www.w3.org/2000/svg">
<path d="M39.14 73.23C28.09 73.23 19.11 64.24 19.11 53.2V21.59C19.11 10.55 28.1 1.56995 39.14 1.56995C44.5 1.56995 49.52 3.64994 53.3 7.43994C57.08 11.2199 59.16 16.25 59.16 21.6V53.21C59.16 64.26 50.18 73.24 39.14 73.24V73.23Z" fill="white"/>
<path d="M39.14 2.98999C44.27 2.98999 48.93 5.06994 52.29 8.43994C55.66 11.8099 57.74 16.45 57.74 21.59V53.2C57.74 63.49 49.42 71.8101 39.14 71.8101C28.86 71.8101 20.53 63.49 20.53 53.2V21.59C20.53 11.32 28.86 2.98999 39.14 2.98999ZM39.14 0.140015C27.31 0.140015 17.69 9.75996 17.69 21.58V53.1899C17.69 65.0199 27.31 74.64 39.14 74.64C50.97 74.64 60.58 65.0199 60.58 53.1899V21.58C60.58 15.85 58.35 10.47 54.3 6.42004C50.26 2.37004 44.88 0.140015 39.14 0.140015Z" fill="#23261B"/>
<path d="M57.74 24.15V53.2C57.74 63.49 49.42 71.8101 39.14 71.8101C28.86 71.8101 20.53 63.49 20.53 53.2V25.16C26.51 27.63 34.29 29.1 44.11 27.76C49.03 27.09 53.58 25.81 57.74 24.15Z" fill="#D4D4D4"/>
<path d="M57.74 36.8101V53.2C57.74 63.4799 49.41 71.8101 39.14 71.8101C28.87 71.8101 20.53 63.4799 20.53 53.2V36.8101H57.74Z" fill="#23261B"/>
<path d="M39.14 4.98999C43.58 4.98999 47.75 6.71999 50.88 9.85999C54.02 13 55.75 17.17 55.75 21.6V53.21C55.75 62.37 48.3 69.8199 39.15 69.8199C30 69.8199 22.54 62.37 22.54 53.21V21.6C22.54 12.45 29.99 5 39.15 5M39.14 2.98999C28.86 2.98999 20.53 11.32 20.53 21.59V53.2C20.53 63.4799 28.86 71.8101 39.14 71.8101C49.42 71.8101 57.74 63.4799 57.74 53.2V21.59C57.74 16.45 55.65 11.8099 52.29 8.43994C48.93 5.06994 44.27 2.98999 39.14 2.98999Z" fill="white"/>
<path d="M34.71 107.73C33.92 107.73 33.29 107.09 33.29 106.31V94.89C15.17 92.04 1.64999 76.34 1.64999 57.86C1.64999 55.33 3.45 53.15 5.94 52.66C6.24 52.6 6.58001 52.5601 6.95001 52.5601C9.87001 52.5601 12.24 54.94 12.24 57.85C12.24 72.68 24.31 84.75 39.14 84.75C53.97 84.75 66.03 72.68 66.03 57.85C66.03 54.93 68.41 52.5601 71.33 52.5601C71.7 52.5601 72.03 52.59 72.35 52.66C74.81 53.11 76.63 55.3 76.63 57.85C76.63 76.33 63.11 92.03 44.99 94.88V106.3C44.99 107.09 44.35 107.72 43.57 107.72H34.72L34.71 107.73Z" fill="#FF5A3A"/>
<path d="M71.33 53.99C71.57 53.99 71.81 54.0101 72.04 54.0601C73.84 54.3901 75.2 55.96 75.2 57.86C75.2 76.25 61.37 91.46 43.56 93.65V106.31H34.71V93.65C16.91 91.46 3.07001 76.25 3.07001 57.86C3.07001 55.97 4.41999 54.4101 6.20999 54.0601C6.44999 54.0101 6.70001 53.99 6.95001 53.99C9.09001 53.99 10.82 55.72 10.82 57.86C10.82 73.48 23.52 86.1801 39.14 86.1801C54.76 86.1801 67.45 73.48 67.45 57.86C67.45 55.72 69.19 53.99 71.33 53.99ZM71.33 51.14C67.62 51.14 64.6 54.15 64.6 57.85C64.6 71.9 53.18 83.3199 39.14 83.3199C25.1 83.3199 13.66 71.89 13.66 57.85C13.66 54.15 10.65 51.14 6.95001 51.14C6.49001 51.14 6.04 51.18 5.63 51.27C2.51 51.88 0.230011 54.65 0.230011 57.85C0.230011 76.62 13.66 92.6299 31.87 96.0699V106.3C31.87 107.87 33.14 109.14 34.72 109.14H43.57C45.14 109.14 46.42 107.87 46.42 106.3V96.0699C64.63 92.6199 78.06 76.62 78.06 57.85C78.06 54.63 75.77 51.86 72.61 51.26C72.21 51.18 71.79 51.14 71.34 51.14H71.33Z" fill="#23261B"/>
<g style="mix-blend-mode:overlay" opacity="0.57">
<path d="M75.2 57.86C75.2 76.25 61.37 91.46 43.56 93.65V106.31H34.71V93.65C16.91 91.46 3.07001 76.25 3.07001 57.86C3.07001 55.97 4.41999 54.4101 6.20999 54.0601C6.13999 61.6301 8.92 86.78 37.22 89.12C66.93 91.58 71.77 61.7201 72.04 54.0601C73.84 54.3901 75.2 55.96 75.2 57.86Z" fill="black"/>
</g>
<path d="M71.33 54.74C71.53 54.74 71.72 54.76 71.9 54.8C73.37 55.07 74.45 56.36 74.45 57.86C74.45 75.67 61.13 90.73 43.47 92.91C43.09 92.96 42.81 93.28 42.81 93.65V105.56H35.46V93.65C35.46 93.27 35.18 92.95 34.8 92.91C17.14 90.74 3.82001 75.67 3.82001 57.86C3.82001 56.37 4.88999 55.08 6.35999 54.79C6.52999 54.75 6.73001 54.74 6.95001 54.74C8.67001 54.74 10.07 56.14 10.07 57.86C10.07 73.89 23.11 86.9301 39.14 86.9301C55.17 86.9301 68.2 73.89 68.2 57.86C68.2 56.14 69.6 54.74 71.33 54.74ZM71.33 53.99C69.19 53.99 67.45 55.72 67.45 57.86C67.45 73.48 54.75 86.1801 39.14 86.1801C23.53 86.1801 10.82 73.48 10.82 57.86C10.82 55.72 9.09001 53.99 6.95001 53.99C6.70001 53.99 6.44999 54.0101 6.20999 54.0601C4.41999 54.4101 3.07001 55.97 3.07001 57.86C3.07001 76.25 16.91 91.46 34.71 93.65V106.31H43.56V93.65C61.37 91.46 75.2 76.25 75.2 57.86C75.2 55.96 73.84 54.3901 72.04 54.0601C71.81 54.0101 71.57 53.99 71.33 53.99Z" fill="#FF5A3A"/>
<path d="M19.59 114.2V112.78C19.59 111.49 19.83 110.23 20.3 109.02C20.81 107.7 21.59 106.5 22.6 105.48C24.56 103.53 27.15 102.46 29.9 102.46H48.35C52.64 102.46 56.42 105.04 57.97 109.03C58.44 110.23 58.68 111.5 58.68 112.79V114.21H19.6L19.59 114.2Z" fill="white"/>
<path d="M48.36 103.88C52.13 103.88 55.36 106.22 56.65 109.54C57.04 110.54 57.26 111.63 57.26 112.78H21.02C21.02 111.63 21.24 110.54 21.63 109.54C22.08 108.38 22.76 107.35 23.62 106.48C25.23 104.88 27.46 103.88 29.91 103.88H48.36ZM48.36 101.03H29.91C26.78 101.03 23.84 102.25 21.61 104.46C20.44 105.64 19.56 107 18.97 108.51C18.44 109.87 18.17 111.31 18.17 112.78V115.62H60.1V112.78C60.1 111.31 59.83 109.87 59.3 108.51C57.54 103.97 53.24 101.04 48.36 101.04V101.03Z" fill="#23261B"/>
<path d="M57.26 112.78H21.02C21.02 111.63 21.24 110.54 21.63 109.54H56.65C57.04 110.54 57.26 111.63 57.26 112.78Z" fill="#D4D4D4"/>
</svg>
