<svg width="130" height="108" viewBox="0 0 130 108" fill="none" xmlns="http://www.w3.org/2000/svg">
<path d="M105.9 25.03C105.63 25.03 105.37 24.99 105.12 24.92C104.59 24.77 103.84 24.37 103.28 23.34C102.09 21.17 102.21 16.92 103.58 12.27C104.62 8.74002 106.18 5.71002 107.85 3.96002C108.88 2.89002 109.92 2.34998 110.94 2.34998C111.21 2.34998 111.47 2.39002 111.72 2.46002C112.48 2.68002 113.5 3.34001 114.02 5.20001C114.68 7.54001 114.4 11.25 113.26 15.12C111.81 20.05 108.97 25.03 105.9 25.03Z" fill="#FF5A3A"/>
<path d="M110.95 3.78003C111.08 3.78003 111.21 3.80002 111.33 3.83002C111.95 4.01002 112.4 4.64003 112.66 5.59003C113.23 7.59003 112.99 11.02 111.91 14.72C110.41 19.82 107.81 23.61 105.91 23.61C105.78 23.61 105.65 23.59 105.53 23.56C103.61 23 103.34 18.12 104.95 12.67C105.95 9.26998 107.44 6.45001 108.88 4.95001C109.6 4.20001 110.32 3.78003 110.95 3.78003ZM110.95 0.929993C109.52 0.929993 108.14 1.61997 106.83 2.96997C105 4.87997 103.32 8.11999 102.22 11.86C101.66 13.76 99.99 20.27 102.04 24.01C102.84 25.46 103.94 26.04 104.73 26.27C105.1 26.38 105.5 26.44 105.91 26.44C109.98 26.44 113.09 20.79 114.64 15.5C115.85 11.39 116.13 7.38998 115.4 4.78998C114.67 2.17998 113.04 1.35002 112.13 1.08002C111.75 0.970017 111.35 0.909973 110.95 0.909973V0.929993Z" fill="#23261B"/>
<g style="mix-blend-mode:overlay">
<path d="M111.594 6.96183C111.913 5.80645 111.679 4.73417 111.072 4.56687C110.465 4.39957 109.715 5.20059 109.396 6.35597C109.078 7.51134 109.312 8.58357 109.919 8.75087C110.526 8.91817 111.276 8.1172 111.594 6.96183Z" fill="white"/>
</g>
<g style="mix-blend-mode:overlay" opacity="0.62">
<path d="M105.53 23.55C107.45 24.12 110.31 20.16 111.91 14.71C113 11.01 113.23 7.58002 112.66 5.58002C112.31 11.47 109.52 18.1 106.84 16.73C104.46 15.52 106.53 9.05 108.88 4.94C107.44 6.44 105.95 9.25997 104.95 12.66C103.35 18.11 103.61 22.99 105.53 23.55Z" fill="black"/>
</g>
<path d="M108.6 76.51C98.43 76.51 89.63 68.42 87.67 57.27C87.22 54.71 87.16 52.15 87.49 49.65C88.72 40.13 95.32 32.72 103.91 31.21C104.64 31.08 105.41 31 106.18 30.96C106.5 30.94 106.82 30.94 107.14 30.94C116 30.94 124.04 37.2 127.14 46.52C127.53 47.68 127.84 48.91 128.06 50.17C129.76 59.85 125.74 69.39 118.05 73.92C116.13 75.06 114.03 75.83 111.82 76.22C110.76 76.41 109.67 76.5 108.6 76.5V76.51Z" fill="white"/>
<path d="M107.14 32.37C115.36 32.37 122.9 38.29 125.79 46.98C126.16 48.08 126.45 49.24 126.66 50.42C128.3 59.74 124.31 68.59 117.33 72.7C115.59 73.73 113.65 74.46 111.57 74.83C110.57 75.01 109.58 75.09 108.6 75.09C99.33 75.09 90.92 67.57 89.07 57.03C88.64 54.58 88.59 52.16 88.9 49.85C90.02 41.19 95.96 34.07 104.15 32.63C104.85 32.51 105.55 32.43 106.24 32.4C106.54 32.38 106.83 32.38 107.13 32.38M107.14 29.52C106.8 29.52 106.45 29.52 106.11 29.55C105.29 29.59 104.47 29.68 103.67 29.82C94.47 31.44 87.4 39.34 86.09 49.48C85.74 52.11 85.8 54.82 86.28 57.52C88.36 69.35 97.75 77.93 108.61 77.93C109.77 77.93 110.93 77.83 112.08 77.63C114.47 77.21 116.73 76.37 118.8 75.15C126.99 70.33 131.28 60.19 129.48 49.93C129.25 48.6 128.92 47.31 128.5 46.07C125.21 36.17 116.63 29.52 107.15 29.52H107.14Z" fill="#23261B"/>
<g style="mix-blend-mode:multiply">
<path d="M88.9 49.85C92.82 51.47 97.22 52.6 102.13 53.02C113.96 54.03 120.73 51.59 124.58 48.17C125.34 51.51 125.92 56.67 124.2 61.76C121.31 70.31 111.88 74.28 111.88 74.28L112.14 74.71C111.95 74.75 111.76 74.8 111.57 74.84C101.19 76.66 91.12 68.69 89.07 57.04C88.64 54.59 88.59 52.17 88.9 49.86V49.85Z" fill="#D4D4D4"/>
</g>
<path d="M89.07 57.03C91.12 68.68 101.19 76.65 111.57 74.83C113.65 74.46 115.59 73.74 117.33 72.7C118.95 67.4 118.57 60.17 116.46 52.22C116.36 51.83 116.25 51.44 116.14 51.05C113.45 41.58 109.5 35.8 106.25 32.39C105.56 32.42 104.86 32.5 104.16 32.62C95.96 34.06 90.03 41.18 88.91 49.84C88.87 50.13 88.84 50.42 88.81 50.71C88.77 51.14 88.74 51.58 88.73 52.02C88.71 52.22 88.71 52.42 88.71 52.62C88.71 52.7 88.71 52.77 88.71 52.85C88.71 53.15 88.71 53.45 88.71 53.75V53.79C88.72 54.14 88.75 54.49 88.78 54.85C88.8 55.17 88.84 55.48 88.88 55.8C88.93 56.21 88.99 56.62 89.06 57.03H89.07Z" fill="#FF5A3A"/>
<g style="mix-blend-mode:overlay" opacity="0.62">
<path d="M89.07 57.03C91.12 68.68 101.19 76.65 111.57 74.83C113.65 74.46 115.59 73.74 117.33 72.7C118.95 67.4 118.57 60.17 116.46 52.22C112.79 53.16 108.11 53.52 102.14 53.01C97.23 52.59 92.83 51.46 88.91 49.84C88.87 50.13 88.84 50.42 88.81 50.71C88.77 51.14 88.74 51.58 88.73 52.02C88.71 52.22 88.71 52.42 88.71 52.62C88.71 52.7 88.71 52.77 88.71 52.85C88.71 53.15 88.71 53.45 88.71 53.75V53.79C88.72 54.14 88.75 54.49 88.78 54.85C88.8 55.17 88.84 55.48 88.88 55.8C88.93 56.21 88.99 56.62 89.06 57.03H89.07Z" fill="black"/>
</g>
<path style="mix-blend-mode:overlay" d="M124.53 48.44C124.53 48.44 119.94 32.53 105.45 33.39C90.97 34.26 88.44 53.79 91.17 60.08" fill="url(#paint0_linear_1_275)"/>
<path d="M24.12 25.03C21.04 25.03 18.21 20.05 16.76 15.11C15.62 11.24 15.34 7.54 16 5.19C16.52 3.34 17.54 2.68002 18.3 2.46002C18.55 2.39002 18.81 2.34998 19.08 2.34998C20.11 2.34998 21.15 2.89002 22.17 3.96002C23.85 5.71002 25.4 8.73002 26.44 12.27C27.81 16.93 27.92 21.17 26.74 23.34C26.18 24.37 25.43 24.77 24.9 24.92C24.65 24.99 24.39 25.03 24.12 25.03Z" fill="#FF5A3A"/>
<path d="M19.08 3.78003C19.71 3.78003 20.42 4.20001 21.15 4.95001C22.59 6.45001 24.08 9.26998 25.08 12.67C26.68 18.12 26.42 23 24.5 23.56C24.38 23.6 24.25 23.61 24.12 23.61C22.22 23.61 19.62 19.82 18.12 14.72C17.03 11.02 16.8 7.59003 17.37 5.59003C17.64 4.64003 18.08 4.02002 18.7 3.83002C18.82 3.79002 18.95 3.78003 19.08 3.78003ZM19.08 0.929993C18.68 0.929993 18.28 0.989976 17.9 1.09998C16.99 1.36998 15.36 2.20001 14.63 4.82001C13.9 7.40001 14.18 11.41 15.39 15.52C16.94 20.81 20.05 26.45 24.12 26.45C24.52 26.45 24.92 26.39 25.3 26.28C26.08 26.05 27.19 25.47 27.99 24.02C30.04 20.27 28.37 13.77 27.81 11.86C26.71 8.11999 25.03 4.87997 23.2 2.96997C21.89 1.60997 20.51 0.929993 19.08 0.929993Z" fill="#23261B"/>
<g style="mix-blend-mode:overlay">
<path d="M20.1871 8.60782C20.7941 8.44052 21.028 7.3683 20.7095 6.21293C20.3911 5.05755 19.6408 4.25658 19.0339 4.42389C18.4269 4.59119 18.193 5.6634 18.5115 6.81878C18.83 7.97415 19.5801 8.77513 20.1871 8.60782Z" fill="white"/>
</g>
<g style="mix-blend-mode:overlay" opacity="0.62">
<path d="M24.5 23.55C22.58 24.12 19.72 20.16 18.12 14.71C17.03 11.01 16.8 7.58002 17.37 5.58002C17.72 11.47 20.51 18.1 23.19 16.73C25.57 15.52 23.5 9.05 21.15 4.94C22.59 6.44 24.08 9.25997 25.08 12.66C26.68 18.11 26.42 22.99 24.5 23.55Z" fill="black"/>
</g>
<path d="M21.43 76.51C20.36 76.51 19.27 76.42 18.21 76.23C15.99 75.84 13.89 75.06 11.97 73.93C4.29 69.4 0.269995 59.86 1.97 50.18C2.19 48.92 2.50001 47.7 2.89001 46.53C5.99001 37.21 14.03 30.95 22.89 30.95C23.21 30.95 23.53 30.95 23.85 30.97C24.62 31.01 25.38 31.09 26.12 31.22C34.71 32.73 41.3 40.14 42.54 49.66C42.87 52.15 42.81 54.71 42.36 57.27C40.4 68.42 31.6 76.51 21.43 76.51Z" fill="white"/>
<path d="M22.89 32.37C23.18 32.37 23.48 32.37 23.78 32.39C24.47 32.42 25.17 32.5 25.87 32.62C34.07 34.06 40 41.18 41.12 49.84C41.43 52.15 41.38 54.57 40.95 57.02C39.1 67.55 30.69 75.08 21.42 75.08C20.44 75.08 19.44 75 18.45 74.82C16.37 74.45 14.43 73.73 12.69 72.69C5.72001 68.58 1.72999 59.73 3.35999 50.41C3.56999 49.22 3.86002 48.07 4.23002 46.97C7.12002 38.28 14.67 32.36 22.88 32.36M22.89 29.52C13.41 29.52 4.83002 36.17 1.54002 46.08C1.13002 47.31 0.800017 48.6 0.570017 49.93C-1.22998 60.19 3.06001 70.32 11.25 75.15C13.31 76.37 15.57 77.21 17.96 77.63C19.1 77.83 20.27 77.93 21.43 77.93C32.29 77.93 41.68 69.35 43.76 57.52C44.23 54.82 44.3 52.11 43.95 49.47C42.64 39.34 35.57 31.44 26.37 29.82C25.57 29.68 24.75 29.59 23.92 29.55C23.58 29.53 23.24 29.52 22.9 29.52H22.89Z" fill="#23261B"/>
<g style="mix-blend-mode:multiply">
<path d="M41.12 49.85C37.2 51.47 32.8 52.6 27.89 53.02C16.06 54.03 9.29001 51.59 5.44001 48.17C4.68001 51.51 4.10001 56.67 5.82001 61.76C8.71001 70.31 18.14 74.28 18.14 74.28L17.88 74.71C18.07 74.75 18.26 74.8 18.45 74.84C28.83 76.66 38.9 68.69 40.95 57.04C41.38 54.59 41.43 52.17 41.12 49.86V49.85Z" fill="#D4D4D4"/>
</g>
<path d="M40.96 57.03C38.91 68.68 28.84 76.65 18.46 74.83C16.38 74.46 14.44 73.74 12.7 72.7C11.08 67.4 11.46 60.17 13.57 52.22C13.67 51.83 13.78 51.44 13.89 51.05C16.58 41.58 20.53 35.8 23.78 32.39C24.47 32.42 25.17 32.5 25.87 32.62C34.07 34.06 40 41.18 41.12 49.84C41.16 50.13 41.19 50.42 41.22 50.71C41.26 51.14 41.29 51.58 41.3 52.02C41.32 52.22 41.32 52.42 41.32 52.62C41.32 52.7 41.32 52.77 41.32 52.85C41.32 53.15 41.32 53.45 41.32 53.75V53.79C41.31 54.14 41.28 54.49 41.25 54.85C41.23 55.17 41.19 55.48 41.15 55.8C41.1 56.21 41.04 56.62 40.97 57.03H40.96Z" fill="#FF5A3A"/>
<g style="mix-blend-mode:overlay" opacity="0.62">
<path d="M40.96 57.03C38.91 68.68 28.84 76.65 18.46 74.83C16.38 74.46 14.44 73.74 12.7 72.7C11.08 67.4 11.46 60.17 13.57 52.22C17.24 53.16 21.92 53.52 27.89 53.01C32.8 52.59 37.2 51.46 41.12 49.84C41.16 50.13 41.19 50.42 41.22 50.71C41.26 51.14 41.29 51.58 41.3 52.02C41.32 52.22 41.32 52.42 41.32 52.62C41.32 52.7 41.32 52.77 41.32 52.85C41.32 53.15 41.32 53.45 41.32 53.75V53.79C41.31 54.14 41.28 54.49 41.25 54.85C41.23 55.17 41.19 55.48 41.15 55.8C41.1 56.21 41.04 56.62 40.97 57.03H40.96Z" fill="black"/>
</g>
<path style="mix-blend-mode:overlay" d="M5.5 48.44C5.5 48.44 10.09 32.53 24.58 33.39C39.07 34.25 41.59 53.79 38.86 60.08" fill="url(#paint1_linear_1_275)"/>
<path d="M31.44 105.67C30.2 105.67 29.01 105.07 28.26 104.07C27.51 103.08 27.28 101.81 27.63 100.61L30.05 92.2C20.83 87.63 15.14 77.88 15.77 67.55L16.09 62.47C16.27 59.53 16.72 56.59 17.42 53.74C18.72 48.46 20.88 43.44 23.86 38.84C32.97 24.77 48.41 16.37 65.15 16.37C77.71 16.37 89.67 21.11 98.81 29.71C100.81 31.59 102.65 33.63 104.29 35.79C107.95 40.6 110.65 45.98 112.33 51.75C113.34 55.23 113.97 58.84 114.19 62.48L114.51 67.56C114.96 74.72 112.49 81.55 107.58 86.78C102.67 92.01 96.01 94.89 88.84 94.89H53.25L33.26 105.25C32.68 105.55 32.07 105.7 31.44 105.7V105.67Z" fill="white"/>
<path d="M65.15 17.78C77.76 17.78 89.28 22.68 97.84 30.73C99.77 32.54 101.56 34.52 103.16 36.63C106.64 41.21 109.32 46.45 110.97 52.13C111.94 55.46 112.56 58.95 112.78 62.55L113.1 67.63C113.97 81.62 102.86 93.44 88.85 93.44H52.91L32.61 103.96C32.22 104.16 31.83 104.25 31.44 104.25C29.86 104.25 28.5 102.72 29 101L31.76 91.42C22.7 87.47 16.55 78.17 17.2 67.63L17.52 62.55C17.7 59.64 18.14 56.8 18.81 54.07C20.09 48.85 22.23 43.98 25.06 39.6C33.59 26.43 48.41 17.78 65.15 17.78ZM65.15 14.93C47.93 14.93 32.05 23.57 22.67 38.05C19.61 42.79 17.38 47.95 16.04 53.39C15.32 56.32 14.86 59.34 14.67 62.37L14.35 67.45C13.7 77.96 19.25 87.89 28.36 92.92L26.26 100.22C25.79 101.86 26.1 103.57 27.12 104.93C28.14 106.29 29.76 107.1 31.44 107.1C32.3 107.1 33.13 106.9 33.91 106.49L53.6 96.29H88.85C96.42 96.29 103.44 93.25 108.63 87.74C113.82 82.22 116.41 75.02 115.94 67.46L115.62 62.38C115.39 58.64 114.75 54.93 113.7 51.34C111.97 45.4 109.19 39.87 105.42 34.91C103.74 32.69 101.84 30.59 99.78 28.66C90.37 19.81 78.07 14.94 65.14 14.94L65.15 14.93Z" fill="#23261B"/>
<g style="mix-blend-mode:multiply">
<path d="M88.85 93.44H52.91L32.61 103.96C30.63 104.98 28.38 103.14 29 101L31.76 91.42C22.7 87.47 16.55 78.17 17.2 67.63L17.52 62.55C17.7 59.64 18.14 56.8 18.81 54.07C20.09 48.85 22.23 43.98 25.06 39.6C21.06 51.45 18.4 67.66 29.24 76.29C47.62 90.93 102.09 88.03 106 65.05C107.77 54.68 105.83 44.58 103.16 36.63C106.64 41.21 109.32 46.45 110.97 52.13C111.94 55.46 112.56 58.95 112.78 62.55L113.1 67.63C113.97 81.62 102.86 93.44 88.85 93.44Z" fill="#D4D4D4"/>
</g>
<path d="M65.15 19.79C76.84 19.79 87.96 24.2 96.47 32.2C98.33 33.95 100.04 35.85 101.56 37.85C104.96 42.33 107.48 47.32 109.04 52.7C109.98 55.94 110.57 59.3 110.77 62.68L111.09 67.76C111.48 73.97 109.34 79.88 105.09 84.41C100.83 88.94 95.07 91.44 88.85 91.44H52.91C52.59 91.44 52.27 91.52 51.99 91.67L31.69 102.19C31.6 102.23 31.52 102.26 31.44 102.26C31.28 102.26 31.11 102.17 31 102.03C30.87 101.85 30.9 101.69 30.93 101.58L33.69 92C33.97 91.03 33.49 90.01 32.56 89.6C24 85.87 18.63 77.1 19.2 67.78L19.52 62.7C19.69 59.96 20.11 57.23 20.76 54.57C21.96 49.66 23.98 45 26.75 40.71C35.23 27.62 49.58 19.81 65.15 19.81M65.15 17.78C48.41 17.78 33.59 26.43 25.06 39.6C22.23 43.98 20.09 48.85 18.81 54.07C18.14 56.8 17.7 59.64 17.52 62.55L17.2 67.63C16.55 78.17 22.7 87.47 31.76 91.42L29 101C28.5 102.72 29.86 104.25 31.44 104.25C31.82 104.25 32.22 104.16 32.61 103.96L52.91 93.44H88.85C102.86 93.44 113.97 81.62 113.1 67.63L112.78 62.55C112.56 58.95 111.94 55.46 110.97 52.13C109.32 46.45 106.64 41.21 103.16 36.63C101.56 34.52 99.77 32.54 97.84 30.73C89.28 22.68 77.76 17.78 65.15 17.78Z" fill="white"/>
<path d="M39.09 72.95C35.18 72.95 32.01 69.77 32.01 65.86C32.01 61.95 35.19 58.78 39.09 58.78C42.99 58.78 46.18 61.96 46.18 65.86C46.18 69.76 43 72.95 39.09 72.95Z" fill="#FF5A3A"/>
<path d="M39.09 59.78C42.45 59.78 45.18 62.5 45.18 65.87C45.18 69.24 42.46 71.96 39.09 71.96C35.72 71.96 33 69.24 33 65.87C33 62.5 35.72 59.78 39.09 59.78ZM39.09 57.78C34.63 57.78 31 61.41 31 65.87C31 70.33 34.63 73.96 39.09 73.96C43.55 73.96 47.18 70.33 47.18 65.87C47.18 61.41 43.55 57.78 39.09 57.78Z" fill="#23261B"/>
<path d="M64.13 72.95C60.22 72.95 57.04 69.77 57.04 65.86C57.04 61.95 60.22 58.78 64.13 58.78C68.04 58.78 71.21 61.96 71.21 65.86C71.21 69.76 68.03 72.95 64.13 72.95Z" fill="#FF5A3A"/>
<path d="M64.13 59.78C67.49 59.78 70.22 62.5 70.22 65.87C70.22 69.24 67.5 71.96 64.13 71.96C60.76 71.96 58.04 69.24 58.04 65.87C58.04 62.5 60.76 59.78 64.13 59.78ZM64.13 57.78C59.67 57.78 56.04 61.41 56.04 65.87C56.04 70.33 59.67 73.96 64.13 73.96C68.59 73.96 72.22 70.33 72.22 65.87C72.22 61.41 68.59 57.78 64.13 57.78Z" fill="#23261B"/>
<path d="M89.17 72.95C85.26 72.95 82.08 69.77 82.08 65.86C82.08 61.95 85.26 58.78 89.17 58.78C93.08 58.78 96.25 61.96 96.25 65.86C96.25 69.76 93.07 72.95 89.17 72.95Z" fill="#FF5A3A"/>
<path d="M89.17 59.78C92.53 59.78 95.26 62.5 95.26 65.87C95.26 69.24 92.54 71.96 89.17 71.96C85.8 71.96 83.08 69.24 83.08 65.87C83.08 62.5 85.8 59.78 89.17 59.78ZM89.17 57.78C84.71 57.78 81.08 61.41 81.08 65.87C81.08 70.33 84.71 73.96 89.17 73.96C93.63 73.96 97.26 70.33 97.26 65.87C97.26 61.41 93.63 57.78 89.17 57.78Z" fill="#23261B"/>
<defs>
<linearGradient id="paint0_linear_1_275" x1="102.746" y1="33.0039" x2="106.761" y2="49.8938" gradientUnits="userSpaceOnUse">
<stop stop-color="white"/>
<stop offset="0.93" stop-color="white" stop-opacity="0"/>
</linearGradient>
<linearGradient id="paint1_linear_1_275" x1="27.2797" y1="33.0057" x2="23.2764" y2="49.8875" gradientUnits="userSpaceOnUse">
<stop stop-color="white"/>
<stop offset="0.93" stop-color="white" stop-opacity="0"/>
</linearGradient>
</defs>
</svg>
