<svg width="119" height="119" viewBox="0 0 119 119" fill="none" xmlns="http://www.w3.org/2000/svg">
<path d="M79.16 90.6C78.67 90.6 78.2 90.48 77.76 90.25L59.6 80.71L59.5 80.6801L59.4 80.71L41.25 90.25C40.82 90.48 40.34 90.6 39.86 90.6C38.98 90.6 38.15 90.21 37.58 89.54C37.01 88.87 36.77 87.99 36.92 87.12L40.39 66.9C40.4 66.83 40.38 66.77 40.33 66.72L25.72 52.48C25.09 51.87 24.77 51.05 24.83 50.17C24.89 48.74 25.99 47.56 27.45 47.39L47.58 45C47.66 45 47.71 44.95 47.74 44.9L56.82 25.98C57.32 24.94 58.35 24.28 59.51 24.28C60.67 24.28 61.69 24.93 62.2 25.98L71.27 44.89C71.3 44.96 71.36 44.99 71.42 45L91.5601 47.39C92.7101 47.52 93.66 48.28 94.04 49.38C94.42 50.48 94.14 51.67 93.3 52.48L78.6899 66.72C78.6899 66.72 78.62 66.83 78.63 66.89L82.1 87.12C82.25 88 82.0099 88.8801 81.4399 89.55C80.8699 90.22 80.04 90.61 79.17 90.61L79.16 90.6Z" fill="#FF5A3A"/>
<path d="M59.51 25.65C60.08 25.65 60.65 25.9501 60.94 26.5601L70.01 45.47C70.24 45.96 70.71 46.3 71.26 46.36L90.87 48.6899L91.39 48.75C92.73 48.9 93.28 50.53 92.32 51.47L77.71 65.71C77.33 66.08 77.16 66.61 77.25 67.12L80.72 87.34C80.89 88.37 80.08 89.21 79.16 89.21C78.91 89.21 78.66 89.15 78.41 89.02L60.25 79.48C60.02 79.36 59.76 79.29 59.51 79.29C59.26 79.29 59 79.35 58.77 79.48L40.62 89.02C40.37 89.15 40.12 89.21 39.87 89.21C38.94 89.21 38.12 88.37 38.3 87.34L41.77 67.12C41.86 66.61 41.69 66.08 41.31 65.71L26.7 51.47C26.34 51.12 26.2 50.68 26.23 50.25C26.26 49.53 26.78 48.85 27.63 48.75L47.76 46.36C48.31 46.3 48.78 45.96 49.01 45.47L58.08 26.5601C58.37 25.9601 58.94 25.65 59.51 25.65ZM59.51 22.88C57.82 22.88 56.31 23.83 55.57 25.36L46.78 43.6801L27.29 45.99C25.17 46.24 23.55 47.96 23.45 50.09C23.37 51.35 23.85 52.57 24.76 53.45L38.92 67.26L35.56 86.87C35.34 88.15 35.7 89.4501 36.53 90.4301C37.37 91.4201 38.58 91.99 39.87 91.99C40.58 91.99 41.28 91.81 41.92 91.48L59.52 82.23L77.13 91.48C77.75 91.81 78.4601 91.99 79.1701 91.99C80.4501 91.99 81.67 91.4199 82.5 90.4399C83.33 89.4599 83.68 88.16 83.47 86.89L80.1 67.27L94.27 53.46C95.49 52.26 95.91 50.52 95.35 48.91C94.8 47.3 93.4 46.19 91.71 46L91.2 45.9399L72.24 43.6899L63.45 25.37C62.72 23.84 61.21 22.89 59.51 22.89V22.88Z" fill="#23261B"/>
<g style="mix-blend-mode:overlay">
<path d="M59.46 41.0699C60.6033 41.0699 61.53 38.9568 61.53 36.35C61.53 33.7432 60.6033 31.63 59.46 31.63C58.3168 31.63 57.39 33.7432 57.39 36.35C57.39 38.9568 58.3168 41.0699 59.46 41.0699Z" fill="white"/>
</g>
<g style="mix-blend-mode:overlay" opacity="0.44">
<path d="M77.72 65.71C77.34 66.08 77.17 66.61 77.26 67.12L80.73 87.34C80.95 88.65 79.5901 89.64 78.4201 89.02L60.26 79.48C59.79 79.23 59.2401 79.23 58.7701 79.48L40.62 89.02C39.45 89.64 38.08 88.65 38.3 87.34L41.77 67.12C41.86 66.61 41.69 66.08 41.31 65.71L26.7 51.47C26.34 51.12 26.2 50.68 26.23 50.25C54.58 68.61 91.35 55.9299 90.88 48.6899L91.4001 48.75C92.7401 48.9 93.29 50.53 92.33 51.47L77.72 65.71Z" fill="black"/>
</g>
<path d="M59.51 28.1899L68.2 46.3199C68.72 47.4399 69.8101 48.21 71.0201 48.35L90.3001 50.64L76.3101 64.28C75.4601 65.11 75.07 66.3 75.2701 67.46L78.6 86.87L61.18 77.72C60.66 77.44 60.08 77.3 59.5 77.3C58.92 77.3 58.33 77.45 57.82 77.72L40.39 86.88L43.72 67.48C43.93 66.31 43.54 65.12 42.69 64.29L28.69 50.65L47.9601 48.36C49.1901 48.23 50.28 47.45 50.8 46.35L59.5 28.21M59.51 25.65C58.94 25.65 58.37 25.9501 58.08 26.5601L49.01 45.47C48.78 45.96 48.31 46.3 47.76 46.36L27.63 48.75C26.78 48.85 26.26 49.53 26.23 50.25C26.2 50.68 26.34 51.12 26.7 51.47L41.31 65.71C41.69 66.08 41.86 66.61 41.77 67.12L38.3 87.34C38.13 88.37 38.94 89.21 39.87 89.21C40.12 89.21 40.37 89.15 40.62 89.02L58.7701 79.48C59 79.36 59.26 79.29 59.51 79.29C59.76 79.29 60.02 79.35 60.25 79.48L78.4101 89.02C78.6601 89.15 78.9101 89.21 79.1601 89.21C80.0901 89.21 80.9 88.37 80.72 87.34L77.25 67.12C77.16 66.61 77.33 66.08 77.71 65.71L92.32 51.47C93.28 50.53 92.73 48.9 91.39 48.75L90.87 48.6899L71.26 46.36C70.71 46.3 70.24 45.96 70.01 45.47L60.94 26.5601C60.65 25.9601 60.08 25.65 59.51 25.65Z" fill="#FF5A3A"/>
<path d="M59.52 116.94C31.74 116.94 7.87998 97.13 2.78998 69.85C2.13998 66.37 1.81 62.79 1.81 59.23C1.81 45.16 6.92002 31.62 16.21 21.09C17.32 19.82 18.93 19.09 20.62 19.09C22.05 19.09 23.44 19.6099 24.52 20.5699C26.95 22.7099 27.18 26.44 25.05 28.88C17.66 37.27 13.59 48.05 13.59 59.23C13.59 64.13 14.36 68.9501 15.88 73.5601C22.09 92.4701 39.64 105.18 59.53 105.18C84.86 105.18 105.47 84.57 105.47 59.24C105.47 53.45 104.41 47.82 102.31 42.5C95.4601 25.03 78.27 13.3 59.53 13.3C56.28 13.3 53.64 10.66 53.64 7.41003C53.64 4.16003 56.28 1.52002 59.53 1.52002C80.52 1.52002 99.8899 12.97 110.07 31.4C114.76 39.88 117.24 49.51 117.24 59.24C117.24 91.07 91.35 116.96 59.52 116.96V116.94Z" fill="white"/>
<path d="M59.52 2.89001C80.73 2.89001 99.25 14.68 108.85 32.05C113.31 40.1101 115.85 49.37 115.85 59.22C115.85 90.28 90.58 115.55 59.52 115.55C31.99 115.55 9.03002 95.71 4.15002 69.59C3.52002 66.23 3.19 62.76 3.19 59.22C3.19 45.5 8.16999 32.28 17.24 22C18.13 20.99 19.37 20.47 20.61 20.47C21.67 20.47 22.73 20.84 23.59 21.6C25.45 23.24 25.63 26.08 23.99 27.95C16.38 36.59 12.19 47.69 12.19 59.22C12.19 64.37 13.02 69.34 14.55 73.98C20.76 92.88 38.57 106.55 59.52 106.55C85.61 106.55 106.85 85.32 106.85 59.22C106.85 53.14 105.7 47.32 103.59 41.97C96.69 24.38 79.53 11.89 59.52 11.89C57.03 11.89 55.02 9.88001 55.02 7.39001C55.02 4.90001 57.03 2.89001 59.52 2.89001ZM59.52 0.109985C55.51 0.109985 52.24 3.37001 52.24 7.39001C52.24 11.41 55.5 14.67 59.52 14.67C68.64 14.67 77.41 17.42 84.89 22.62C92.2 27.7 97.78 34.75 101.01 42.99C103.05 48.15 104.08 53.62 104.08 59.23C104.08 83.8 84.09 103.78 59.53 103.78C40.23 103.78 23.22 91.46 17.2 73.12C15.73 68.65 14.98 63.98 14.98 59.23C14.98 48.38 18.92 37.93 26.09 29.79C28.74 26.77 28.44 22.17 25.44 19.52C24.11 18.34 22.4 17.7 20.63 17.7C18.54 17.7 16.55 18.6 15.17 20.17C5.66998 30.94 0.429993 44.81 0.429993 59.22C0.429993 62.87 0.770002 66.54 1.44 70.1C6.66 98.04 31.09 118.32 59.54 118.32C92.13 118.32 118.65 91.81 118.65 59.21C118.65 49.24 116.11 39.38 111.3 30.7C100.87 11.83 81.04 0.109985 59.54 0.109985H59.52Z" fill="#23261B"/>
<path d="M115.85 59.22C115.85 90.28 90.58 115.55 59.52 115.55C31.99 115.55 9.03002 95.71 4.15002 69.59C7.21002 71.23 10.66 72.74 14.55 73.98C20.76 92.88 38.57 106.55 59.52 106.55C85.61 106.55 106.85 85.32 106.85 59.22C106.85 53.14 105.7 47.32 103.59 41.97C105.68 38.56 107.41 35.2 108.85 32.05C113.31 40.11 115.85 49.37 115.85 59.22Z" fill="#D4D4D4"/>
<path d="M59.52 4.90002C79.28 4.90002 97.5 15.68 107.09 33.02C111.51 41 113.84 50.06 113.84 59.22C113.84 89.17 89.47 113.54 59.52 113.54C33.38 113.54 10.92 94.9 6.12 69.22C5.50999 65.94 5.19 62.58 5.19 59.22C5.19 45.98 9.99999 33.2299 18.74 23.3199C19.21 22.7799 19.89 22.48 20.6 22.48C21.21 22.48 21.79 22.7 22.25 23.11C23.28 24.02 23.38 25.59 22.47 26.63C14.54 35.64 10.17 47.21 10.17 59.23C10.17 64.49 11 69.67 12.63 74.62C19.3 94.93 38.14 108.57 59.51 108.57C86.72 108.57 108.85 86.44 108.85 59.23C108.85 53.02 107.71 46.96 105.45 41.25C101.87 32.12 95.7 24.32 87.61 18.7C79.33 12.94 69.61 9.90002 59.51 9.90002C58.14 9.90002 57.02 8.78003 57.02 7.41003C57.02 6.04003 58.14 4.92004 59.51 4.92004M59.52 2.89001C57.03 2.89001 55.02 4.90001 55.02 7.39001C55.02 9.88001 57.03 11.89 59.52 11.89C79.53 11.89 96.69 24.38 103.59 41.97C105.7 47.32 106.85 53.14 106.85 59.22C106.85 85.32 85.61 106.55 59.52 106.55C38.57 106.55 20.76 92.88 14.55 73.98C13.02 69.34 12.19 64.37 12.19 59.22C12.19 47.69 16.38 36.59 23.99 27.95C25.63 26.08 25.45 23.24 23.59 21.6C22.73 20.84 21.67 20.47 20.61 20.47C19.36 20.47 18.12 20.99 17.24 22C8.16999 32.28 3.19 45.5 3.19 59.22C3.19 62.76 3.52002 66.23 4.15002 69.59C9.03002 95.71 31.99 115.55 59.52 115.55C90.58 115.55 115.85 90.28 115.85 59.22C115.85 49.37 113.31 40.1101 108.85 32.05C99.25 14.68 80.73 2.89001 59.52 2.89001Z" fill="white"/>
<path d="M35.8401 18.99C33.6201 18.99 31.61 17.77 30.6 15.79C29.12 12.9 30.26 9.34999 33.14 7.85999C34.95 6.92999 36.82 6.08999 38.71 5.35999C39.39 5.09999 40.11 4.95996 40.83 4.95996C43.24 4.95996 45.45 6.46998 46.32 8.72998C46.89 10.2 46.85 11.8 46.21 13.23C45.57 14.66 44.42 15.77 42.95 16.34C41.45 16.92 39.96 17.59 38.52 18.33C37.69 18.76 36.76 18.98 35.83 18.98L35.8401 18.99Z" fill="white"/>
<path d="M40.83 6.35999C42.63 6.35999 44.34 7.44999 45.02 9.23999C45.92 11.56 44.77 14.1601 42.45 15.0601C40.9 15.6601 39.37 16.35 37.89 17.11C37.23 17.45 36.53 17.61 35.84 17.61C34.21 17.61 32.63 16.72 31.83 15.17C30.69 12.96 31.56 10.25 33.77 9.10999C35.53 8.20999 37.36 7.38004 39.2 6.67004C39.73 6.46004 40.28 6.35999 40.83 6.35999ZM40.83 3.57996C39.93 3.57996 39.05 3.74995 38.2 4.06995C36.27 4.80995 34.36 5.68 32.5 6.63C30.77 7.52 29.49 9.03 28.9 10.88C28.31 12.73 28.47 14.7001 29.36 16.4301C30.61 18.8701 33.09 20.38 35.83 20.38C36.98 20.38 38.13 20.0999 39.15 19.5699C40.55 18.8499 41.99 18.2 43.44 17.64C45.25 16.94 46.6799 15.57 47.4699 13.8C48.2599 12.02 48.3 10.05 47.6 8.22998C46.52 5.44998 43.8 3.57996 40.82 3.57996H40.83Z" fill="#23261B"/>
</svg>
