<svg width="109" height="106" viewBox="0 0 109 106" fill="none" xmlns="http://www.w3.org/2000/svg">
<path d="M5.53003 13.0301L67.15 3.31006L92.1 17.2801L106.97 87.33L26.99 104.32L5.53003 13.0301Z" fill="#838C30"/>
<path d="M66.97 4.34003L91.22 17.92L105.8 86.56L27.74 103.14L6.75 13.83L66.98 4.33003M67.34 2.27002L66.66 2.38002L6.42999 11.88L4.32001 12.21L4.81 14.29L25.8 103.6L26.24 105.49L28.14 105.09L106.2 88.51L108.14 88.1L107.73 86.16L93.15 17.52L92.96 16.64L92.18 16.2L67.93 2.62003L67.33 2.28003L67.34 2.27002Z" fill="#23261B"/>
<path d="M13.3 7.75998L72.64 1.03998L97.05 20.48L105.1 91.6L23.83 100.8L13.3 7.75998Z" fill="#F2FC8C"/>
<path d="M72.34 2.06999L96.1 21L104 90.73L24.7 99.71L14.39 8.64L72.34 2.08M72.94 0.00999451L72.12 0.0999908L14.17 6.65999L12.2 6.87999L12.42 8.84999L22.73 99.92L22.95 101.89L24.92 101.67L104.22 92.69L106.19 92.47L105.97 90.5L98.07 20.77L97.98 19.95L97.34 19.44L73.58 0.509995L72.94 0V0.00999451Z" fill="#23261B"/>
<path d="M43.86 8.40002H43.84L43.46 8.44003H43.41H43.39H43.35H43.33H43.32C43.32 8.44003 43.31 8.44003 43.3 8.44003C43.3 8.44003 43.29 8.44003 43.28 8.44003H43.26C43.26 8.44003 43.25 8.44003 43.24 8.44003C43.24 8.44003 43.24 8.44003 43.23 8.44003H43.21H43.17C43.17 8.44003 43.15 8.44003 43.14 8.44003C43.14 8.44003 43.12 8.44003 43.11 8.44003C43.11 8.44003 43.09 8.44003 43.08 8.44003C43.08 8.44003 43.04 8.44003 43.02 8.44003C43.02 8.44003 43 8.44003 42.99 8.44003C42.99 8.44003 42.97 8.44003 42.96 8.44003C42.88 8.44003 42.8 8.46003 42.71 8.47003C38.02 9.00003 23.02 10.7 23.02 10.7C22.91 10.71 22.83 10.81 22.84 10.93C22.85 11.03 22.94 11.11 23.04 11.11H23.06L44.13 8.72003C44.24 8.71003 44.32 8.61002 44.31 8.49002C44.3 8.39002 44.21 8.31003 44.11 8.31003L43.86 8.40002ZM17.9 12.42H17.88C17.77 12.43 17.69 12.53 17.7 12.65L18.62 20.82V20.92H18.63V20.95V20.99V21.01V21.13H18.64L18.66 21.34V21.36C18.66 21.36 18.66 21.38 18.66 21.39C18.66 21.39 18.66 21.41 18.66 21.42V21.48V21.5V21.53C18.66 21.53 18.66 21.53 18.66 21.54V21.58C18.66 21.58 18.66 21.59 18.66 21.6C18.66 21.6 18.66 21.62 18.66 21.63C18.66 21.63 18.66 21.67 18.66 21.69C18.66 21.69 18.66 21.74 18.66 21.76C18.66 21.76 18.66 21.8 18.66 21.82C18.66 21.82 18.66 21.83 18.66 21.84C18.66 21.84 18.66 21.89 18.66 21.92C18.66 21.92 18.66 21.92 18.66 21.93V21.96V21.97C18.66 21.97 18.66 22 18.66 22.01C18.66 22.01 18.66 22.02 18.66 22.03C18.66 22.03 18.66 22.05 18.66 22.06V22.08C18.66 22.08 18.66 22.12 18.66 22.13C18.66 22.13 18.66 22.14 18.66 22.15C18.66 22.15 18.66 22.16 18.66 22.17C18.66 22.17 18.66 22.17 18.66 22.18V22.22C18.66 22.22 18.66 22.29 18.67 22.32C18.67 22.32 18.67 22.4 18.68 22.44C18.68 22.52 18.7 22.6 18.71 22.69C18.72 22.82 18.74 22.94 18.75 23.06C18.75 23.06 18.75 23.14 18.76 23.18V23.2C19.36 28.46 19.95 33.71 19.95 33.71C19.96 33.81 20.05 33.89 20.15 33.89H20.17C20.28 33.88 20.36 33.78 20.35 33.66L17.96 12.59C17.95 12.49 17.86 12.41 17.76 12.41L17.9 12.42ZM21.02 39.97H21C20.89 39.98 20.81 40.08 20.82 40.19L23.21 61.26C23.22 61.36 23.31 61.44 23.41 61.44H23.43C23.54 61.43 23.62 61.33 23.61 61.21L21.22 40.14C21.21 40.04 21.12 39.96 21.02 39.96V39.97ZM24.14 67.52H24.12C24.01 67.53 23.93 67.63 23.94 67.75L26.33 88.82C26.34 88.92 26.43 89 26.53 89H26.55C26.66 88.99 26.74 88.89 26.73 88.77L24.34 67.7C24.33 67.6 24.24 67.52 24.14 67.52ZM47.19 93.64H47.17L27.53 95.86L27.46 95.25C27.45 95.15 27.36 95.07 27.26 95.07H27.24C27.13 95.08 27.05 95.18 27.06 95.3C27.06 95.3 27.15 96.06 27.17 96.27C27.17 96.27 27.17 96.27 27.17 96.28V96.29L27.58 96.26C27.71 96.25 27.86 96.23 28.03 96.21C28.03 96.21 28.06 96.21 28.08 96.21C28.08 96.21 28.11 96.21 28.13 96.21C28.24 96.2 28.35 96.18 28.48 96.17C28.48 96.17 28.56 96.17 28.6 96.16C28.6 96.16 28.69 96.16 28.73 96.15C28.8 96.15 28.86 96.13 28.93 96.13C28.93 96.13 28.95 96.13 28.97 96.13H29.02C29.02 96.13 29.06 96.13 29.08 96.12C29.08 96.12 29.13 96.12 29.15 96.12C29.15 96.12 29.2 96.12 29.22 96.12C29.22 96.12 29.24 96.12 29.26 96.12C29.26 96.12 29.28 96.12 29.29 96.12H29.3C29.3 96.12 29.35 96.12 29.37 96.12C29.37 96.12 29.39 96.12 29.41 96.12C29.41 96.12 29.43 96.12 29.44 96.12H29.46C29.46 96.12 29.48 96.12 29.49 96.12C29.49 96.12 29.51 96.12 29.53 96.12C29.53 96.12 29.53 96.12 29.54 96.12C29.54 96.12 29.54 96.12 29.55 96.12H29.58H29.62H29.64C29.64 96.12 29.64 96.12 29.65 96.12C29.65 96.12 29.65 96.12 29.66 96.12H29.67L30.5 96.03L47.16 94.14C47.27 94.13 47.35 94.03 47.34 93.91C47.33 93.81 47.24 93.73 47.14 93.73L47.19 93.64ZM74.75 90.52H74.73L53.66 92.91C53.55 92.92 53.47 93.02 53.48 93.14C53.49 93.24 53.58 93.32 53.68 93.32H53.7L74.77 90.93C74.88 90.92 74.96 90.82 74.95 90.7C74.94 90.6 74.85 90.52 74.75 90.52ZM100.47 86.32H100.45C100.34 86.33 100.26 86.43 100.27 86.55L100.39 87.62L81.21 89.79C81.1 89.8 81.02 89.9 81.03 90.02C81.04 90.12 81.13 90.2 81.23 90.2C81.23 90.2 81.24 90.2 81.25 90.2L99.18 88.17H99.2C99.2 88.17 99.2 88.17 99.21 88.17H99.22H99.25H99.31H99.33H99.36H99.38H99.4C99.4 88.17 99.4 88.17 99.41 88.17H99.46H99.47C99.47 88.17 99.47 88.17 99.48 88.17H99.49C99.49 88.17 99.49 88.17 99.5 88.17C99.5 88.17 99.5 88.17 99.51 88.17H99.53C99.53 88.17 99.53 88.17 99.54 88.17H99.55H99.57C99.57 88.17 99.59 88.17 99.6 88.17C99.6 88.17 99.6 88.17 99.61 88.17C99.61 88.17 99.61 88.17 99.62 88.17C99.62 88.17 99.62 88.17 99.63 88.17C99.63 88.17 99.64 88.17 99.65 88.17H99.68H99.69C99.69 88.17 99.7 88.17 99.71 88.17H99.73C99.73 88.17 99.79 88.17 99.82 88.17C99.88 88.17 99.93 88.16 99.99 88.15C100.09 88.14 100.18 88.13 100.25 88.12C100.33 88.12 100.38 88.1 100.42 88.1H100.44H100.45L100.28 86.62C100.27 86.52 100.18 86.44 100.08 86.44L100.47 86.32ZM97.35 58.77H97.33C97.22 58.78 97.14 58.88 97.15 59L99.54 80.07C99.55 80.17 99.64 80.25 99.74 80.25H99.76C99.87 80.24 99.95 80.14 99.94 80.02L97.55 58.95C97.54 58.85 97.45 58.77 97.35 58.77ZM94.23 31.21H94.21C94.1 31.22 94.02 31.32 94.03 31.44L96.42 52.51C96.43 52.61 96.52 52.69 96.62 52.69H96.64C96.75 52.68 96.83 52.58 96.82 52.47L94.43 31.4C94.42 31.3 94.33 31.22 94.23 31.22V31.21ZM78.34 10.89C78.28 10.89 78.22 10.92 78.18 10.97C78.11 11.06 78.12 11.19 78.21 11.26L93.09 23.16L93.29 24.96C93.3 25.06 93.39 25.14 93.49 25.14H93.51C93.62 25.13 93.7 25.03 93.69 24.91L93.47 22.95C93.47 22.95 93.24 22.76 92.83 22.44C92.73 22.36 92.62 22.27 92.5 22.17C92.44 22.12 92.37 22.07 92.31 22.02C92.31 22.02 92.24 21.97 92.21 21.94C92.21 21.94 92.18 21.91 92.16 21.9C92.16 21.9 92.14 21.89 92.13 21.88C92.13 21.88 92.12 21.87 92.11 21.86C92.11 21.86 92.08 21.83 92.06 21.81C92.06 21.81 92.02 21.78 92.01 21.77C92.01 21.77 91.97 21.74 91.96 21.73C91.96 21.73 91.94 21.71 91.93 21.71C91.93 21.71 91.93 21.71 91.92 21.7C91.92 21.7 91.86 21.64 91.82 21.62C91.82 21.62 91.82 21.61 91.81 21.61C91.81 21.61 91.81 21.61 91.8 21.6C91.8 21.6 91.8 21.6 91.79 21.59H91.78V21.58H91.77V21.57L91.75 21.55C91.75 21.55 91.74 21.53 91.73 21.53H91.72V21.52C91.72 21.52 91.72 21.52 91.71 21.51C91.71 21.51 91.71 21.51 91.7 21.5H91.69V21.49C91.69 21.49 91.69 21.49 91.68 21.48C91.68 21.48 91.68 21.48 91.68 21.47H91.67C91.67 21.47 91.67 21.46 91.67 21.45C91.67 21.45 91.67 21.45 91.66 21.44L91.62 21.41H91.61V21.4L91.59 21.38L91.53 21.33L78.75 11.11C78.71 11.08 78.67 11.07 78.62 11.07L78.34 10.89ZM71.39 5.29002L71.1 5.32002C68.58 5.61002 50.32 7.67003 50.32 7.67003C50.21 7.68003 50.13 7.78002 50.14 7.90002C50.15 8.00002 50.24 8.08003 50.34 8.08003H50.36L71.26 5.71002L73.1 7.18002C73.1 7.18002 73.18 7.22003 73.23 7.22003C73.29 7.22003 73.35 7.19003 73.39 7.14003C73.46 7.05003 73.45 6.92002 73.36 6.85002L71.39 5.27002V5.29002Z" fill="#23261B"/>
<path d="M72.79 1.75L96.32 20.49L75.18 22.89L72.79 1.75Z" fill="#F2FC8C"/>
<path d="M73.4 2.84003L95.12 20.14L75.61 22.35L73.4 2.84003ZM72.18 0.650024L74.76 23.42L97.53 20.84L72.18 0.650024Z" fill="#23261B"/>
<path d="M10.13 31.02C9.28997 29.82 8.25998 28.79 7.09998 28C5.78998 27.11 4.37996 26.56 2.95996 26.4C4.02996 25.47 4.87996 24.22 5.45996 22.73C5.96996 21.42 6.21996 19.99 6.23996 18.52C7.08996 19.72 8.10999 20.75 9.26999 21.54C10.58 22.43 11.99 22.98 13.42 23.14C12.35 24.07 11.5 25.32 10.92 26.81C10.41 28.12 10.16 29.55 10.14 31.02H10.13Z" fill="#61C5CB"/>
<path d="M6.76001 20.23C7.40001 20.93 8.12001 21.56 8.89001 22.08C9.90001 22.77 10.97 23.27 12.07 23.55C11.34 24.4 10.74 25.42 10.29 26.57C9.95001 27.44 9.72 28.36 9.59 29.3C8.95 28.6 8.22999 27.97 7.45999 27.45C6.44999 26.76 5.38 26.26 4.28 25.98C5.01 25.13 5.61 24.11 6.06 22.96C6.4 22.09 6.63001 21.17 6.76001 20.23ZM4.95999 14.44C5.84999 17.29 5.74 20.16 4.84 22.49C3.94 24.82 2.26 26.61 0 27.32C0.68 27.11 1.37 27.01 2.06 27.01C3.67 27.01 5.28001 27.56 6.73001 28.55C8.79001 29.96 10.51 32.25 11.4 35.1C10.51 32.25 10.62 29.38 11.52 27.05C12.42 24.72 14.1 22.93 16.36 22.22C15.68 22.43 14.99 22.53 14.3 22.53C12.69 22.53 11.08 21.98 9.63 20.99C7.57 19.58 5.84999 17.29 4.95999 14.44Z" fill="#23261B"/>
<path d="M100.28 47.16C99.68 45.82 98.87 44.61 97.89 43.61C96.78 42.48 95.49 41.67 94.13 41.24C95.36 40.53 96.44 39.47 97.29 38.11C98.04 36.92 98.57 35.57 98.86 34.13C99.46 35.47 100.27 36.68 101.25 37.68C102.36 38.81 103.65 39.62 105.01 40.05C103.78 40.76 102.7 41.82 101.85 43.17C101.1 44.36 100.57 45.71 100.28 47.15V47.16Z" fill="#61C5CB"/>
<path d="M99.06 35.92C99.56 36.74 100.14 37.48 100.79 38.15C101.65 39.02 102.61 39.72 103.63 40.21C102.75 40.91 101.96 41.79 101.3 42.84C100.8 43.63 100.4 44.49 100.09 45.39C99.59 44.57 99.01 43.83 98.36 43.16C97.5 42.29 96.54 41.59 95.52 41.1C96.4 40.4 97.19 39.52 97.85 38.47C98.35 37.68 98.75 36.82 99.06 35.92ZM98.41 29.9C98.73 32.87 98.07 35.66 96.74 37.77C95.41 39.88 93.41 41.32 91.06 41.57C91.31 41.54 91.56 41.53 91.8 41.53C93.88 41.53 95.85 42.48 97.42 44.07C99.17 45.85 100.42 48.43 100.74 51.4C100.42 48.43 101.08 45.64 102.41 43.53C103.74 41.42 105.74 39.98 108.09 39.73C107.84 39.76 107.59 39.77 107.35 39.77C105.27 39.77 103.3 38.82 101.73 37.23C99.98 35.45 98.73 32.87 98.41 29.9Z" fill="#23261B"/>
</svg>
