<?xml version="1.0" encoding="UTF-8"?>
<svg id="Layer_2" data-name="Layer 2" xmlns="http://www.w3.org/2000/svg" viewBox="0 0 58.47 58.31">
  <defs>
    <style>
      .cls-1 {
        fill: #3e3c36;
      }

      .cls-2 {
        fill: #23261b;
      }
    </style>
  </defs>
  <g id="Layer_1-2" data-name="Layer 1">
    <g>
      <path class="cls-1" d="M1,57.31V1.36c0-.26.22-.35.36-.35.09,0,.17.03.24.11l55.79,55.79c.07.07.09.16.05.26-.04.1-.11.15-.22.15H1Z"/>
      <path class="cls-2" d="M2.01,2.93l53.37,53.37H2.01V2.93M1.37,0C.67,0,0,.54,0,1.36v56.95h57.23c1.1,0,1.66-1.34.88-2.12L2.31.4C2.04.12,1.7,0,1.37,0h0Z"/>
    </g>
  </g>
</svg>