<svg width="107" height="19" viewBox="0 0 107 19" fill="none" xmlns="http://www.w3.org/2000/svg">
<rect width="107" height="19" fill="#CEC7C7"/>
<path d="M90.43 18.91C88.57 18.91 86.81 18.2 85.46 16.91L78.08 9.84003L70.57 16.95C69.23 18.21 67.48 18.91 65.64 18.91C63.8 18.91 62.02 18.2 60.67 16.91L53.29 9.84003L45.78 16.95C44.44 18.21 42.69 18.91 40.85 18.91C39.01 18.91 37.23 18.2 35.88 16.91L28.5 9.84003L20.99 16.95C19.65 18.21 17.9 18.91 16.06 18.91C14.22 18.91 12.44 18.2 11.09 16.91L4.51001 10.61C1.65001 7.86999 0 4.02 0 0.0599976V-49.32C0 -51.35 1.64999 -53 3.67999 -53H102.94C104.97 -53 106.62 -51.35 106.62 -49.32V0.0200195C106.62 4.02002 104.95 7.89001 102.05 10.64L95.38 16.95C94.04 18.21 92.29 18.91 90.45 18.91H90.43Z" fill="#23261B"/>
<path d="M3.67999 -49.3201V0.0599365C3.67999 3.03994 4.89999 5.89996 7.04999 7.95996L13.63 14.2599C14.98 15.5499 17.1 15.56 18.46 14.28L25.98 7.16992C27.4 5.82992 29.63 5.82994 31.04 7.18994L38.42 14.2599C39.77 15.5499 41.89 15.56 43.25 14.28L50.77 7.16992C52.19 5.82992 54.42 5.82994 55.83 7.18994L63.21 14.2599C64.56 15.5499 66.68 15.56 68.04 14.28L75.56 7.16992C76.98 5.82992 79.21 5.82994 80.62 7.18994L88 14.2599C89.35 15.5499 91.47 15.56 92.83 14.28L99.5 7.96991C101.69 5.89991 102.92 3.02996 102.92 0.0199585V-49.3201H3.66H3.67999Z" fill="#FF744D"/>
<path d="M90.43 13.27C90.03 13.27 89.65 13.12 89.36 12.84L81.98 5.77002C80.93 4.76002 79.54 4.20001 78.08 4.20001C76.62 4.20001 75.26 4.74999 74.21 5.73999L66.69 12.84C66.4 13.11 66.03 13.26 65.63 13.26C65.23 13.26 64.85 13.11 64.56 12.83L57.18 5.76001C56.13 4.75001 54.74 4.19 53.28 4.19C51.82 4.19 50.46 4.73998 49.41 5.72998L41.89 12.83C41.6 13.1 41.23 13.25 40.83 13.25C40.43 13.25 40.05 13.1 39.76 12.82L32.37 5.75C31.32 4.74 29.93 4.17999 28.47 4.17999C27.01 4.17999 25.65 4.72997 24.6 5.71997L17.08 12.82C16.79 13.09 16.42 13.24 16.02 13.24C15.62 13.24 15.24 13.09 14.95 12.81L8.37 6.51001C6.61 4.83001 5.60001 2.46003 5.60001 0.0300293V-47.39H100.93V-0.0100098C100.93 2.44999 99.91 4.82001 98.12 6.51001L91.45 12.82C91.16 13.09 90.79 13.24 90.39 13.24L90.43 13.27Z" fill="#FF5A3A"/>
</svg>
