<?xml version="1.0" encoding="UTF-8"?>
<svg id="Layer_2" data-name="Layer 2" xmlns="http://www.w3.org/2000/svg" viewBox="0 0 69.15 57.66">
  <defs>
    <style>
      .cls-1 {
        fill: #23261b;
      }

      .cls-2 {
        fill: #36312f;
      }
    </style>
  </defs>
  <g id="Layer_1-2" data-name="Layer 1">
    <g>
      <path class="cls-2" d="M57.06,56.26l-15.74-10.99c-4.06-2.83-9.45-2.83-13.5,0l-15.74,10.99c-5.09,3.56-12.08-.09-12.08-6.3V0h69.15v49.96c0,6.21-6.99,9.86-12.08,6.3Z"/>
      <path class="cls-1" d="M61.44,54.31c-.88,0-1.7-.27-2.46-.79l-15.74-10.99c-2.55-1.78-5.55-2.73-8.67-2.73s-6.11.94-8.67,2.73l-15.74,10.99c-.75.53-1.58.79-2.46.79-1.11,0-2.22-.45-3.04-1.23-.6-.57-1.32-1.58-1.32-3.12V3.35h62.45v46.62c0,2.69-2.26,4.35-4.36,4.35Z"/>
    </g>
  </g>
</svg>